<?xml version="1.0" encoding="UTF-8" standalone="no"?>
<svg width="33px" height="10px" viewBox="0 0 33 10" version="1.1" xmlns="http://www.w3.org/2000/svg" xmlns:xlink="http://www.w3.org/1999/xlink" xmlns:sketch="http://www.bohemiancoding.com/sketch/ns">
    <!-- Generator: Sketch 3.4 (15575) - http://www.bohemiancoding.com/sketch -->
    <title>AUDI</title>
    <desc>Created with Sketch.</desc>
    <defs></defs>
    <g id="Page-1" stroke="none" stroke-width="1" fill="none" fill-rule="evenodd" sketch:type="MSPage">
        <g id="2" sketch:type="MSArtboardGroup" transform="translate(-150.000000, -173.000000)" fill="#FFFFFF">
            <g id="carlogo" sketch:type="MSLayerGroup" transform="translate(17.000000, 152.000000)">
                <g id="AUDI" transform="translate(133.000000, 21.000000)" sketch:type="MSShapeGroup">
                    <path d="M5.3107,1.1316 C3.1797,1.1316 1.4417,2.8696 1.4417,5.0006 C1.4417,7.1316 3.1797,8.8696 5.3107,8.8696 C7.4417,8.8696 9.1797,7.1316 9.1797,5.0006 C9.1797,2.8696 7.4417,1.1316 5.3107,1.1316 M5.3107,0.0006 C8.0637,0.0006 10.3097,2.2466 10.3097,5.0006 C10.3097,7.7546 8.0637,9.9996 5.3107,9.9996 C2.5567,9.9996 0.3117,7.7546 0.3117,5.0006 C0.3117,2.2466 2.5567,0.0006 5.3107,0.0006" id="1"></path>
                    <path d="M12.679,1.1316 C10.548,1.1316 8.81,2.8696 8.81,5.0006 C8.81,7.1316 10.548,8.8696 12.679,8.8696 C14.81,8.8696 16.548,7.1316 16.548,5.0006 C16.548,2.8696 14.81,1.1316 12.679,1.1316 M12.679,0.0006 C15.433,0.0006 17.678,2.2466 17.678,5.0006 C17.678,7.7546 15.433,9.9996 12.679,9.9996 C9.926,9.9996 7.68,7.7546 7.68,5.0006 C7.68,2.2466 9.926,0.0006 12.679,0.0006" id="2"></path>
                    <path d="M20.0477,1.1316 C17.9167,1.1316 16.1787,2.8696 16.1787,5.0006 C16.1787,7.1316 17.9167,8.8696 20.0477,8.8696 C22.1787,8.8696 23.9167,7.1316 23.9167,5.0006 C23.9167,2.8696 22.1787,1.1316 20.0477,1.1316 M20.0477,0.0006 C22.8017,0.0006 25.0467,2.2466 25.0467,5.0006 C25.0467,7.7546 22.8017,9.9996 20.0477,9.9996 C17.2937,9.9996 15.0487,7.7546 15.0487,5.0006 C15.0487,2.2466 17.2937,0.0006 20.0477,0.0006" id="3"></path>
                    <path d="M27.4161,1.1316 C25.2851,1.1316 23.5471,2.8696 23.5471,5.0006 C23.5471,7.1316 25.2851,8.8696 27.4161,8.8696 C29.5471,8.8696 31.2851,7.1316 31.2851,5.0006 C31.2851,2.8696 29.5471,1.1316 27.4161,1.1316 M27.4161,0.0006 C30.1701,0.0006 32.4151,2.2466 32.4151,5.0006 C32.4151,7.7546 30.1701,9.9996 27.4161,9.9996 C24.6621,9.9996 22.4161,7.7546 22.4161,5.0006 C22.4161,2.2466 24.6621,0.0006 27.4161,0.0006" id="4"></path>
                </g>
            </g>
        </g>
    </g>
</svg>