<?xml version="1.0" encoding="UTF-8" standalone="no"?>
<svg width="81px" height="124px" viewBox="0 0 81 124" version="1.1" xmlns="http://www.w3.org/2000/svg" xmlns:xlink="http://www.w3.org/1999/xlink" xmlns:sketch="http://www.bohemiancoding.com/sketch/ns">
    <!-- Generator: Sketch 3.4 (15575) - http://www.bohemiancoding.com/sketch -->
    <title>ballon</title>
    <desc>Created with Sketch.</desc>
    <defs>
        <path id="path-1" d="M57.321048,98.9246769 C78.3322639,97.5572524 95,77.7427463 95,53.5 C95,28.3710439 77.09139,8 55,8 C32.90861,8 15,28.3710439 15,53.5 C15,78.0157846 32.0452972,98.0030197 53.3905152,98.9638396 L51.0566435,103.972528 L60.025457,104.11043 L57.321048,98.9246769 L57.321048,98.9246769 Z"></path>
    </defs>
    <g id="Page-1" stroke="none" stroke-width="1" fill="none" fill-rule="evenodd" sketch:type="MSPage">
        <g id="1" sketch:type="MSArtboardGroup" transform="translate(-41.000000, -240.000000)">
            <g id="ballon" sketch:type="MSLayerGroup" transform="translate(27.000000, 232.000000)">
                <path d="M55.5,101.5 L55.5,131.5" id="Line" stroke="#4A4A4A" stroke-linecap="square" sketch:type="MSShapeGroup"></path>
                <mask id="mask-2" sketch:name="Mask" fill="white">
                    <use xlink:href="#path-1"></use>
                </mask>
                <use id="Mask" fill="#FB6152" sketch:type="MSShapeGroup" xlink:href="#path-1"></use>
                <path d="M43.7612395,83.613527 C49.0277969,75.2786491 52.5243688,61.0353071 52.5243688,45.4235233 C52.5243688,20.2945672 35.963257,4.03870556 34.5490885,4.03870556 C29.937546,6.3790581 15.2731294,17.7915895 16.0283463,40.8179414 C16.7835633,63.8442933 33.7295413,79.943506 43.7612395,83.613527 Z" id="Oval-23" fill="#FD796C" sketch:type="MSShapeGroup" transform="translate(34.262294, 43.826116) rotate(26.000000) translate(-34.262294, -43.826116) "></path>
                <path d="M57.5865264,37.344 L57.5865264,39.312 L68.7225264,39.312 C70.258534,39.312 71.3705229,39.6639965 72.0585264,40.368 C72.7465298,41.0720035 73.0905264,42.1919923 73.0905264,43.728 L73.0905264,50.4 C73.0905264,52.192009 72.6585307,53.4239966 71.7945264,54.096 C71.8265265,54.096 71.8425264,54.1039999 71.8425264,54.12 C71.8425264,54.1360001 71.8585262,54.144 71.8905264,54.144 C72.6905304,54.8480035 73.4905224,55.6719953 74.2905264,56.616 C75.0905304,57.5600047 75.8105232,58.4479958 76.4505264,59.28 C77.1545299,60.1760045 77.4665268,60.9519967 77.3865264,61.608 C77.306526,62.2640033 76.9945291,62.7999979 76.4505264,63.216 C75.8425233,63.6640022 75.2105296,63.8560003 74.5545264,63.792 C73.8985231,63.7279997 73.1865302,63.1680053 72.4185264,62.112 C72.2905257,61.9519992 72.162527,61.7840009 72.0345264,61.608 C71.9065257,61.4319991 71.7625272,61.2640008 71.6025264,61.104 L34.7865264,61.536 C34.1785233,61.4719997 33.6425287,61.2320021 33.1785264,60.816 C32.714524,60.3999979 32.514526,59.8560034 32.5785264,59.184 C32.5785264,58.383996 32.7385248,57.7920019 33.0585264,57.408 C33.378528,57.0239981 33.9865219,56.832 34.8825264,56.832 L52.4025264,56.688 L52.4025264,54.912 L40.4985264,54.912 C38.834518,54.912 37.7145292,54.5680034 37.1385264,53.88 C36.5625235,53.1919966 36.2745264,52.0320082 36.2745264,50.4 L36.2745264,43.728 C36.2745264,42.0959918 36.5945232,40.9520033 37.2345264,40.296 C37.8745296,39.6399967 38.9625187,39.312 40.4985264,39.312 L52.4025264,39.312 L52.4025264,37.344 L35.0745264,37.344 C34.210522,37.344 33.6025281,37.1520019 33.2505264,36.768 C32.8985246,36.3839981 32.7225264,35.8400035 32.7225264,35.136 C32.7225264,34.3679962 32.8825248,33.8080018 33.2025264,33.456 C33.522528,33.1039982 34.1465217,32.928 35.0745264,32.928 L52.4025264,32.928 L52.4025264,32.352 C52.4025264,31.4239954 52.6185242,30.8000016 53.0505264,30.48 C53.4825285,30.1599984 54.130522,30 54.9945264,30 C55.8585307,30 56.5065242,30.1599984 56.9385264,30.48 C57.3705285,30.8000016 57.5865264,31.4239954 57.5865264,32.352 L57.5865264,32.928 L74.1465264,32.928 C75.0425308,32.928 75.6665246,33.1039982 76.0185264,33.456 C76.3705281,33.8080018 76.5465264,34.3679962 76.5465264,35.136 C76.5465264,36.6080074 75.7465344,37.344 74.1465264,37.344 L57.5865264,37.344 Z M68.8665264,68.736 C68.8665264,70.0480066 68.7865272,71.1119959 68.6265264,71.928 C68.4665256,72.7440041 68.1705285,73.3919976 67.7385264,73.872 C67.3065242,74.3520024 66.7065302,74.7039989 65.9385264,74.928 C65.1705225,75.1520011 64.1785324,75.3119995 62.9625264,75.408 C62.098522,75.4400002 61.0585324,75.4639999 59.8425264,75.48 C58.6265203,75.4960001 57.3705328,75.504 56.0745264,75.504 C54.7785199,75.504 53.5305324,75.4880002 52.3305264,75.456 C51.1305204,75.4239998 50.1305304,75.3760003 49.3305264,75.312 C48.05052,75.1839994 47.0265302,75.016001 46.2585264,74.808 C45.4905225,74.599999 44.9065284,74.2800022 44.5065264,73.848 C44.1065244,73.4159978 43.842527,72.8560034 43.7145264,72.168 C43.5865257,71.4799966 43.5225264,70.5760056 43.5225264,69.456 L43.5225264,64.8 C43.5225264,63.9679958 43.7705239,63.3600019 44.2665264,62.976 C44.7625288,62.5919981 45.346523,62.4 46.0185264,62.4 C46.7865302,62.4 47.402524,62.5919981 47.8665264,62.976 C48.3305287,63.3600019 48.5625264,63.9679958 48.5625264,64.8 L48.5625264,69.408 C48.5625264,69.9520027 48.7145248,70.327999 49.0185264,70.536 C49.3225279,70.744001 50.0185209,70.8799997 51.1065264,70.944 C51.5545286,70.9760002 52.2505216,71.0079998 53.1945264,71.04 C54.1385311,71.0720002 55.146521,71.088 56.2185264,71.088 C57.2905317,71.088 58.3225214,71.0800001 59.3145264,71.064 C60.3065313,71.0479999 61.0905235,71.0240002 61.6665264,70.992 C62.6585313,70.9599998 63.3385245,70.8240012 63.7065264,70.584 C64.0745282,70.3439988 64.2425265,69.7920043 64.2105264,68.928 C64.2105264,67.9679952 64.4345241,67.2960019 64.8825264,66.912 C65.3305286,66.5279981 65.9065228,66.336 66.6105264,66.336 C67.2825297,66.336 67.8265243,66.5439979 68.2425264,66.96 C68.6585284,67.3760021 68.8665264,67.9679962 68.8665264,68.736 L68.8665264,68.736 Z M41.3145264,66.96 C40.6745232,68.2720066 40.0425295,69.4639946 39.4185264,70.536 C38.7945232,71.6080054 37.9705315,72.7519939 36.9465264,73.968 C36.2425228,74.8000042 35.52253,75.2639995 34.7865264,75.36 C34.0505227,75.4560005 33.3945292,75.2320027 32.8185264,74.688 C32.2425235,74.1439973 31.9705262,73.5120036 32.0025264,72.792 C32.0345265,72.0719964 32.4025228,71.3600035 33.1065264,70.656 C33.9065304,69.8239958 34.6345231,68.9280048 35.2905264,67.968 C35.9465296,67.0079952 36.4505246,66.0960043 36.8025264,65.232 C37.6025304,63.2799902 38.7865185,62.6719963 40.3545264,63.408 C41.1865305,63.7920019 41.634526,64.279997 41.6985264,64.872 C41.7625267,65.464003 41.634528,66.1439962 41.3145264,66.912 L41.3145264,66.96 Z M77.0265264,73.824 C76.4185233,74.3360026 75.8105294,74.5680002 75.2025264,74.52 C74.5945233,74.4719998 74.0185291,74.0160043 73.4745264,73.152 C72.7385227,71.9679941 72.0585295,70.9360044 71.4345264,70.056 C70.8105232,69.1759956 70.0985304,68.2720046 69.2985264,67.344 L69.3465264,67.344 C68.6105227,66.543996 68.2185266,65.8560029 68.1705264,65.28 C68.1225261,64.7039971 68.4185232,64.0480037 69.0585264,63.312 C69.5705289,62.8639978 70.1465232,62.6719997 70.7865264,62.736 C71.4265296,62.8000003 72.0185236,63.1519968 72.5625264,63.792 C73.4585308,64.8160051 74.2665228,65.8079952 74.9865264,66.768 C75.70653,67.7280048 76.4825222,68.8639934 77.3145264,70.176 C77.8585291,70.976004 78.066527,71.7119966 77.9385264,72.384 C77.8105257,73.0560034 77.4745291,73.5679982 76.9305264,73.92 L77.0265264,73.824 Z M56.0314904,69.7121334 C54.1564699,68.9434109 51.22572,65.9630533 52.1896213,64.2936863 C53.1535227,62.6243192 54.7380087,62.5500101 56.0314904,64.2936862 C57.1989083,62.5500101 59.1977282,62.5876349 59.7783265,64.2936862 C60.3589249,65.9997375 58.2408814,68.5798612 56.0314904,69.7121334 Z M41.4585264,49.488 C41.4585264,50.0320027 41.5545254,50.3839992 41.7465264,50.544 C41.9385273,50.7040008 42.3065236,50.784 42.8505264,50.784 L52.4025264,50.784 L52.4025264,48.816 L41.4585264,48.816 L41.4585264,49.488 Z M67.9065264,48.816 L57.5865264,48.816 L57.5865264,50.784 L66.4185264,50.784 C67.0585296,50.784 67.4665255,50.680001 67.6425264,50.472 C67.8185272,50.263999 67.9065264,49.9360022 67.9065264,49.488 L67.9065264,48.816 Z M41.4585264,45.264 L52.4025264,45.264 L52.4025264,43.44 L42.8505264,43.44 C42.2425233,43.44 41.8585272,43.5519989 41.6985264,43.776 C41.5385256,44.0000011 41.4585264,44.3199979 41.4585264,44.736 L41.4585264,45.264 Z M67.5705264,56.592 C67.1865244,55.9519968 67.0905254,55.3920024 67.2825264,54.912 L57.5865264,54.912 L57.5865264,56.64 L67.5705264,56.592 Z M57.5865264,43.44 L57.5865264,45.264 L67.9065264,45.264 L67.9065264,44.736 C67.9065264,44.2879978 67.8025274,43.960001 67.5945264,43.752 C67.3865253,43.543999 66.9945292,43.44 66.4185264,43.44 L57.5865264,43.44 Z" id="惠" fill="#FFE290" sketch:type="MSShapeGroup"></path>
            </g>
        </g>
    </g>
</svg>