<?xml version="1.0" encoding="UTF-8" standalone="no"?>
<svg width="134px" height="87px" viewBox="0 0 134 87" version="1.1" xmlns="http://www.w3.org/2000/svg" xmlns:xlink="http://www.w3.org/1999/xlink" xmlns:sketch="http://www.bohemiancoding.com/sketch/ns">
    <!-- Generator: Sketch 3.4 (15575) - http://www.bohemiancoding.com/sketch -->
    <title>benz</title>
    <desc>Created with Sketch.</desc>
    <defs>
        <linearGradient x1="50%" y1="-4.79600178%" x2="50%" y2="100%" id="linearGradient-1">
            <stop stop-color="#000000" offset="0%"></stop>
            <stop stop-color="#000000" offset="0%"></stop>
            <stop stop-color="#BFBFBF" stop-opacity="0" offset="100%"></stop>
        </linearGradient>
        <path d="M28.119393,15.6785399 C32.1116996,11.0461534 36.4387083,5.10905127 36.4387083,5.10905127 C38.1730504,2.79338107 41.9374777,0.864397179 44.8282018,0.803341229 C44.8282018,0.803341229 61.3630074,0.422874952 69.7606632,0.434601581 C75.0513008,0.441989517 89.215688,1.14075339 89.215688,1.14075339 C92.1131828,1.2766412 95.8749368,3.27629375 97.6019324,5.58588088 L105.950091,16.7502405 L105.655392,14.2365246 C105.558737,13.4120836 106.154277,12.75 106.984661,12.75 L111.867544,12.75 C113.105844,12.75 114.175824,13.7563953 114.253427,14.9978468 L114.313028,15.9513241 C114.391064,17.1997089 113.468363,18.4081873 112.253085,18.6660221 L109.153467,19.3236408 C111.058033,20.5363039 113.549742,22.2185891 114.407918,23.230724 C115.865699,24.9500365 117.573833,27.0197534 117.573833,27.0197534 C117.573833,27.0197534 121.513991,32.9381118 122.479079,37.8212497 C123.444166,42.7043876 122.271549,59.7310287 122.271549,59.7310287 L122.607515,62.3169032 L120.117886,67.5228176 L119.273983,70.379858 C119.273983,70.379858 91.6065083,73.6956262 68.8863692,73.6956234 C46.1662302,73.6956206 15.9873548,71.176631 15.9873548,71.176631 L14.6362353,69.3221003 L14.5498856,66.5144964 L12.1262879,62.1453355 L12.9353632,59.0861958 C12.9353632,59.0861958 11.0197051,45.8536706 12.9353632,39.5798187 C14.8510213,33.3059667 17.6396099,26.5893801 17.6396099,26.5893801 C17.6396099,26.5893801 19.2635649,23.1507557 23.0876254,20.665932 C23.5659381,20.3551308 24.1334733,19.8786929 24.760428,19.2829163 L22.0791342,18.6866131 C20.8686379,18.4174061 19.9469384,17.1997089 20.021384,15.9513241 L20.0782433,14.9978468 C20.1522755,13.7563953 21.2220186,12.75 22.4624412,12.75 L26.9556968,12.75 C27.7792807,12.75 28.3728785,13.4120836 28.2806712,14.2365246 L28.1193931,15.6785398 Z" id="path-2"></path>
        <linearGradient x1="50%" y1="0%" x2="50%" y2="100%" id="linearGradient-4">
            <stop stop-color="#484848" offset="0%"></stop>
            <stop stop-color="#717171" stop-opacity="0" offset="100%"></stop>
        </linearGradient>
    </defs>
    <g id="Page-1" stroke="none" stroke-width="1" fill="none" fill-rule="evenodd" sketch:type="MSPage">
        <g id="2" sketch:type="MSArtboardGroup" transform="translate(-37.000000, -417.000000)">
            <g id="benz" sketch:type="MSLayerGroup" transform="translate(37.000000, 417.000000)">
                <path d="M117.481901,71.126338 L133.997374,87 L0.0026258117,87 L16.5180985,71.126338 L117.481901,71.126338 Z" id="shadow" fill="url(#linearGradient-1)" sketch:type="MSShapeGroup"></path>
                <rect id="wheel" fill="#1F1F1F" sketch:type="MSShapeGroup" x="17.2178771" y="47.25" width="28.4469274" height="29.25" rx="5.25"></rect>
                <rect id="wheel-copy" fill="#1F1F1F" sketch:type="MSShapeGroup" x="90.5810056" y="47.25" width="28.4469274" height="29.25" rx="5.25"></rect>
                <mask id="mask-3" sketch:name="Mask" fill="white">
                    <use xlink:href="#path-2"></use>
                </mask>
                <use id="Mask" fill="#5F5F5F" sketch:type="MSShapeGroup" xlink:href="#path-2"></use>
                <path d="M9.73184358,42.75 C9.73184358,42.75 48.0255941,52.3634069 67.3743017,52.3634069 C86.4538995,52.3634069 125.01676,42.75 125.01676,42.75 L125.01676,73.5 L9.73184358,73.5 L9.73184358,42.75 Z" id="Rectangle-2" fill="#4D4D4D" sketch:type="MSShapeGroup" mask="url(#mask-3)"></path>
                <path d="M14.1623984,37.4670381 C14.1623984,37.4670381 18.2529122,39.8550397 19.0220707,39.8550398 C19.7912291,39.8550399 23.1247569,37.932748 24.2839472,37.932748 C25.4431375,37.932748 33.5034533,40.6990595 34.0580686,40.4111985 C34.6126839,40.1233376 33.7753078,35.8801183 31.9689396,34.1554929 C30.1625714,32.4308674 18.9710977,26.5054524 18.9710977,26.5054524 C18.9710977,26.5054524 15.2097525,29.7174022 14.6860754,31.2341988 C14.1623984,32.7509954 14.1623984,37.4670381 14.1623984,37.4670381 Z" id="Path-2" fill="#ABABAB" sketch:type="MSShapeGroup" mask="url(#mask-3)"></path>
                <path d="M21.5,37 C23.9852814,37 29.2224312,38.2725323 29.2224312,36.3395357 C29.2224312,34.4065391 23.5201348,30.6189322 21.0348535,30.6189322 C18.5495721,30.6189322 17,31.5670034 17,33.5 C17,35.4329966 19.0147186,37 21.5,37 Z" id="Oval-66" fill="#FFFFFF" sketch:type="MSShapeGroup" mask="url(#mask-3)"></path>
                <path d="M101.061453,37.9615858 C101.061453,37.9615858 105.151966,40.3495873 105.921125,40.3495875 C106.690283,40.3495876 110.023811,38.4272956 111.183001,38.4272956 C112.342192,38.4272957 120.402507,41.1936071 120.957123,40.9057462 C121.511738,40.6178852 120.674362,36.374666 118.867994,34.6500405 C117.061625,32.9254151 105.870152,27 105.870152,27 C105.870152,27 102.108807,30.2119498 101.58513,31.7287464 C101.061453,33.245543 101.061453,37.9615858 101.061453,37.9615858 Z" id="Path-2-Copy" fill="#FFFFFF" sketch:type="MSShapeGroup" mask="url(#mask-3)">
                    <g transform="translate(111.093907, 33.963375) scale(-1, 1) translate(-111.093907, -33.963375) "></g>
                </path>
                <path d="M12.2577543,62.1768699 C12.2577543,62.1768699 15.4017583,64.2305704 18.2607418,64.2305704 C21.1197253,64.2305704 25.3108704,64.7194236 27.3049814,62.5436391 C29.2990923,60.3678545 38.2684627,49.358571 38.2684627,49.358571 L37.215125,47.3762585 C37.215125,47.3762585 18.721835,43.2879973 16.814469,41.9683528 C14.907103,40.6487083 12.2577543,38.59449 12.2577543,38.59449 C12.2577543,38.59449 11.1687899,46.6597914 12.0228189,49.8898432 C12.8768479,53.119895 12.9176389,59.0270002 12.9176389,59.0270002 L12.2577543,62.1768699 Z" id="Path-6" fill="#414141" sketch:type="MSShapeGroup" mask="url(#mask-3)"></path>
                <path d="M97.1317269,61.8323798 C97.1317269,61.8323798 100.275731,63.8860804 103.134714,63.8860804 C105.993698,63.8860804 110.184843,64.3749335 112.178954,62.199149 C114.173065,60.0233645 123.142435,49.014081 123.142435,49.014081 L122.089098,47.0317685 C122.089098,47.0317685 103.595808,42.9435073 101.688442,41.6238628 C99.7810756,40.3042182 97.1317269,38.25 97.1317269,38.25 C97.1317269,38.25 96.0427624,46.3153013 96.8967915,49.5453531 C97.7508205,52.7754049 97.7916115,58.6825101 97.7916115,58.6825101 L97.1317269,61.8323798 Z" id="Path-6-Copy" fill="#414141" sketch:type="MSShapeGroup" mask="url(#mask-3)">
                    <g transform="translate(109.856134, 51.091536) scale(-1, 1) translate(-109.856134, -51.091536) "></g>
                </path>
                <path d="M28.6046994,19.6816083 C28.6046994,19.6816083 32.3855615,27.254264 33.9842863,31.9222895 C35.5231278,36.4154651 40.7529685,44.348661 40.7529685,44.348661 C40.7529685,44.348661 58.9515166,48.9558794 67.8672496,49.0581904 C76.9431531,49.1623395 94.7278779,44.9680413 94.7278779,44.9680413 C94.7278779,44.9680413 100.095207,35.8506305 101.86887,30.5650788 C103.317324,26.2486557 105.536287,19.6816083 105.536287,19.6816083 L28.6046994,19.6816083 Z" id="Path-10" fill="url(#linearGradient-4)" sketch:type="MSShapeGroup" mask="url(#mask-3)"></path>
                <path d="M41.4955846,43.5275533 L35.4784003,33.5966114 L36.1698841,31.736911 L98.1781267,31.7582053 L99.5455076,33.2686795 L93.9753789,44.0946909 C93.9753789,44.0946909 73.6079362,47.610573 67.5119551,47.610573 C62.0166096,47.610573 41.4955846,43.5275533 41.4955846,43.5275533 Z" id="Path-3" fill="#454545" sketch:type="MSShapeGroup" mask="url(#mask-3)"></path>
                <path d="M66.999537,33.6037386 C62.9261531,33.6037386 59.6037386,36.9261531 59.6037386,40.999537 C59.6037386,45.0729209 62.9261531,48.3953354 66.999537,48.3953354 C71.0729209,48.3953354 74.3953354,45.0729209 74.3953354,40.999537 C74.3953354,36.9261531 71.0729209,33.6037386 66.999537,33.6037386 L66.999537,33.6037386 Z M66.999537,33.6361479 L65.781874,40.2957926 L60.6056485,44.6784536 L66.999537,42.399618 L73.3934255,44.6784536 L68.2172001,40.2957926 L66.999537,33.6361479 Z M66.999537,33 C71.4053475,33 75,36.5937265 75,40.999537 C75,45.4062735 71.4053475,49 66.999537,49 C62.5937265,49 59,45.4062735 59,40.999537 C59,36.5937265 62.5937265,33 66.999537,33 L66.999537,33 Z" fill="#FFFFFF" sketch:type="MSShapeGroup"></path>
                <path d="M35.6169959,64.3767816 C35.6169959,64.3767816 38.8299867,57.1111737 42.2158484,55.9854163 C45.6017102,54.859659 92.168468,54.5523114 94.198993,55.789509 C96.2295179,57.0267066 100.557668,64.3072206 100.557668,64.3072206 L103.056504,64.6706429 L105.115368,66.4813665 C105.115368,66.4813665 79.5588074,67.5588569 70.8826695,67.558857 C62.2065316,67.5588571 30.94027,66.2364823 30.94027,66.2364823 L32.2523888,64.3767819 L35.6169959,64.3767816 Z" id="Path-4" fill="#2A2A2A" sketch:type="MSShapeGroup"></path>
                <path d="M31.5212173,17.5222006 L102.74632,18.0751055 C102.74632,18.0751055 103.655568,17.2966737 103.655566,16.3961247 C103.655563,15.4955756 96.2284377,6.30052335 96.2284377,6.30052335 C94.9454725,4.69129143 92.2313878,3.28766922 90.1647215,3.1683566 C90.1647215,3.1683566 74.0809659,2.18844424 67.7701887,2.18844421 C61.4594115,2.18844419 44.7762988,2.71615029 44.7762988,2.71615029 C41.8766399,2.8035375 38.223621,4.83703981 36.6197351,7.25406257 L31.0118738,15.7049936 L31.5212173,17.5222006 Z" id="front" fill="#414040" sketch:type="MSShapeGroup"></path>
                <path d="M76.5983207,2.25 L69.6201117,18 L61.3854749,18 L68.3636839,2.25 L76.5983207,2.25 Z" id="Rectangle-2" fill="#9B9B9B" sketch:type="MSShapeGroup"></path>
                <path d="M65.3692704,2.25 L58.3910615,18 L52.4022346,18 L59.3804436,2.25 L65.3692704,2.25 Z" id="Rectangle-2-Copy" fill="#9B9B9B" sketch:type="MSShapeGroup"></path>
                <path d="M81.2192265,2.25 L74.1926976,18 L71.1173184,18 L78.0955274,2.25 L81.2192265,2.25 Z" id="Rectangle-2-Copy-2" fill="#9B9B9B" sketch:type="MSShapeGroup"></path>
            </g>
        </g>
    </g>
</svg>