<?xml version="1.0" encoding="UTF-8" standalone="no"?>
<svg width="197px" height="132px" viewBox="0 0 197 132" version="1.1" xmlns="http://www.w3.org/2000/svg" xmlns:xlink="http://www.w3.org/1999/xlink" xmlns:sketch="http://www.bohemiancoding.com/sketch/ns">
    <!-- Generator: Sketch 3.4 (15575) - http://www.bohemiancoding.com/sketch -->
    <title>BMW</title>
    <desc>Created with Sketch.</desc>
    <defs>
        <linearGradient x1="50%" y1="10.0849291%" x2="50%" y2="90.5783299%" id="linearGradient-1">
            <stop stop-color="#000000" offset="0%"></stop>
            <stop stop-color="#DBDBDB" stop-opacity="0" offset="100%"></stop>
        </linearGradient>
        <path d="M15.6094465,36.2942778 C15.5693686,36.4045697 15.5300729,36.5131584 15.491559,36.6200109 C15.328113,36.6451262 15.2104897,36.6711644 15.1406822,36.6981406 C10.707089,38.4114441 7.82851435,47.8081322 7.82851435,47.8081322 C7.82851435,47.8081322 4.29038399,51.2244228 4.29038399,51.9781261 C4.29038399,68.1699085 7.8285143,95.8712369 7.8285143,95.8712369 L141.992546,96.4755785 C141.992546,96.4755785 145.989795,65.1775459 145.989795,56.3873339 C146.711049,50.8188257 144.803289,48.7160919 142.872846,48.7160919 C142.872846,46.8282412 142.110646,39.9633766 136.369838,37.942407 C136.251969,37.4479607 136.116897,36.9083278 135.96274,36.327443 L140.278441,36.3274427 L141.608174,36.9784714 L149.613892,36.1458087 L150.926612,35.3188503 C151.630674,34.8753205 151.903318,33.9088609 151.534755,33.1585238 L149.622094,29.264646 C149.2539,28.5150604 148.297463,27.7664267 147.485378,27.5924281 L140.278441,26.0482604 C139.466559,25.8743056 138.390753,26.2626917 137.875285,26.9160932 L138.213097,26.4878862 C137.697753,27.1411319 137.49492,28.3114068 137.760553,29.1032438 L138.966469,32.6980154 L134.897109,32.6980154 C133.823295,29.3548634 132.263253,25.2800775 130.028938,20.8671248 C124.224113,9.40212557 119.732132,6.14916162 119.732132,6.14916162 C118.177659,4.58783188 115.072499,3.22192363 112.878228,3.01518813 C112.878228,3.01518813 91.4470412,0.817789592 73.5000007,0.987197821 C55.5529601,1.15660605 37.4235723,3.38951583 37.4235723,3.38951583 C37.4235723,3.38951583 31.2131289,3.97759916 24.316967,16.8084381 C21.1182813,22.7598385 18.6800607,28.365066 16.98502,32.6648501 L12.8807079,32.6648501 L14.0866243,29.0700786 C14.3522571,28.2782416 14.1494245,27.1079666 13.6340799,26.454721 L13.9718918,26.882928 C13.4564242,26.2295265 12.3806178,25.8411403 11.5687362,26.0150952 L4.36179967,27.5592629 C3.54971399,27.7332615 2.59327765,28.4818952 2.22508343,29.2314808 L0.312422253,33.1253586 C-0.0561410768,33.8756957 0.216502963,34.8421553 0.920565317,35.2856851 L2.23328516,36.1126435 L10.2390032,36.9453062 L11.5687359,36.2942775 L15.6094465,36.2942778 Z" id="path-2"></path>
        <filter x="-50%" y="-50%" width="200%" height="200%" filterUnits="objectBoundingBox" id="filter-4">
            <feOffset dx="0" dy="4" in="SourceAlpha" result="shadowOffsetInner1"></feOffset>
            <feGaussianBlur stdDeviation="3.5" in="shadowOffsetInner1" result="shadowBlurInner1"></feGaussianBlur>
            <feComposite in="shadowBlurInner1" in2="SourceAlpha" operator="arithmetic" k2="-1" k3="1" result="shadowInnerInner1"></feComposite>
            <feColorMatrix values="0 0 0 0 0   0 0 0 0 0   0 0 0 0 0  0 0 0 0.35 0" in="shadowInnerInner1" type="matrix" result="shadowMatrixInner1"></feColorMatrix>
            <feMerge>
                <feMergeNode in="SourceGraphic"></feMergeNode>
                <feMergeNode in="shadowMatrixInner1"></feMergeNode>
            </feMerge>
        </filter>
        <filter x="-50%" y="-50%" width="200%" height="200%" filterUnits="objectBoundingBox" id="filter-5">
            <feOffset dx="0" dy="4" in="SourceAlpha" result="shadowOffsetInner1"></feOffset>
            <feGaussianBlur stdDeviation="3.5" in="shadowOffsetInner1" result="shadowBlurInner1"></feGaussianBlur>
            <feComposite in="shadowBlurInner1" in2="SourceAlpha" operator="arithmetic" k2="-1" k3="1" result="shadowInnerInner1"></feComposite>
            <feColorMatrix values="0 0 0 0 0   0 0 0 0 0   0 0 0 0 0  0 0 0 0.35 0" in="shadowInnerInner1" type="matrix" result="shadowMatrixInner1"></feColorMatrix>
            <feMerge>
                <feMergeNode in="SourceGraphic"></feMergeNode>
                <feMergeNode in="shadowMatrixInner1"></feMergeNode>
            </feMerge>
        </filter>
        <filter x="-50%" y="-50%" width="200%" height="200%" filterUnits="objectBoundingBox" id="filter-6">
            <feOffset dx="0" dy="5" in="SourceAlpha" result="shadowOffsetInner1"></feOffset>
            <feGaussianBlur stdDeviation="2.5" in="shadowOffsetInner1" result="shadowBlurInner1"></feGaussianBlur>
            <feComposite in="shadowBlurInner1" in2="SourceAlpha" operator="arithmetic" k2="-1" k3="1" result="shadowInnerInner1"></feComposite>
            <feColorMatrix values="0 0 0 0 0   0 0 0 0 0   0 0 0 0 0  0 0 0 0.35 0" in="shadowInnerInner1" type="matrix" result="shadowMatrixInner1"></feColorMatrix>
            <feMerge>
                <feMergeNode in="SourceGraphic"></feMergeNode>
                <feMergeNode in="shadowMatrixInner1"></feMergeNode>
            </feMerge>
        </filter>
        <filter x="-50%" y="-50%" width="200%" height="200%" filterUnits="objectBoundingBox" id="filter-7">
            <feOffset dx="1" dy="3" in="SourceAlpha" result="shadowOffsetInner1"></feOffset>
            <feGaussianBlur stdDeviation="3.5" in="shadowOffsetInner1" result="shadowBlurInner1"></feGaussianBlur>
            <feComposite in="shadowBlurInner1" in2="SourceAlpha" operator="arithmetic" k2="-1" k3="1" result="shadowInnerInner1"></feComposite>
            <feColorMatrix values="0 0 0 0 0   0 0 0 0 0   0 0 0 0 0  0 0 0 0.7 0" in="shadowInnerInner1" type="matrix" result="shadowMatrixInner1"></feColorMatrix>
            <feMerge>
                <feMergeNode in="SourceGraphic"></feMergeNode>
                <feMergeNode in="shadowMatrixInner1"></feMergeNode>
            </feMerge>
        </filter>
        <path id="path-8" d="M0.650504557,6.54478285 C0.375198674,5.87525648 0.128621919,4.40723524 0.128621919,4.40723524 C-0.368203054,1.97318643 1.25023697,0 3.72827601,0 L25.9007647,0 C28.3856238,0 30.4,2.00654963 30.4,4.49779675 L30.4,9.71746211 C30.4,12.2015267 28.3915647,14.2152589 25.9014522,14.2152589 L9.57283158,14.2152589 C7.08835226,14.2152589 4.03278627,12.5017896 2.75306139,10.3574804 C2.75306139,10.3574804 1.23424334,7.96439838 0.650504557,6.54478285 Z"></path>
        <linearGradient x1="50%" y1="0%" x2="50%" y2="100%" id="linearGradient-10">
            <stop stop-color="#414141" offset="0%"></stop>
            <stop stop-color="#FFFFFF" offset="100%"></stop>
        </linearGradient>
        <filter x="-50%" y="-50%" width="200%" height="200%" filterUnits="objectBoundingBox" id="filter-11">
            <feOffset dx="1" dy="3" in="SourceAlpha" result="shadowOffsetInner1"></feOffset>
            <feGaussianBlur stdDeviation="1.5" in="shadowOffsetInner1" result="shadowBlurInner1"></feGaussianBlur>
            <feComposite in="shadowBlurInner1" in2="SourceAlpha" operator="arithmetic" k2="-1" k3="1" result="shadowInnerInner1"></feComposite>
            <feColorMatrix values="0 0 0 0 0   0 0 0 0 0   0 0 0 0 0  0 0 0 0.7 0" in="shadowInnerInner1" type="matrix" result="shadowMatrixInner1"></feColorMatrix>
            <feMerge>
                <feMergeNode in="SourceGraphic"></feMergeNode>
                <feMergeNode in="shadowMatrixInner1"></feMergeNode>
            </feMerge>
        </filter>
        <path id="path-12" d="M0.650504557,6.54478285 C0.375198674,5.87525648 0.128621919,4.40723524 0.128621919,4.40723524 C-0.368203054,1.97318643 1.25023697,0 3.72827601,0 L25.9007647,0 C28.3856238,0 30.4,2.00654963 30.4,4.49779675 L30.4,9.71746211 C30.4,12.2015267 28.3915647,14.2152589 25.9014522,14.2152589 L9.57283158,14.2152589 C7.08835226,14.2152589 4.03278627,12.5017896 2.75306139,10.3574804 C2.75306139,10.3574804 1.23424334,7.96439838 0.650504557,6.54478285 Z"></path>
        <linearGradient x1="50%" y1="0%" x2="50%" y2="100%" id="linearGradient-14">
            <stop stop-color="#5D5D5D" offset="0%"></stop>
            <stop stop-color="#FFFFFF" offset="100%"></stop>
        </linearGradient>
        <linearGradient x1="42.7817251%" y1="31.3097462%" x2="39.0828965%" y2="65.1579506%" id="linearGradient-15">
            <stop stop-color="#EEEEEE" stop-opacity="0" offset="0%"></stop>
            <stop stop-color="#E7E7E7" offset="100%"></stop>
        </linearGradient>
        <linearGradient x1="42.3459271%" y1="38.6810948%" x2="47.1541789%" y2="76.0288572%" id="linearGradient-16">
            <stop stop-color="#EEEEEE" stop-opacity="0" offset="0%"></stop>
            <stop stop-color="#E7E7E7" offset="100%"></stop>
        </linearGradient>
        <circle id="path-17" cx="3.88888889" cy="3.88888889" r="3.88888889"></circle>
    </defs>
    <g id="Page-1" stroke="none" stroke-width="1" fill="none" fill-rule="evenodd" sketch:type="MSPage">
        <g id="2" sketch:type="MSArtboardGroup" transform="translate(-91.000000, -401.000000)">
            <g id="BMW" sketch:type="MSLayerGroup" transform="translate(88.000000, 401.000000)">
                <path d="M34.3120086,87.7170079 L165.941975,87.7170079 L203,136.577657 L0.130803862,136.577657 L34.3120086,87.7170079 Z" id="shadows" fill="url(#linearGradient-1)" sketch:type="MSShapeGroup"></path>
                <path d="M30.3524732,88.1340308 C30.3524732,80.2708876 30.7683171,64.4223433 30.7683171,64.4223433 L50.9978067,64.4223433 C54.4800524,64.4223433 57.2642194,67.2484572 57.2165057,70.7282325 L56.7507748,104.694111 C56.7030217,108.176757 53.8436887,111 50.3625516,111 L37.0700757,111 C33.5897105,111 30.7028841,108.186828 30.6252072,104.698469 C30.6252072,104.698469 30.3524732,93.6786282 30.3524732,88.1340308 Z" id="wheel" fill="#333333" sketch:type="MSShapeGroup"></path>
                <path d="M145.192079,88.1340308 C145.192079,80.2708876 145.607923,64.4223433 145.607923,64.4223433 L165.837413,64.4223433 C169.319658,64.4223433 172.103825,67.2484572 172.056112,70.7282325 L171.590381,104.694111 C171.542628,108.176757 168.683295,111 165.202158,111 L151.909682,111 C148.429317,111 145.54249,108.186828 145.464813,104.698469 C145.464813,104.698469 145.192079,93.6786282 145.192079,88.1340308 Z" id="wheel" fill="#333333" sketch:type="MSShapeGroup" transform="translate(158.624110, 87.711172) scale(-1, 1) translate(-158.624110, -87.711172) "></path>
                <g id="Path-+-Path-Copy-2-+-Rectangle-16-+-Rectangle-5-+-Rectangle-5-Copy-10-+-front-+-Rectangle-191-Mask" transform="translate(26.000000, 0.000000)">
                    <mask id="mask-3" sketch:name="Mask" fill="white">
                        <use xlink:href="#path-2"></use>
                    </mask>
                    <use id="Mask" fill="#FFFFFF" sketch:type="MSShapeGroup" xlink:href="#path-2"></use>
                    <path d="M8,54.0006647 C8,54.0006647 10.5731892,49.0000001 15.0400099,49 C19.5068307,48.9999999 24.5036049,50.9782513 24.5036049,50.9782513 C24.5036049,50.9782513 29.1306806,50.6220437 31.1439947,51.5658154 C33.1573087,52.5095872 36.026665,52.9269463 37.5749388,57.8119325 C39.1232126,62.6969188 38.2291394,61.7928958 38.2291394,61.7928958 L22.6495294,61.0646833 L20.4612537,61.9636105 C20.4612537,61.9636105 17.0629605,62.2596859 13.5510696,60.4271788 C10.0391788,58.5946716 8,54.0006647 8,54.0006647 Z" id="Path" fill-opacity="0.999065876" fill="#7A7A7A" filter="url(#filter-4)" sketch:type="MSShapeGroup" mask="url(#mask-3)"></path>
                    <circle id="Oval-73" stroke="#FFFFFF" fill="#D8D8D8" sketch:type="MSShapeGroup" mask="url(#mask-3)" cx="18.5" cy="54.5" r="4.5"></circle>
                    <circle id="Oval-73-Copy" stroke="#FFFFFF" fill="#D8D8D8" sketch:type="MSShapeGroup" mask="url(#mask-3)" cx="28.5" cy="55.5" r="3.5"></circle>
                    <path d="M142.485953,54.0006647 C142.485953,54.0006647 139.912764,49.0000001 135.445943,49 C130.979122,48.9999999 125.982348,50.9782513 125.982348,50.9782513 C125.982348,50.9782513 121.355272,50.6220437 119.341958,51.5658154 C117.328644,52.5095872 114.459288,52.9269463 112.911014,57.8119325 C111.36274,62.6969188 112.256813,61.7928958 112.256813,61.7928958 L127.836423,61.0646833 L130.024699,61.9636105 C130.024699,61.9636105 133.422992,62.2596859 136.934883,60.4271788 C140.446774,58.5946716 142.485953,54.0006647 142.485953,54.0006647 L142.485953,54.0006647 Z" id="Path-Copy-2" fill-opacity="0.999065876" fill="#7A7A7A" filter="url(#filter-5)" sketch:type="MSShapeGroup" mask="url(#mask-3)"></path>
                    <circle id="Oval-73-Copy-3" stroke="#FFFFFF" fill="#D8D8D8" sketch:type="MSShapeGroup" mask="url(#mask-3)" cx="131.5" cy="54.5" r="4.5"></circle>
                    <circle id="Oval-73-Copy-2" stroke="#FFFFFF" fill="#D8D8D8" sketch:type="MSShapeGroup" mask="url(#mask-3)" cx="121.5" cy="55.5" r="3.5"></circle>
                    <path d="M101.249614,89.5258856 L134.284526,89.5258856 C134.284526,89.5258856 143.045994,78.3373841 138.66526,75.9155313 C134.284527,73.4936786 115.676601,75.9155313 104.182272,75.9155313 L49.8702032,75.9155313 C36.5576932,75.9155313 15.8705098,73.1317721 11.6741748,74.7423518 C7.4778398,76.3529316 14.4086833,89.5258856 14.4086833,89.5258856 L51.9543468,89.5258856 L54.2289899,86.9943 L98.9749705,86.9943 L101.249614,89.5258856 Z" id="Rectangle-16" fill="#4A4A4A" filter="url(#filter-6)" sketch:type="MSShapeGroup" mask="url(#mask-3)"></path>
                    <g id="Rectangle-5" mask="url(#mask-3)">
                        <g transform="translate(43.342574, 54.441417)">
                            <mask id="mask-9" sketch:name="Mask" fill="white">
                                <use xlink:href="#path-8"></use>
                            </mask>
                            <use id="Mask" stroke="none" fill="#4A4A4A" fill-rule="evenodd" filter="url(#filter-7)" sketch:type="MSShapeGroup" xlink:href="#path-8"></use>
                            <path d="M4.21386139,0 L5.11683168,0 L5.11683168,14.2152589 L4.21386139,14.2152589 L4.21386139,0 Z M1.5049505,0 L2.40792079,0 L2.40792079,14.2152589 L1.5049505,14.2152589 L1.5049505,0 Z M6.62178218,0 L7.52475248,0 L7.52475248,14.2152589 L6.62178218,14.2152589 L6.62178218,0 Z M9.02970297,0 L9.93267327,0 L9.93267327,14.2152589 L9.02970297,14.2152589 L9.02970297,0 Z M11.4376238,0 L12.3405941,0 L12.3405941,14.2152589 L11.4376238,14.2152589 L11.4376238,0 Z M13.8455446,0 L14.7485149,0 L14.7485149,14.2152589 L13.8455446,14.2152589 L13.8455446,0 Z M16.2534653,0 L17.1564356,0 L17.1564356,14.2152589 L16.2534653,14.2152589 L16.2534653,0 Z M18.9623762,0 L19.8653465,0 L19.8653465,14.2152589 L18.9623762,14.2152589 L18.9623762,0 Z M21.9722772,0 L22.8752475,0 L22.8752475,14.2152589 L21.9722772,14.2152589 L21.9722772,0 Z M24.6811881,0 L25.5841584,0 L25.5841584,14.2152589 L24.6811881,14.2152589 L24.6811881,0 Z M27.6910891,0 L28.5940594,0 L28.5940594,14.2152589 L27.6910891,14.2152589 L27.6910891,0 Z" id="Rectangle-5" stroke="none" fill="url(#linearGradient-10)" fill-rule="evenodd" sketch:type="MSShapeGroup" mask="url(#mask-9)"></path>
                        </g>
                    </g>
                    <g id="Rectangle-5-Copy-10" mask="url(#mask-3)">
                        <g transform="translate(92.856436, 62.243869) scale(-1, 1) translate(-92.856436, -62.243869) translate(77.356436, 54.743869)">
                            <mask id="mask-13" sketch:name="Mask" fill="white">
                                <use xlink:href="#path-12"></use>
                            </mask>
                            <use id="Mask" stroke="none" fill="#4A4A4A" fill-rule="evenodd" filter="url(#filter-11)" sketch:type="MSShapeGroup" xlink:href="#path-12"></use>
                            <path d="M4.21386139,0 L5.11683168,0 L5.11683168,14.2152589 L4.21386139,14.2152589 L4.21386139,0 Z M1.5049505,0 L2.40792079,0 L2.40792079,14.2152589 L1.5049505,14.2152589 L1.5049505,0 Z M6.62178218,0 L7.52475248,0 L7.52475248,14.2152589 L6.62178218,14.2152589 L6.62178218,0 Z M9.02970297,0 L9.93267327,0 L9.93267327,14.2152589 L9.02970297,14.2152589 L9.02970297,0 Z M11.4376238,0 L12.3405941,0 L12.3405941,14.2152589 L11.4376238,14.2152589 L11.4376238,0 Z M13.8455446,0 L14.7485149,0 L14.7485149,14.2152589 L13.8455446,14.2152589 L13.8455446,0 Z M16.2534653,0 L17.1564356,0 L17.1564356,14.2152589 L16.2534653,14.2152589 L16.2534653,0 Z M18.9623762,0 L19.8653465,0 L19.8653465,14.2152589 L18.9623762,14.2152589 L18.9623762,0 Z M21.9722772,0 L22.8752475,0 L22.8752475,14.2152589 L21.9722772,14.2152589 L21.9722772,0 Z M24.6811881,0 L25.5841584,0 L25.5841584,14.2152589 L24.6811881,14.2152589 L24.6811881,0 Z M27.6910891,0 L28.5940594,0 L28.5940594,14.2152589 L27.6910891,14.2152589 L27.6910891,0 Z" id="Rectangle-5" stroke="none" fill="url(#linearGradient-14)" fill-rule="evenodd" sketch:type="MSShapeGroup" mask="url(#mask-13)"></path>
                        </g>
                    </g>
                    <path d="M21.2871387,32.7888335 L129.683553,33.1157052 C129.683553,33.1157052 127.613258,23.9651909 124.613696,17.4040712 C121.614134,10.8429514 118.813246,9.24577263 118.813246,9.24577263 C117.166703,7.77927083 114.054161,6.47523988 111.842908,6.33788354 C111.842908,6.33788354 91.2076801,4.93350979 75.4853466,4.93350979 C59.763013,4.93350979 38.8060814,6.76686153 38.8060814,6.76686153 C36.6099593,6.94589569 33.7206369,8.49827811 32.3790621,10.2524379 C32.3790621,10.2524379 28.0991577,15.4381033 26.4103719,19.478996 C24.7215861,23.5198887 21.2871387,32.7888335 21.2871387,32.7888335 Z" id="front" stroke="#979797" stroke-width="0.75" fill="#4C4B4B" sketch:type="MSShapeGroup" mask="url(#mask-3)"></path>
                    <path d="M45,2 C45,2 66.1681866,0.180403829 76.5,0.180403829 C87.1681866,0.180403829 108,2 108,2 L108,2.0859375 C108,3.14304503 107.147621,3.96676323 106.095148,3.9266565 C106.095148,3.9266565 87.0525642,3.16528857 76.5,3.16528857 C66.0525642,3.16528857 46.9134495,3.9266565 46.9134495,3.9266565 C45.8566805,3.967163 45,3.14021301 45,2.0859375 L45,2 Z" id="Rectangle-191" fill="#D8D8D8" sketch:type="MSShapeGroup" mask="url(#mask-3)"></path>
                    <path d="M23.1412811,35.7469102 C20.9365038,35.7469102 20.4363096,37.0017691 22.1387528,38.3942637 C22.1387528,38.3942637 22.5615058,39.7726575 32.0568269,44.2575799 C41.552148,48.7425023 65.6626055,50.658365 65.6626055,50.658365 C66.2151303,50.705896 66.3385587,50.4448464 65.9228557,50.061044 L50.4189705,35.7469102 L23.1412811,35.7469102 Z" id="Path-551" fill="url(#linearGradient-15)" sketch:type="MSShapeGroup" mask="url(#mask-3)"></path>
                    <path d="M128.028683,37 C130.233461,37 130.733655,38.2548589 129.031212,39.6473534 C129.031212,39.6473534 128.608459,41.0257473 119.113138,45.5106697 C109.617817,49.9955921 85.5073591,51.9114548 85.5073591,51.9114548 C84.9548343,51.9589858 84.8314059,51.6979362 85.2471088,51.3141338 L100.750994,37 L128.028683,37 L128.028683,37 Z" id="Path-551-Copy" fill="url(#linearGradient-16)" sketch:type="MSShapeGroup" mask="url(#mask-3)"></path>
                    <path d="M129.668755,32.7849983 L122.015147,14.7468474 C120.503691,11.1846229 116.160617,7.97986944 112.313516,7.58871793 L99.324511,6.26806923 L25.1102547,31.8994086 L129.668755,32.7849983 Z" id="Path-558" fill="#413F3F" sketch:type="MSShapeGroup" mask="url(#mask-3)"></path>
                </g>
                <g id="BWMlogo" transform="translate(95.000000, 37.000000)">
                    <path d="M7,14 C10.8659932,14 14,10.8659932 14,7 C14,3.13400675 10.8659932,0 7,0 C3.13400675,0 0,3.13400675 0,7 C0,10.8659932 3.13400675,14 7,14 Z" id="Oval-76" fill="#4A4A4A" sketch:type="MSShapeGroup"></path>
                    <g id="Rectangle-192" transform="translate(3.111111, 3.111111)">
                        <mask id="mask-18" sketch:name="Mask" fill="white">
                            <use xlink:href="#path-17"></use>
                        </mask>
                        <use id="Mask" fill="#FFFFFF" sketch:type="MSShapeGroup" xlink:href="#path-17"></use>
                        <rect fill="#4898F9" sketch:type="MSShapeGroup" mask="url(#mask-18)" x="0" y="-0.777777778" width="3.88888889" height="4.66666667"></rect>
                        <rect id="Rectangle-192-Copy" fill="#4898F9" sketch:type="MSShapeGroup" mask="url(#mask-18)" x="3.88888889" y="3.88888889" width="3.88888889" height="4.66666667"></rect>
                    </g>
                    <path d="M7.73050459,2.33333333 L7.73050459,1.38935514 C7.73050459,1.30232125 7.73630218,1.19286105 7.74789755,1.06097124 L7.73719419,1.06097124 C7.71043565,1.16072546 7.68902913,1.22733886 7.67297401,1.26081343 L7.16188838,2.33333333 L6.81001529,2.33333333 L6.29224006,1.27085575 C6.27975274,1.24541507 6.25790026,1.17545427 6.22668196,1.06097124 L6.21464067,1.06097124 C6.22623604,1.19152206 6.23203364,1.32240568 6.23203364,1.453626 L6.23203364,2.33333333 L5.83333333,2.33333333 L5.83333333,0.777777778 L6.47553517,0.777777778 L6.92240061,1.71773904 C6.95986257,1.79540005 6.98528281,1.86837352 6.99866208,1.93666165 L7.00802752,1.93666165 C7.03567802,1.85163623 7.06422004,1.77799328 7.09365443,1.71573058 L7.5418578,0.777777778 L8.16666667,0.777777778 L8.16666667,2.33333333 L7.73050459,2.33333333 Z" id="BMW" fill="#FFFFFF" sketch:type="MSShapeGroup"></path>
                    <path d="M12.4796698,3.78962934 L10.8224845,4.65885595 L10.5472357,4.35316115 L11.2278104,3.34218931 C11.2648638,3.28771058 11.3081963,3.23612517 11.3578092,3.18743152 C11.2894975,3.23285148 11.2329152,3.26972149 11.1850606,3.29471082 L10.1039876,3.86088424 L9.81823878,3.54352806 L10.8559267,1.98627992 L11.1274256,2.28780994 L10.3865559,3.30179084 C10.3540415,3.34614962 10.3088391,3.39740767 10.2509476,3.45556652 L10.2561975,3.46139721 C10.306251,3.42135646 10.3659029,3.38323078 10.4351551,3.34701904 L11.5601737,2.76842547 L11.8234226,3.06079297 L11.0995939,4.10769438 C11.0710589,4.14947549 11.0297561,4.19923336 10.9756843,4.25696948 C11.0318873,4.2179274 11.0869296,4.17993022 11.1445629,4.1471416 L12.2284209,3.51058913 L12.4796698,3.78962934 Z" id="Path" fill="#FFFFFF" sketch:type="MSShapeGroup"></path>
                    <path d="M2.39555906,4.16353691 L2.39555906,2.22695078 L3.17178439,2.22695078 C3.40982801,2.22695078 3.59329762,2.26695732 3.72219871,2.34697161 C3.8510998,2.4269859 3.91554938,2.53783737 3.91554938,2.67952933 C3.91554938,2.78454809 3.87556242,2.87664648 3.79558728,2.95582729 C3.71561215,3.0350081 3.61493909,3.08960036 3.49356507,3.11960572 L3.49356507,3.12460659 C3.64598826,3.14127623 3.76900698,3.19128441 3.86262493,3.27463263 C3.95624287,3.35798084 4.00305114,3.46258128 4.00305114,3.58843709 C4.00305114,3.76430183 3.93248591,3.90411637 3.79135333,4.00788489 C3.65022074,4.11165342 3.45734244,4.16353691 3.21271263,4.16353691 L2.39555906,4.16353691 Z M2.86129425,3.32464131 L2.86129425,3.85598353 L3.13791273,3.85598353 C3.25552322,3.85598353 3.34749324,3.83181291 3.41382556,3.78347094 C3.48015787,3.73512898 3.51332353,3.66803467 3.51332353,3.58218601 C3.51332353,3.50050475 3.48039309,3.43716106 3.41453121,3.39215302 C3.34866934,3.34714499 3.2550528,3.32464131 3.13367878,3.32464131 L2.86129425,3.32464131 Z M2.86129425,2.53450416 L2.86129425,3.01333727 L3.0828713,3.01333727 C3.18919118,3.01333727 3.27292859,2.99083359 3.33408604,2.94582555 C3.3952435,2.90081752 3.42582177,2.83789056 3.42582177,2.75704279 C3.42582177,2.60868296 3.30350869,2.53450416 3.05887888,2.53450416 L2.86129425,2.53450416 Z" id="Path" fill="#FFFFFF" sketch:type="MSShapeGroup" transform="translate(3.199305, 3.195244) rotate(-46.000000) translate(-3.199305, -3.195244) "></path>
                </g>
            </g>
        </g>
    </g>
</svg>