<?xml version="1.0" encoding="UTF-8" standalone="no"?>
<svg width="14px" height="20px" viewBox="0 0 14 20" version="1.1" xmlns="http://www.w3.org/2000/svg" xmlns:xlink="http://www.w3.org/1999/xlink" xmlns:sketch="http://www.bohemiancoding.com/sketch/ns">
    <!-- Generator: Sketch 3.4 (15575) - http://www.bohemiancoding.com/sketch -->
    <title>bulidingB</title>
    <desc>Created with Sketch.</desc>
    <defs></defs>
    <g id="Page-1" stroke="none" stroke-width="1" fill="none" fill-rule="evenodd" sketch:type="MSPage">
        <g id="5" sketch:type="MSArtboardGroup" transform="translate(-195.000000, -363.000000)">
            <g id="bulidingB" sketch:type="MSLayerGroup" transform="translate(195.000000, 363.000000)">
                <path d="M0.185358831,1.87709455 L4.88671398,0 L6.40709972,0.526638371 L6.36029959,1.45967769 L6.79824924,1.65199899 L6.79824924,2.68991378 L7.05817556,2.85449179 L9.94078064,1.45967769 L12.6648579,2.20089619 L12.664858,4.10193507 L13.607431,4.54713837 L13.6074314,17.3150828 L7.98620849,19.6798507 L7.05817539,9.83992574 L0.185358837,6.94051857 L0.185358831,1.87709455 Z" id="Path-411" fill="#5E9C17" sketch:type="MSShapeGroup"></path>
                <path d="M5.5745,6.87287568 L5.41,6.78781501 L5.41,8.86036674 L2.5415,7.37710512 L2.5415,5.30455339 L2.25475,5.15627894 L2.25475,3.1039571 L0.16425,2.02298851 L0.16425,4.07531034 L0,3.99037894 L0,15.764172 L7.9515,19.8757826 L7.9515,8.10198946 L7.6645,7.95358574 L7.6645,5.9012639 L5.5745,4.82055385 L5.5745,6.87287568 Z M7.23375,6.11397732 L7.23375,7.73110375 L6.86525,7.54055751 L6.86525,5.92343107 L7.23375,6.11397732 Z M6.435,5.70095475 L6.435,7.31808119 L6.00425,7.09534633 L6.00425,5.47821989 L6.435,5.70095475 Z M1.82475,3.31705833 L1.82475,4.93418477 L1.45525,4.74312144 L1.45525,3.125995 L1.82475,3.31705833 Z M1.0245,2.90326014 L1.0245,4.52038658 L0.5945,4.29803953 L0.5945,2.6809131 L1.0245,2.90326014 Z M6.42175,10.5447241 L6.42175,11.3503792 L5.96725,11.1153636 L5.96725,10.3097084 L6.42175,10.5447241 Z M4.943,9.78008291 L4.943,10.5857381 L4.48775,10.3503346 L4.48775,9.54467944 L4.943,9.78008291 Z M3.46375,9.01518322 L3.46375,9.82083839 L3.0085,9.58543492 L3.0085,8.77977975 L3.46375,9.01518322 Z M1.98425,8.25015426 L1.98425,9.05580944 L1.529,8.82040597 L1.529,8.01475079 L1.98425,8.25015426 Z M6.42175,12.6390229 L6.42175,13.4449309 L5.96725,13.2099153 L5.96725,12.4040072 L6.42175,12.6390229 Z M4.943,11.8743818 L4.943,12.6802898 L4.48775,12.4448863 L4.48775,11.6389783 L4.943,11.8743818 Z M3.46375,11.1094821 L3.46375,11.9153901 L3.0085,11.6799866 L3.0085,10.8740786 L3.46375,11.1094821 Z M1.98425,10.3444531 L1.98425,11.1503612 L1.529,10.9149577 L1.529,10.1090496 L1.98425,10.3444531 Z M6.42175,14.7338275 L6.42175,15.5397355 L5.96725,15.3047199 L5.96725,14.4988118 L6.42175,14.7338275 Z M4.943,13.9691864 L4.943,14.7750944 L4.48775,14.5396909 L4.48775,13.7337829 L4.943,13.9691864 Z M3.46375,13.2042867 L3.46375,14.0101947 L3.0085,13.7747912 L3.0085,12.9688832 L3.46375,13.2042867 Z M1.98425,12.4392577 L1.98425,13.2451658 L1.529,13.0097623 L1.529,12.2038542 L1.98425,12.4392577 Z M6.42175,16.8281264 L6.42175,17.6340344 L5.96725,17.3990187 L5.96725,16.5931107 L6.42175,16.8281264 Z M4.943,16.0634852 L4.943,16.8693933 L4.48775,16.6339898 L4.48775,15.8280817 L4.943,16.0634852 Z M3.46375,15.2985855 L3.46375,16.1044936 L3.0085,15.8690901 L3.0085,15.0631821 L3.46375,15.2985855 Z M1.98425,14.5335566 L1.98425,15.3394646 L1.529,15.1040611 L1.529,14.2981531 L1.98425,14.5335566 Z" id="buliding" fill="#487C10" sketch:type="MSShapeGroup"></path>
            </g>
        </g>
    </g>
</svg>