<?xml version="1.0" encoding="UTF-8" standalone="no"?>
<svg width="15px" height="22px" viewBox="0 0 15 22" version="1.1" xmlns="http://www.w3.org/2000/svg" xmlns:xlink="http://www.w3.org/1999/xlink" xmlns:sketch="http://www.bohemiancoding.com/sketch/ns">
    <!-- Generator: Sketch 3.4 (15575) - http://www.bohemiancoding.com/sketch -->
    <title>bulidingA</title>
    <desc>Created with Sketch.</desc>
    <defs></defs>
    <g id="Page-1" stroke="none" stroke-width="1" fill="none" fill-rule="evenodd" sketch:type="MSPage">
        <g id="5" sketch:type="MSArtboardGroup" transform="translate(-92.000000, -347.000000)">
            <g id="bulidingA" sketch:type="MSLayerGroup" transform="translate(92.000000, 347.000000)">
                <path d="M11.3047699,19.6574065 L8.2968198,18.4810831 L6.98378824,1.01251312 L10.0445006,0.0833738403 L14.4321879,1.0756525 L12.6613239,1.74439343 L12.2326114,6.26834891 L11.3047699,19.6574065 Z" id="Path-437" fill="#BD8700" sketch:type="MSShapeGroup"></path>
                <path d="M12.3123739,1.59085053 L7.45480505,0.10063801 L3.61281096,1.41245163 L3.61281096,3.00914798 L8.38898932,5.65960863 L8.20392596,20.4036309 L9.08129022,20.6901976 L9.1662809,5.04409728 L7.83630457,3.52673711 L12.3123739,1.59085053 Z" id="Path-436" fill="#A87801" sketch:type="MSShapeGroup"></path>
                <g id="Page-1" transform="translate(5.500000, 1.011494)" sketch:type="MSShapeGroup">
                    <path d="M2.25,2.55272479 L3.53622073,3.95677304 L3.6167908,4.04511878 L3.6167908,19.5803746 L5.3832092,18.8926521 L5.3832092,3.35739621 L5.4650684,3.2058116 L6.75,0.800732394 L6.75,0.659367721 L2.25,2.41136012 L2.25,2.55272479 Z" id="Fill-1" fill="#F4AE00"></path>
                    <path d="M0,20.9885057 L3.25,19.7231779 L3.25,4.19802348 L1.9507173,2.78075391 L0,3.54022989 L0,20.9885057 Z M2.29371489,5.56919263 L2.29371489,6.95130219 L1.93767556,7.08991957 L1.93767556,5.70781001 L2.29371489,5.56919263 Z M1.18027689,6.00268928 L1.18027689,7.38479884 L0.824563604,7.52328928 L0.824563604,6.14117971 L1.18027689,6.00268928 Z M2.29371489,8.39985933 L2.29371489,9.7815402 L1.93767556,9.92015758 L1.93767556,8.53847671 L2.29371489,8.39985933 Z M1.18027689,8.83335598 L1.18027689,10.2150369 L0.824563604,10.3535273 L0.824563604,8.97184642 L1.18027689,8.83335598 Z M2.29371489,11.230526 L2.29371489,12.6126356 L1.93767556,12.751253 L1.93767556,11.3691434 L2.29371489,11.230526 Z M1.18027689,11.6640227 L1.18027689,13.0461322 L0.824563604,13.1846227 L0.824563604,11.8025131 L1.18027689,11.6640227 Z M2.29371489,14.0611927 L2.29371489,15.4428736 L1.93767556,15.581491 L1.93767556,14.1998101 L2.29371489,14.0611927 Z M1.18027689,14.4946894 L1.18027689,15.8763703 L0.824563604,16.0148607 L0.824563604,14.6331798 L1.18027689,14.4946894 Z M2.29371489,16.8918594 L2.29371489,18.273969 L1.93767556,18.4125864 L1.93767556,17.0304768 L2.29371489,16.8918594 Z M1.18027689,17.3253561 L1.18027689,18.7074657 L0.824563604,18.8459561 L0.824563604,17.4638465 L1.18027689,17.3253561 Z" id="Fill-2" fill="#FDD602"></path>
                    <path d="M5.75,3.22469436 L5.75,18.7498488 L9,17.4845209 L9,0.0362450842 L7.04986956,0.795492577 L5.75,3.22469436 Z M8.09765703,3.30953429 L8.09765703,4.69164385 L7.74154626,4.83028905 L7.74154626,3.44817948 L8.09765703,3.30953429 Z M6.98399558,3.74311793 L6.98399558,5.1252275 L6.62821092,5.26374573 L6.62821092,3.88163616 L6.98399558,3.74311793 Z M8.09765703,6.14020099 L8.09765703,7.52188186 L7.74154626,7.66052706 L7.74154626,6.27884619 L8.09765703,6.14020099 Z M6.98399558,6.57378464 L6.98399558,7.95546551 L6.62821092,8.09398374 L6.62821092,6.71230287 L6.98399558,6.57378464 Z M8.09765703,8.9708677 L8.09765703,10.3529773 L7.74154626,10.4916225 L7.74154626,9.10951289 L8.09765703,8.9708677 Z M6.98399558,9.40445134 L6.98399558,10.7865609 L6.62821092,10.9250791 L6.62821092,9.54296957 L6.98399558,9.40445134 Z M8.09765703,11.8015344 L8.09765703,13.1832153 L7.74154626,13.3218605 L7.74154626,11.9401796 L8.09765703,11.8015344 Z M6.98399558,12.235118 L6.98399558,13.6167989 L6.62821092,13.7553171 L6.62821092,12.3736363 L6.98399558,12.235118 Z M8.09765703,14.6322011 L8.09765703,16.0143107 L7.74154626,16.1529559 L7.74154626,14.7708463 L8.09765703,14.6322011 Z M6.98399558,15.0657847 L6.98399558,16.4478943 L6.62821092,16.5864125 L6.62821092,15.204303 L6.98399558,15.0657847 Z" id="Fill-3" fill="#FDD602"></path>
                </g>
                <path d="M7.29081797,3.84390114 L2.95685818,2.01007451 L0.234798594,2.88535491 L0.234798597,19.4468037 L5.46876267,21.9487354 L5.51623425,4.64742545 L7.29081797,3.84390114 Z" id="Path-435" fill="#C18A02" sketch:type="MSShapeGroup"></path>
            </g>
        </g>
    </g>
</svg>