<?xml version="1.0" encoding="UTF-8" standalone="no"?>
<svg width="90px" height="92px" viewBox="0 0 90 92" version="1.1" xmlns="http://www.w3.org/2000/svg" xmlns:xlink="http://www.w3.org/1999/xlink" xmlns:sketch="http://www.bohemiancoding.com/sketch/ns">
    <!-- Generator: Sketch 3.4 (15575) - http://www.bohemiancoding.com/sketch -->
    <title>bussniess</title>
    <desc>Created with Sketch.</desc>
    <defs></defs>
    <g id="Page-1" stroke="none" stroke-width="1" fill="none" fill-rule="evenodd" sketch:type="MSPage">
        <g id="2" sketch:type="MSArtboardGroup" transform="translate(-99.000000, -216.000000)">
            <g id="bussniess" sketch:type="MSLayerGroup" transform="translate(99.000000, 216.000000)">
                <path d="M71.8263926,81.1330469 C64.335413,86.7037174 55.0526505,90 45,90 C20.1471863,90 0,69.8528137 0,45 C0,20.1471863 20.1471863,0 45,0 C69.8528137,0 90,20.1471863 90,45 C90,56.2433349 85.876618,66.5236024 79.0595704,74.4110861 L85.0652485,91.1968635 L71.8263926,81.1330469 Z" id="Oval-1-Copy-3" fill="#FFFFFF" sketch:type="MSShapeGroup"></path>
                <path d="M19.3984375,19.3554688 L29.2070312,19.3554688 C29.0351554,18.910154 28.8359386,18.4335963 28.609375,17.9257812 L32.5703125,17.9257812 C32.7500009,18.4257838 32.9140618,18.9023415 33.0625,19.3554688 L42.6484375,19.3554688 L42.6484375,21.4882812 L19.3984375,21.4882812 L19.3984375,19.3554688 Z M22.1171875,22.2617188 L39.859375,22.2617188 L39.859375,26.2460938 L22.1171875,26.2460938 L22.1171875,22.2617188 Z M25.1171875,23.7851562 L25.1171875,24.7226562 L36.859375,24.7226562 L36.859375,23.7851562 L25.1171875,23.7851562 Z M20.078125,30.6289062 L20.078125,27.0195312 L41.9453125,27.0195312 L41.9453125,30.6289062 L38.96875,30.6289062 L38.96875,28.8476562 L23.0546875,28.8476562 L23.0546875,30.6289062 L20.078125,30.6289062 Z M23.78125,29.6210938 L38.2421875,29.6210938 L38.2421875,31.2382812 L33.53125,31.2382812 C33.0703102,31.4179696 32.5937525,31.5976554 32.1015625,31.7773438 C32.7187531,32.3710967 33.2148419,33.0195277 33.5898438,33.7226562 C35.5664161,32.9570274 37.5234278,32.097661 39.4609375,31.1445312 L41.0546875,33.3945312 C40.1328079,33.7773457 39.2187545,34.1445295 38.3125,34.4960938 C39.4296931,35.9882887 40.8828036,37.2695259 42.671875,38.3398438 C41.6406198,39.2148481 40.7968783,39.9648406 40.140625,40.5898438 C38.445304,39.4023378 36.9296942,37.7070423 35.59375,35.5039062 C35.187498,35.6523445 34.7851582,35.7929681 34.3867188,35.9257812 C34.4882818,36.4257838 34.5390625,36.9257787 34.5390625,37.4257812 C34.5390625,38.4179737 34.3046898,39.2109345 33.8359375,39.8046875 C33.3671852,40.3984405 32.7558631,40.7714836 32.0019531,40.9238281 C31.2480431,41.0761726 29.6015752,41.1367189 27.0625,41.1054688 C26.8906241,40.4804656 26.6875012,39.8046911 26.453125,39.078125 C24.7031163,39.8125037 22.7656356,40.503903 20.640625,41.1523438 C20.3124984,40.4492152 19.8828152,39.6601606 19.3515625,38.7851562 C23.750022,38.0195274 27.7070137,36.7421964 31.2226562,34.953125 C31.2070312,34.8906247 31.1132821,34.6484396 30.9414062,34.2265625 C28.3476433,35.4843813 25.0078329,36.6914005 20.921875,37.8476562 C20.6093734,37.1757779 20.2421896,36.5039096 19.8203125,35.8320312 C23.9609582,35.1445278 27.3945176,34.2421931 30.1210938,33.125 C29.9570304,32.9531241 29.7734385,32.7851571 29.5703125,32.6210938 C26.8515489,33.464848 23.8750162,34.1835908 20.640625,34.7773438 C20.3437485,34.1210905 20.0078144,33.464847 19.6328125,32.8085938 C23.3828312,32.5039047 26.7812348,31.9804725 29.828125,31.2382812 L23.78125,31.2382812 L23.78125,29.6210938 Z M31.5859375,36.4648438 C30.4374943,37.1835973 29.1523509,37.8671843 27.7304688,38.515625 C28.5429728,38.5703128 29.2031225,38.5976562 29.7109375,38.5976562 C31.109382,38.5976562 31.7343757,37.8867259 31.5859375,36.4648438 L31.5859375,36.4648438 Z M63.7421875,24.2070312 C64.6640671,24.566408 65.6484323,24.8945298 66.6953125,25.1914062 C66.3124981,27.7695441 65.7773472,29.3281223 65.0898438,29.8671875 C64.4023403,30.4062527 63.5390677,30.6757812 62.5,30.6757812 L58.375,30.6757812 C56.1093637,30.6757812 54.9765625,29.6211043 54.9765625,27.5117188 L54.9765625,27.078125 C53.9374948,27.5156272 52.867193,27.9335918 51.765625,28.3320312 C51.2499974,27.285151 50.74219,26.3632852 50.2421875,25.5664062 L50.2421875,31.0742188 L47.125,31.0742188 L47.125,25.6953125 C46.3593712,26.398441 45.5625041,27.0585907 44.734375,27.6757812 C44.1874973,26.425775 43.7343768,25.4960968 43.375,24.8867188 C45.8593874,23.13671 47.9921786,20.785171 49.7734375,17.8320312 L52.5390625,19.1914062 C51.8203089,20.3164119 51.0546916,21.3789012 50.2421875,22.3789062 L50.2421875,25.484375 C51.8984458,24.9453098 53.476555,24.3632844 54.9765625,23.7382812 L54.9765625,18.3476562 L58.09375,18.3476562 L58.09375,22.3085938 C60.1093851,21.2929637 61.9687415,20.1757873 63.671875,18.9570312 L65.6171875,21.3007812 C63.3828013,22.8867267 60.8750139,24.3476496 58.09375,25.6835938 L58.09375,26.6679688 C58.09375,27.5585982 58.6249947,28.0039062 59.6875,28.0039062 L61.6328125,28.0039062 C62.3828162,28.0039062 62.8925768,27.7792991 63.1621094,27.3300781 C63.431642,26.8808571 63.6249994,25.8398519 63.7421875,24.2070312 L63.7421875,24.2070312 Z M43.6796875,32.9257812 L53.359375,32.9257812 L53.359375,30.7226562 L56.78125,30.7226562 L56.78125,32.9257812 L66.296875,32.9257812 L66.296875,35.8789062 L56.78125,35.8789062 L56.78125,41.2226562 L53.359375,41.2226562 L53.359375,35.8789062 L43.6796875,35.8789062 L43.6796875,32.9257812 Z M19.890625,51.0351562 L29.1015625,51.0351562 L28.609375,49.1132812 L32.546875,48.9726562 L32.78125,51.0351562 L42.15625,51.0351562 L42.15625,53.6132812 L19.890625,53.6132812 L19.890625,51.0351562 Z M20.78125,55.8164062 L25.421875,55.8164062 L24.0859375,54.1757812 L27.90625,54.1757812 L29.1367188,55.8164062 L32.8632812,55.8164062 C33.4492217,55.1132777 33.8906235,54.5664082 34.1875,54.1757812 L37.984375,54.1757812 C37.4843725,54.7382841 36.9882837,55.2851536 36.4960938,55.8164062 L41.3359375,55.8164062 L41.3359375,67.8632812 C41.3359375,68.9492242 41.123049,69.8144499 40.6972656,70.4589844 C40.2714822,71.1035188 39.6816444,71.5175772 38.9277344,71.7011719 C38.1738244,71.8847665 36.5625123,71.9882811 34.09375,72.0117188 C33.8749989,70.7617125 33.6718759,69.7851598 33.484375,69.0820312 C34.3750045,69.1757817 35.2421833,69.2226562 36.0859375,69.2226562 C37.5078196,69.2226562 38.21875,68.5664128 38.21875,67.2539062 L38.21875,63.0234375 L37.46875,63.9726562 L35.7578125,62.7773438 L35.7578125,68.5898438 L29.171875,68.5898438 L29.171875,69.7148438 L26.3125,69.7148438 L26.3125,63.0703125 L24.8125,64.1367188 C24.7890624,64.0976561 24.4765655,63.6875039 23.875,62.90625 L23.875,71.9882812 L20.78125,71.9882812 L20.78125,55.8164062 Z M28.3515625,58.4414062 L30.0390625,60.2929688 C29.4140594,60.7773462 28.7851594,61.2539039 28.1523438,61.7226562 L34.2109375,61.7226562 L32.03125,60.2929688 L33.5546875,58.5117188 C35.1484455,59.4101607 36.7031174,60.3359327 38.21875,61.2890625 L38.21875,58.3007812 L23.875,58.3007812 L23.875,61.6171875 C25.5156332,60.507807 27.0078058,59.4492238 28.3515625,58.4414062 L28.3515625,58.4414062 Z M32.8984375,66.0117188 L32.8984375,64.1601562 L29.171875,64.1601562 L29.171875,66.0117188 L32.8984375,66.0117188 Z M64.65625,51.0117188 L64.65625,53.5429688 C63.1562425,54.9648509 61.351573,56.2226508 59.2421875,57.3164062 C61.4609486,57.8085962 63.9218615,58.082031 66.625,58.1367188 C66.1406226,59.2929745 65.7187518,60.3320266 65.359375,61.2539062 C61.359355,60.8789044 57.9257956,60.1601616 55.0585938,59.0976562 C52.0351411,60.1679741 48.5625196,60.9882784 44.640625,61.5585938 C44.3124984,60.7304646 43.8906276,59.7539119 43.375,58.6289062 C46.2890771,58.3554674 48.9296757,57.921878 51.296875,57.328125 C50.195307,56.6640592 49.2226605,55.9296915 48.3789062,55.125 C47.4648392,55.8671912 46.4921927,56.5585905 45.4609375,57.1992188 C44.9296848,56.4804652 44.2968787,55.6914105 43.5625,54.8320312 C46.5937652,53.0976476 48.8515551,51.160167 50.3359375,49.0195312 L53.875,49.0195312 C53.4296853,49.7070347 52.9531275,50.3710905 52.4453125,51.0117188 L64.65625,51.0117188 Z M55.2226562,56.0859375 C57.0273528,55.3906215 58.6093682,54.566411 59.96875,53.6132812 L50.8398438,53.6132812 C52.1211002,54.5976612 53.582023,55.4218717 55.2226562,56.0859375 L55.2226562,56.0859375 Z M51.859375,60.3632812 L55.2109375,60.3632812 C55.1328121,61.113285 55.0273444,61.8476527 54.8945312,62.5664062 L64.796875,62.5664062 L64.3984375,67.9101562 C64.3203121,68.8007857 64.058596,69.5351534 63.6132812,70.1132812 C63.1679665,70.6914091 62.5585976,71.1191392 61.7851562,71.3964844 C61.0117149,71.6738295 59.496105,71.8125 57.2382812,71.8125 C56.4570273,71.8125 55.6328168,71.7929689 54.765625,71.7539062 C54.6249993,70.8320266 54.3750018,69.7773497 54.015625,68.5898438 C55.7421961,68.7304695 57.2499936,68.8007812 58.5390625,68.8007812 C59.2109409,68.8007812 59.7343731,68.6992198 60.109375,68.4960938 C60.4843769,68.2929677 60.7167964,68.0078143 60.8066406,67.640625 C60.8964848,67.2734357 60.9687497,66.5273494 61.0234375,65.4023438 L54.1796875,65.4023438 C52.984369,68.6992352 50.1093978,70.97265 45.5546875,72.2226562 C44.9453095,71.3945271 44.2109418,70.4960986 43.3515625,69.5273438 C46.9453305,68.6679645 49.3281191,67.2929782 50.5,65.4023438 L44.171875,65.4023438 L44.171875,62.5664062 L51.4960938,62.5664062 C51.644532,61.8789028 51.7656245,61.1445352 51.859375,60.3632812 L51.859375,60.3632812 Z" id="豪华商务" fill="#F4AE00" sketch:type="MSShapeGroup"></path>
            </g>
        </g>
    </g>
</svg>