<?xml version="1.0" encoding="UTF-8" standalone="no"?>
<svg width="375px" height="211px" viewBox="0 0 375 211" version="1.1" xmlns="http://www.w3.org/2000/svg" xmlns:xlink="http://www.w3.org/1999/xlink" xmlns:sketch="http://www.bohemiancoding.com/sketch/ns">
    <!-- Generator: Sketch 3.4 (15575) - http://www.bohemiancoding.com/sketch -->
    <title>Rectangle 239</title>
    <desc>Created with Sketch.</desc>
    <defs></defs>
    <g id="Page-1" stroke="none" stroke-width="1" fill="none" fill-rule="evenodd" sketch:type="MSPage">
        <g id="6" sketch:type="MSArtboardGroup" transform="translate(0.000000, -456.000000)" fill="#FFFFFF">
            <g id="download" sketch:type="MSLayerGroup" transform="translate(0.000000, 456.000000)">
                <path d="M373.485281,-2.84217094e-14 L375,-2.84217094e-14 L375,211 L0,211 L0,-2.84217094e-14 L0.485281374,-2.84217094e-14 L6.75015599e-14,0.485281374 L8.48528137,8.97056275 L16.9705627,0.485281374 L16.4852814,-2.82274204e-14 L17.4852814,-2.84217094e-14 L17,0.485281374 L25.4852814,8.97056275 L33.9705627,0.485281374 L33.4852814,-2.82274204e-14 L34.4852814,-2.84217094e-14 L34,0.485281374 L42.4852814,8.97056275 L50.9705627,0.485281374 L50.4852814,-2.82274204e-14 L51.4852814,-2.84217094e-14 L51,0.485281374 L59.4852814,8.97056275 L67.9705627,0.485281374 L67.4852814,-2.84217094e-14 L68.4852814,-2.84217094e-14 L68,0.485281374 L76.4852814,8.97056275 L84.9705627,0.485281374 L84.4852814,-2.0733415e-14 L85.4852814,-2.84217094e-14 L85,0.485281374 L93.4852814,8.97056275 L101.970563,0.485281374 L101.485281,-3.40005801e-14 L102.485281,-2.84217094e-14 L102,0.485281374 L110.485281,8.97056275 L118.970563,0.485281374 L118.485281,-2.0733415e-14 L119.485281,-2.84217094e-14 L119,0.485281374 L127.485281,8.97056275 L135.970563,0.485281374 L135.485281,-2.82274204e-14 L136.485281,-2.84217094e-14 L136,0.485281374 L144.485281,8.97056275 L152.970563,0.485281374 L152.485281,-2.7339242e-14 L153.485281,-2.84217094e-14 L153,0.485281374 L161.485281,8.97056275 L169.970563,0.485281374 L169.485281,-4.14945855e-14 L170.485281,-2.84217094e-14 L170,0.485281374 L178.485281,8.97056275 L186.970563,0.485281374 L186.485281,-2.7339242e-14 L187.485281,-2.84217094e-14 L187,0.485281374 L195.485281,8.97056275 L203.970563,0.485281374 L203.485281,-4.14945855e-14 L204.485281,-2.84217094e-14 L204,0.485281374 L212.485281,8.97056275 L220.970563,0.485281374 L220.485281,-2.7339242e-14 L221.485281,-2.84217094e-14 L221,0.485281374 L229.485281,8.97056275 L237.970563,0.485281374 L237.485281,-4.14945855e-14 L238.485281,-2.84217094e-14 L238,0.485281374 L246.485281,8.97056275 L254.970563,0.485281374 L254.485281,-4.14945855e-14 L255.485281,-2.84217094e-14 L255,0.485281374 L263.485281,8.97056275 L271.970563,0.485281374 L271.485281,-2.7339242e-14 L272.485281,-2.84217094e-14 L272,0.485281374 L280.485281,8.97056275 L288.970563,0.485281374 L288.485281,-2.7339242e-14 L289.485281,-2.84217094e-14 L289,0.485281374 L297.485281,8.97056275 L305.970563,0.485281374 L305.485281,-2.7339242e-14 L306.485281,-2.84217094e-14 L306,0.485281374 L314.485281,8.97056275 L322.970563,0.485281374 L322.485281,-2.7339242e-14 L323.485281,-2.84217094e-14 L323,0.485281374 L331.485281,8.97056275 L339.970563,0.485281374 L339.485281,-5.65658631e-14 L340.485281,-2.84217094e-14 L340,0.485281374 L348.485281,8.97056275 L356.970563,0.485281374 L356.485281,-5.65658631e-14 L357.485281,-2.84217094e-14 L357,0.485281374 L365.485281,8.97056275 L373.970563,0.485281374 L373.485281,-5.65658631e-14 Z" id="Rectangle-239" sketch:type="MSShapeGroup"></path>
            </g>
        </g>
    </g>
</svg>