<?xml version="1.0" encoding="UTF-8" standalone="no"?>
<svg width="118px" height="50px" viewBox="0 0 118 50" version="1.1" xmlns="http://www.w3.org/2000/svg" xmlns:xlink="http://www.w3.org/1999/xlink" xmlns:sketch="http://www.bohemiancoding.com/sketch/ns">
    <!-- Generator: Sketch 3.4 (15575) - http://www.bohemiancoding.com/sketch -->
    <title>heart</title>
    <desc>Created with Sketch.</desc>
    <defs></defs>
    <g id="Page-1" stroke="none" stroke-width="1" fill="none" fill-rule="evenodd" sketch:type="MSPage">
        <g id="4" sketch:type="MSArtboardGroup" transform="translate(-180.000000, -212.000000)" stroke-width="2" stroke="#FFFFFF">
            <g id="heart" sketch:type="MSLayerGroup" transform="translate(179.000000, 172.000000)">
                <path d="M-8.19535245,73.1539982 L5.98696403,73.1827997 C5.98696403,73.1827997 6.55120577,68.5675011 8.13250381,68.5675011 C9.71380184,68.5675012 10.1533132,72.0795247 10.1533132,72.0795247 L13.6590643,72.0795247 C13.6590643,72.0795247 13.9794618,77.0483764 14.9374029,77.0483768 C15.8953439,77.0483773 17.47073,48.0828521 17.47073,48.0828521 L20.1592312,81.000946 C20.1592312,81.000946 21.4783585,72.6728963 22.2296962,72.6728951 C22.9810339,72.6728939 27.7018731,72.7601805 28.2111384,72.7601813 C28.7204037,72.7601822 30.7509698,64.1282441 32.8527635,64.1282445 C34.9545572,64.128245 36.6552654,75.349086 38.1606016,75.3490857 C39.6659379,75.3490855 41.8561093,69.8297724 41.8561093,69.8297724 L43.5712997,70.1365969 L46.4427549,73.2667069 L58.1779359,73.1358814 C58.1779359,73.1358814 59.9011455,72.3434445 59.0391645,70.2188644 C58.1771835,68.0942844 47.2427674,60.8176442 45.5105087,53.4392108 C43.7782499,46.0607773 47.5321826,41.2469391 52.9542858,41.0050298 C58.3763891,40.7631205 61.896966,47.9443281 61.896966,47.9443281 C61.896966,47.9443281 65.1183783,41.0050298 70.8506821,41.0050298 C76.5829858,41.0050298 79.7707279,46.5870853 78.7812422,52.4592367 C77.7917564,58.331388 63.6961765,68.6815404 63.6961715,70.8995 C63.6961665,73.1174597 65.0122077,73.1358814 65.0122077,73.1358814 L78.5771465,72.9927657 C78.5771465,72.9927657 78.7701385,68.4373654 80.2879409,68.4373645 C81.8057433,68.4373636 82.5497323,72.326003 82.5497323,72.326003 L86.2250732,72.3434434 C86.2250732,72.3434434 86.4631325,77.3023712 87.455304,77.302371 C88.4474754,77.3023708 90.0424877,47.2301552 90.0424877,47.2301552 L92.2194742,81.0009476 L94.8121499,72.8991696 L100.390856,72.8022999 C100.390856,72.8022999 103.104396,64.0654545 105.402976,64.0654539 C107.701555,64.0654534 109.087439,74.7615438 110.563059,74.7615443 C112.03868,74.7615448 112.341931,70.2188662 114.629523,70.2188651 C116.917115,70.2188639 118.956024,73.0390116 118.956024,73.0390116 L126.273681,73.1358813" sketch:type="MSShapeGroup"></path>
            </g>
        </g>
    </g>
</svg>