<?xml version="1.0" encoding="UTF-8" standalone="no"?>
<svg width="375px" height="178px" viewBox="0 0 375 178" version="1.1" xmlns="http://www.w3.org/2000/svg" xmlns:xlink="http://www.w3.org/1999/xlink" xmlns:sketch="http://www.bohemiancoding.com/sketch/ns">
    <!-- Generator: Sketch 3.4 (15575) - http://www.bohemiancoding.com/sketch -->
    <title>CenturyBridge</title>
    <desc>Created with Sketch.</desc>
    <defs></defs>
    <g id="Page-1" stroke="none" stroke-width="1" fill="none" fill-rule="evenodd" sketch:type="MSPage">
        <g id="4" sketch:type="MSArtboardGroup" transform="translate(0.000000, -130.000000)" fill="#639823">
            <path d="M49.889241,181.714657 L64.9009094,237.522165 L144.929138,231.647694 L162.386124,130.55534 L177.656326,134.292286 L195.535355,231.647693 L375.000015,229.578229 L375.000015,252.571126 L195.535354,242.902508 L184.58055,307.084652 L158.212966,307.084652 L144.929138,241.016697 L64.9009121,247.308301 L53.9036248,307.084652 L34.2194748,307.084652 L23.7415848,249.571126 L0.161086326,255.770848 L0.161086322,246.902508 L23.7415848,241.912533 L38.427983,179.109387 L49.889241,181.714657 Z M34.0580257,239.128047 L58.2316593,239.128047 L51.4236747,201.368543 C51.4236747,201.368543 49.0443781,193.433209 45.3265945,193.544934 C41.6088109,193.656658 39.9463922,201.368543 39.9463922,201.368543 L34.0580257,239.128047 Z M32.8552423,247.86997 L58.3773505,247.86997 L50.7209838,299.55534 L39.7423337,299.55534 L32.8552423,247.86997 Z M166.922739,161.135892 C162.336597,182.26159 158.456058,230.5248 158.456058,230.5248 L187.5,230.524802 C187.5,230.524802 180.973683,181.584529 175.979673,161.135892 C174.616091,155.552526 173.972005,154.04883 171.561392,154.04883 C169.150779,154.04883 168.304355,154.771586 166.922739,161.135892 Z M158,242 L188.247439,242.401293 L181.531478,299.55534 L165.858594,299.480765 L158,242 Z" id="CenturyBridge" sketch:type="MSShapeGroup"></path>
        </g>
    </g>
</svg>