<?xml version="1.0" encoding="UTF-8" standalone="no"?>
<svg width="375px" height="297px" viewBox="0 0 375 297" version="1.1" xmlns="http://www.w3.org/2000/svg" xmlns:xlink="http://www.w3.org/1999/xlink" xmlns:sketch="http://www.bohemiancoding.com/sketch/ns">
    <!-- Generator: Sketch 3.4 (15575) - http://www.bohemiancoding.com/sketch -->
    <title>citys</title>
    <desc>Created with Sketch.</desc>
    <defs></defs>
    <g id="Page-1" stroke="none" stroke-width="1" fill="none" fill-rule="evenodd" sketch:type="MSPage">
        <g id="4" sketch:type="MSArtboardGroup" transform="translate(0.000000, -37.000000)" fill="#76B42A">
            <path d="M-37.6476807,333.5 L-37.6476807,224.360046 L-0.721048812,224.360046 L-0.721050013,151.905977 L10.3227525,151.905977 L10.3227525,132.544326 L26.3013361,106.770395 L50.9455145,106.770395 L50.9455145,149.700943 L63.1239203,149.700943 L63.1239203,168.989787 L72.2998387,168.989787 L72.2998387,139.019012 L92.0191451,139.019012 L92.0191451,168.989787 L97.736753,168.989787 L102.726035,177.529091 L124.080359,177.529091 L124.080359,211.545895 L142.263739,211.545895 L142.263742,158.578285 L200.50506,158.578285 L200.50506,181.887146 L254.500299,181.887146 L254.500284,175.396865 L277.613491,175.396865 L277.613491,188.283831 L284.18329,188.283831 L284.18329,196.895943 L292.999994,197.140365 L293,47.0190601 C293,47.0190601 305.534897,31.3131649 323.03949,40 C340.544082,48.6868351 341.795374,63.3140699 341.795374,63.3140699 L341.795374,208.883213 L347.067068,208.883213 L347.067068,197.140369 L366.241368,197.140369 L366.241368,134.042084 L377.904496,134.042084 L389.731125,147.012258 L389.731134,333.5 L-37.6476807,333.5 Z" id="citys" sketch:type="MSShapeGroup"></path>
        </g>
    </g>
</svg>