<?xml version="1.0" encoding="UTF-8" standalone="no"?>
<svg width="375px" height="106px" viewBox="0 0 375 106" version="1.1" xmlns="http://www.w3.org/2000/svg" xmlns:xlink="http://www.w3.org/1999/xlink" xmlns:sketch="http://www.bohemiancoding.com/sketch/ns">
    <!-- Generator: Sketch 3.4 (15575) - http://www.bohemiancoding.com/sketch -->
    <title>clouds copy</title>
    <desc>Created with Sketch.</desc>
    <defs></defs>
    <g id="Page-1" stroke="none" stroke-width="1" fill="none" fill-rule="evenodd" sketch:type="MSPage">
        <g id="1" sketch:type="MSArtboardGroup" transform="translate(0.000000, -561.000000)" fill="#FFFFFF">
            <path d="M-5.68434189e-14,666.305084 C-5.68434189e-14,666.305084 5.44609966,594.206091 55.7755263,594.959846 C67.0843998,595.129213 77.1662546,600.010575 83.5883511,607.852484 C91.6434323,580.890804 119.607076,561 152.866257,561 C180.208412,561 202.864812,578.948161 214.930098,598.711296 C220.058019,595.949386 223.696792,589.504648 236.795494,590.671337 C249.894196,591.838026 255.559509,602.989113 257.074188,607.852486 C269.259774,594.206091 278.745495,585.816507 307.210071,585.816507 C335.674648,585.816507 377.620741,613.652542 377.620741,666.305084 L-5.68434189e-14,666.305084 Z" id="clouds-copy" sketch:type="MSShapeGroup" transform="translate(188.810371, 613.652542) scale(-1, 1) translate(-188.810371, -613.652542) "></path>
        </g>
    </g>
</svg>