<?xml version="1.0" encoding="UTF-8" standalone="no"?>
<svg width="31px" height="43px" viewBox="0 0 31 43" version="1.1" xmlns="http://www.w3.org/2000/svg" xmlns:xlink="http://www.w3.org/1999/xlink" xmlns:sketch="http://www.bohemiancoding.com/sketch/ns">
    <!-- Generator: Sketch 3.4 (15575) - http://www.bohemiancoding.com/sketch -->
    <title>tree big</title>
    <desc>Created with Sketch.</desc>
    <defs>
        <path id="path-1" d="M0.0254136,29.7526634 C0.0254136,29.7526634 0.0389662613,29.6161193 0.0644452645,29.3601337 C0.100495344,28.981948 0.153350723,28.6255543 0.231142998,28.1643388 C0.384830177,27.2438387 0.631217559,25.9909436 0.981418327,24.5085441 C1.33026383,23.0266963 1.7772306,21.317275 2.33424498,19.5082732 C2.60855084,18.6032205 2.91728047,17.6741693 3.24444171,16.7357392 C3.57458454,15.7978608 3.9288511,14.8511554 4.3113072,13.913277 C4.503755,13.4446137 4.69457647,12.9767779 4.90247429,12.5150107 C5.10088525,12.0515885 5.31420414,11.593959 5.52860724,11.1421223 C5.9536187,10.2373455 6.41468024,9.36208432 6.8779102,8.5251658 C7.35631914,7.69293667 7.83770967,6.89960191 8.33970025,6.16971187 C8.59476133,5.80642193 8.83030658,5.4497523 9.09241505,5.12039149 C9.34693403,4.78827221 9.58654508,4.46580756 9.84621407,4.17203095 C10.0999199,3.87549588 10.3335678,3.5877879 10.5875446,3.33318151 C10.838811,3.07802342 11.0548404,2.82314118 11.2977041,2.61046347 C11.5321651,2.39419975 11.7519893,2.19172837 11.9550082,2.00442854 C12.1715797,1.8306452 12.3710749,1.67093003 12.5510542,1.52666227 C12.728323,1.38129112 12.8914971,1.25660847 13.0443711,1.15923462 C13.1931793,1.05827478 13.3197612,0.972762337 13.4224903,0.903249 C13.6271355,0.76532571 13.73637,0.691950521 13.73637,0.691950521 C14.2600448,0.33969444 14.9650542,0.485893127 15.3111892,1.01882872 C15.6250688,1.50156023 15.5364344,2.13573151 15.1282283,2.51281378 L15.0439307,2.59032667 C15.0439307,2.59032667 14.963699,2.6645294 14.8132644,2.80383192 C14.7384537,2.87279357 14.6457535,2.95775431 14.5370612,3.05788662 C14.4256583,3.15277784 14.306666,3.27635711 14.1779157,3.42034902 C14.0475391,3.56047909 13.9030677,3.71578071 13.7461279,3.88459882 C13.6000302,4.06665756 13.4420062,4.26333617 13.27314,4.47353126 C13.0988528,4.67517511 12.9448946,4.92840227 12.7657284,5.17169895 C12.5846648,5.41334055 12.4195934,5.69497991 12.2406983,5.97910188 C12.0571952,6.25825862 11.8902264,6.57272372 11.7129576,6.89132652 C11.5294546,7.20441238 11.368449,7.55308246 11.1928065,7.9003733 C10.8482978,8.60129945 10.5252024,9.36842879 10.2086122,10.168108 C9.90530368,10.9774419 9.60714513,11.8190498 9.34286823,12.6940351 C9.20896794,13.1304244 9.07696502,13.5703997 8.95797265,14.0194779 C8.83111974,14.4638668 8.71944581,14.9173586 8.60668767,15.3691952 C8.38306876,16.273972 8.18547096,17.1878517 8.00820215,18.0915251 C7.83445703,18.9963019 7.67534879,19.8892173 7.54470113,20.7586857 C7.27500317,22.4945882 7.09393962,24.1267724 6.97304988,25.5197976 C6.85107593,26.9122712 6.79551002,28.0697234 6.78060209,28.8407146 C6.77084417,29.2249689 6.77572313,29.5350204 6.7857521,29.6114299 C6.79469686,29.8103153 6.79957582,29.9165162 6.79957582,29.9165162 L6.80093108,29.9435492 C6.89119181,31.351746 5.33290681,31.907301 3.45803165,31.9952961 C1.58315649,32.083567 0.113776952,30.9081847 0.0113188323,30.2627037 C-0.0147022774,30.098575 0.0102346194,29.9134819 0.0254136,29.7526634"></path>
    </defs>
    <g id="Page-1" stroke="none" stroke-width="1" fill="none" fill-rule="evenodd" sketch:type="MSPage">
        <g id="5" sketch:type="MSArtboardGroup" transform="translate(-295.000000, -312.000000)">
            <g id="tree-big" sketch:type="MSLayerGroup" transform="translate(295.000000, 312.000000)">
                <path d="M16.0024023,3.64200055 C14.973586,4.75053109 13.6946133,6.06045336 12.4607792,7.28192706 C12.2135598,7.52666978 11.9679081,7.76821299 11.7255754,8.00512191 L10.3260156,7.53495892 L11.1310304,8.58365702 C10.801026,8.90331556 10.4803786,9.21155308 10.1738987,9.50442739 L9.15672314,9.08479245 L9.70294037,9.95306053 C8.24099517,11.3413546 7.20264103,12.2873213 7.20264103,12.2873213 C7.20264103,12.2873213 6.84757903,7.39392341 9.34631973,5.00095693 C11.8450604,2.60799045 13.4780081,1.72126344 18.0739589,1.15172082 C17.9111727,1.48667421 17.2792348,2.24514577 16.4044432,3.20501762 L14.3149524,3.28302165 L16.0024023,3.64200055 Z" id="Path-1879" fill="#4A7628" sketch:type="MSShapeGroup" transform="translate(12.629606, 6.719521) scale(-1, 1) rotate(-14.000000) translate(-12.629606, -6.719521) "></path>
                <g id="Fill-83" transform="translate(2.000000, 11.000000)">
                    <mask id="mask-2" sketch:name="Mask" fill="white">
                        <use xlink:href="#path-1"></use>
                    </mask>
                    <use id="Mask" fill="#6A412F" sketch:type="MSShapeGroup" xlink:href="#path-1"></use>
                    <path d="M2.98162615,17.4250818 C4.41231566,17.9459737 6.16078119,18.3986242 8.01582304,18.5802347 C8.04093264,18.4517315 8.06325229,18.3251545 8.08891989,18.1961009 C8.09980072,18.1421681 8.11263452,18.0879601 8.12351534,18.0340273 C6.28856118,17.8579201 4.56213631,17.4063704 3.16604225,16.8992368 C3.10271024,17.0756191 3.04356317,17.2495249 2.98162615,17.4250818 L2.98162615,17.4250818 Z M2.05508171,20.2295883 C3.62303707,20.6995743 5.55229175,21.0776543 7.5599442,21.1929495 C7.57696293,21.0809563 7.59370267,20.9695135 7.61183739,20.8566949 C7.62243922,20.7887285 7.63583101,20.7185608 7.64671184,20.6503193 C5.64742925,20.5383262 3.74300518,20.1530917 2.22192108,19.6960386 C2.16528497,19.8748975 2.10948585,20.0529308 2.05508171,20.2295883 L2.05508171,20.2295883 Z M0.670984456,25.3798972 C0.629693105,25.5590312 0.589796732,25.7343129 0.551574332,25.9051918 C2.21383021,26.2081512 4.21394978,26.396916 6.25731367,26.396916 C6.49055401,26.396916 6.72435233,26.393614 6.95815066,26.3883859 C6.97182144,26.2120035 6.98688721,26.0306682 7.00278996,25.8449302 C4.72423276,25.8999637 2.47385413,25.7040444 0.670984456,25.3798972 L0.670984456,25.3798972 Z M4.01223595,14.6998235 C5.32435233,15.2573127 6.90207254,15.7493121 8.58664807,15.9735735 C8.62682344,15.8092986 8.66337186,15.6441981 8.70494221,15.4804735 L8.718334,15.4292924 C7.05942607,15.2110846 5.5045835,14.7223872 4.22343563,14.1775557 C4.15089677,14.3511863 4.08282184,14.5256425 4.01223595,14.6998235 L4.01223595,14.6998235 Z M0.0884416102,28.217699 L0.0839776804,28.2441151 C0.0513351933,28.4298531 0.0245516142,28.5960542 0,28.7559265 C1.31685931,28.9163491 2.81004384,29 4.34256676,29 C5.16644081,29 6.00035871,28.9727584 6.82534874,28.9235035 L6.82534874,28.9188256 C6.8284177,28.761705 6.83399761,28.5844972 6.8406935,28.3962826 C4.44607413,28.5462489 2.04029494,28.4601215 0.0884416102,28.217699 L0.0884416102,28.217699 Z M1.25101634,23.044276 C2.95958549,23.4504231 5.06488641,23.7448523 7.2100837,23.7880536 C7.23072937,23.6086444 7.25221204,23.4273091 7.27481068,23.2432221 C5.13993623,23.2049738 3.05639697,22.9105446 1.39246712,22.518431 C1.34420088,22.6956389 1.29677162,22.8711957 1.25101634,23.044276 L1.25101634,23.044276 Z M13.1440415,3.56434765 C12.6301315,3.24652926 12.1667198,2.88055657 11.7579912,2.5 C11.6653647,2.58255023 11.5721802,2.66592596 11.4748107,2.75315404 C11.4310084,2.79030165 11.38888,2.83020092 11.3464727,2.86954987 C11.7925867,3.28918021 12.2953368,3.68899849 12.8477481,4.03048128 C13.107493,4.19117907 13.3708649,4.33151446 13.6359107,4.45754115 C13.7614587,4.30619906 13.8828218,4.15980998 13.9949781,4.02415243 L14,4.01919942 C13.684177,3.87666269 13.3962535,3.72036758 13.1440415,3.56434765 L13.1440415,3.56434765 Z M9.48864089,4.89890971 C10.2251893,5.53757333 11.1280191,6.15037122 12.1446792,6.60026998 C12.2356317,6.44314937 12.3282583,6.29153211 12.4239538,6.14789471 C11.4201275,5.71175432 10.5424073,5.10170811 9.83878039,4.4781787 C9.72104424,4.61466175 9.60358709,4.75417164 9.48864089,4.89890971 L9.48864089,4.89890971 Z M7.83503388,7.18500078 C8.68959745,7.83824827 9.75480271,8.46700587 10.948625,8.90754893 C11.0264647,8.73611962 11.1054205,8.56744198 11.1852132,8.40179118 C10.0092467,7.96675147 8.972499,7.33634287 8.15448386,6.70373293 C8.04762854,6.86167904 7.94105221,7.02237682 7.83503388,7.18500078 L7.83503388,7.18500078 Z M6.39262654,9.61527958 C7.37692308,10.2583459 8.60701475,10.881325 9.98553208,11.2800426 C10.0499801,11.1022844 10.116102,10.9278283 10.181945,10.7530969 C8.82742128,10.3656612 7.61769629,9.7528633 6.66185731,9.12905872 C6.57174173,9.29030684 6.48162615,9.45127979 6.39262654,9.61527958 L6.39262654,9.61527958 Z M5.12514946,12.1253569 C6.2681945,12.7329266 7.67349542,13.3055501 9.21187724,13.6299725 C9.26349143,13.4571673 9.31566361,13.2849125 9.36895177,13.1137584 C7.84814667,12.8044702 6.46349143,12.2417528 5.3519729,11.6468408 C5.2752491,11.8058875 5.19992029,11.9652095 5.12514946,12.1253569 L5.12514946,12.1253569 Z" fill="#512C1D" sketch:type="MSShapeGroup" mask="url(#mask-2)"></path>
                </g>
                <path d="M21.7837655,14.9568849 C21.7837655,14.9568849 17.2057926,10.654489 17.312945,7.65504458 C17.5027495,2.34197658 24.3110929,0.956884887 24.3110929,0.956884887 C24.3110929,0.956884887 22.6019784,2.4920016 22.0749544,3.85768051 C21.5479303,5.22335943 21.4622777,6.34194971 21.4622777,6.34194971 L19.5090251,6.77091539 L21.2514972,7.65297137 C21.2514972,7.65297137 20.8597977,9.24632688 21.1610378,11.1960847 C21.4622779,13.1458425 22.3134117,14.9523615 22.3134117,14.9523615 L21.7837655,14.9568849 Z" id="Path-1884" fill="#3DAC34" sketch:type="MSShapeGroup" transform="translate(20.811093, 7.956885) rotate(58.000000) translate(-20.811093, -7.956885) "></path>
                <path d="M14.6850302,9.31964031 L14.9701559,7.94187394 L13.5404951,9.31964031 L11.012273,8.56146093 L11.8506815,7.10246368 L9.29071113,8.56146093 C9.29071113,8.56146093 7.72253352,8.79335502 7.2249603,8.81636802 C6.97479461,8.82212127 7.22496014,7.94187389 7.22496014,7.94187389 L6.32919498,8.27967187 L4.72794958,7.94187399 L5.32054611,7.10246368 C5.32054611,7.10246368 4.25249074,7.55351461 4.16285033,7.57597968 C3.98274206,7.62145776 2.87922784,7.10246369 2.87922784,7.10246369 C2.87922784,7.10246369 8.60287209,3.70817817 13.1800053,5.44338187 C17.7571385,7.17858557 17.1588165,11.1810481 17.1588165,11.1810481 L14.6850302,9.31964031 Z" id="Fill-86" fill="#4E9D2D" sketch:type="MSShapeGroup" transform="translate(10.031873, 8.065263) rotate(26.000000) translate(-10.031873, -8.065263) "></path>
                <path d="M23.7691581,8.45035357 C27.5248411,9.36619784 29.4119104,16.8108843 29.1501407,17.2973685 C28.9411985,17.0494422 28.2007047,16.25183 28.0399922,16.0927132 C27.9457916,15.999448 27.631604,14.4954544 27.631604,14.4954544 C27.631604,14.4954544 27.4765467,15.5582909 27.3375233,15.4355858 C24.9789599,13.3538671 23.048565,12.8657423 23.048565,12.8657423 L22.3623711,10.8176199 L22.3623711,12.2300149 C22.3623711,12.2300149 21.5923073,11.8211035 20.6479188,11.3251514 C20.4381244,11.2149765 20.647919,10.0788469 20.647919,10.0788469 L19.9666389,11.035976 L16.2728904,9.80696204 C16.2728904,9.80696204 19.149277,7.32376977 23.7691581,8.45035357 Z" id="Fill-87-Copy" fill="#4C8B2B" sketch:type="MSShapeGroup" transform="translate(22.723506, 12.727262) rotate(-23.000000) translate(-22.723506, -12.727262) "></path>
                <path d="M0.311483594,15.01084 L2.14847288,14.5475309 L2.26345415,13.292341 L3.06974607,14.3674748 L4.23065844,13.7736325 L4.15352992,12.5773192 L5.19661495,13.5636305 C5.19661495,13.5636305 6.8074914,12.5273248 7.54490814,12.2910568 C8.28232489,12.0547887 10.9896502,11.5372069 10.9896502,11.5372069 L10.3013279,10.9108808 C10.3013279,10.9108808 11.4167111,11.0382083 12.2205759,11.6223497 C13.0672597,10.998562 14.9182243,10.1759374 14.9182243,10.1759374 C14.9182243,10.1759374 8.56735948,7.70247321 4.15352998,9.265243 C-0.260299528,10.8280128 0.311483594,15.01084 0.311483594,15.01084 Z" id="Path-1883" fill="#2E8F3A" sketch:type="MSShapeGroup" transform="translate(7.602749, 11.879180) scale(-1, 1) rotate(6.000000) translate(-7.602749, -11.879180) "></path>
                <path d="M20.7834275,12.3586644 C24.3268097,13.222738 26.1072071,20.2465922 25.8602347,20.7055765 C25.6631035,20.471665 24.9644683,19.7191402 24.8128405,19.5690179 C24.7239649,19.4810247 24.4275376,18.0620486 24.4275376,18.0620486 C24.4275376,18.0620486 24.2812454,19.0648053 24.1500807,18.9490365 C21.9248417,16.9849929 20.103568,16.5244607 20.103568,16.5244607 L19.4561631,14.5921143 L19.4561631,15.9246696 C19.4561631,15.9246696 18.7296294,15.5388731 17.8386251,15.0709561 C17.64069,14.9670091 17.8386254,13.8951025 17.8386254,13.8951025 L17.1958565,14.7981272 L13.7109077,13.6385867 C13.7109077,13.6385867 16.4246983,11.295764 20.7834275,12.3586644 Z" id="Fill-87" fill="#5FA349" sketch:type="MSShapeGroup" transform="translate(19.796883, 16.393808) rotate(11.000000) translate(-19.796883, -16.393808) "></path>
                <circle id="Oval-143" fill="#A5CB1C" sketch:type="MSShapeGroup" cx="13.5" cy="12.5" r="1.5"></circle>
                <circle id="Oval-143-Copy" fill="#BFD27C" sketch:type="MSShapeGroup" cx="16" cy="14" r="2"></circle>
            </g>
        </g>
    </g>
</svg>