<?xml version="1.0" encoding="UTF-8" standalone="no"?>
<svg width="23px" height="23px" viewBox="0 0 23 23" version="1.1" xmlns="http://www.w3.org/2000/svg" xmlns:xlink="http://www.w3.org/1999/xlink" xmlns:sketch="http://www.bohemiancoding.com/sketch/ns">
    <!-- Generator: Sketch 3.4 (15575) - http://www.bohemiancoding.com/sketch -->
    <title>DasVico</title>
    <desc>Created with Sketch.</desc>
    <defs></defs>
    <g id="Page-1" stroke="none" stroke-width="1" fill="none" fill-rule="evenodd" sketch:type="MSPage">
        <g id="2" sketch:type="MSArtboardGroup" transform="translate(-336.000000, -173.000000)" fill="#FFFFFF">
            <g id="carlogo" sketch:type="MSLayerGroup" transform="translate(17.000000, 152.000000)">
                <path d="M319,32.4987023 C319,38.833954 324.166338,44 330.500649,44 L330.500649,44 C336.833662,44 342,38.833954 342,32.4987023 L342,32.4987023 C342,26.1673437 336.833662,21 330.500649,21 L330.500649,21 C324.166338,21 319,26.1673437 319,32.4987023 L319,32.4987023 Z M327.452237,23.2358948 C328.412571,22.9179643 329.436495,22.7466712 330.500649,22.7466712 L330.500649,22.7466712 C331.455792,22.7466712 332.378491,22.8842248 333.250578,23.1424622 L333.250578,23.1424622 L330.329346,29.4517603 L327.452237,23.2358948 Z M331.95283,32.0133717 L335.428201,24.0884676 C336.541669,24.7424961 337.514981,25.6132363 338.291034,26.6396976 L338.291034,26.6396976 C337.433222,29.6879373 333.842352,37.218348 333.842352,37.218348 L333.842352,37.218348 L331.921684,32.8010607 L328.820064,32.8010607 L326.898099,37.218348 C326.898099,37.218348 323.497997,30.0863236 322.525983,26.894042 L322.525983,26.894042 C323.268295,25.8416272 324.213056,24.9410404 325.304463,24.2519747 L325.304463,24.2519747 L328.705862,32.0133717 L331.95283,32.0133717 Z M339.753597,29.4167231 C340.079332,30.3873843 340.254528,31.424227 340.254528,32.4987023 L340.254528,32.4987023 C340.254528,36.4695893 337.861479,39.8993455 334.443209,41.4189235 L334.443209,41.4189235 C336.991988,36.5396637 339.286407,30.6404311 339.753597,29.4167231 L339.753597,29.4167231 Z M320.745472,32.4987023 C320.745472,31.5397202 320.885629,30.6118822 321.146476,29.7346536 L321.146476,29.7346536 C321.716188,31.2347664 323.81335,36.6292033 326.214185,41.2580117 L326.214185,41.2580117 C322.980195,39.6657639 320.745472,36.3359287 320.745472,32.4987023 L320.745472,32.4987023 Z M327.544377,41.7952494 L330.299498,35.6611374 L330.370874,35.6170165 L330.44225,35.6611374 L333.228517,41.8640262 C332.36162,42.1170729 331.448005,42.2533288 330.500649,42.2533288 L330.500649,42.2533288 C329.470236,42.2533288 328.477459,42.0924171 327.544377,41.7952494 L327.544377,41.7952494 Z" id="DasVico" sketch:type="MSShapeGroup"></path>
            </g>
        </g>
    </g>
</svg>