<?xml version="1.0" encoding="UTF-8" standalone="no"?>
<svg width="290px" height="56px" viewBox="0 0 290 56" version="1.1" xmlns="http://www.w3.org/2000/svg" xmlns:xlink="http://www.w3.org/1999/xlink" xmlns:sketch="http://www.bohemiancoding.com/sketch/ns">
    <!-- Generator: Sketch 3.4 (15575) - http://www.bohemiancoding.com/sketch -->
    <title>Rectangle 42 + Android + 下载Android版</title>
    <desc>Created with Sketch.</desc>
    <defs>
        <filter x="-50%" y="-50%" width="200%" height="200%" filterUnits="objectBoundingBox" id="filter-1">
            <feOffset dx="0" dy="-6" in="SourceAlpha" result="shadowOffsetInner1"></feOffset>
            <feGaussianBlur stdDeviation="0" in="shadowOffsetInner1" result="shadowBlurInner1"></feGaussianBlur>
            <feComposite in="shadowBlurInner1" in2="SourceAlpha" operator="arithmetic" k2="-1" k3="1" result="shadowInnerInner1"></feComposite>
            <feColorMatrix values="0 0 0 0 0.655187075   0 0 0 0 0.655187075   0 0 0 0 0.655187075  0 0 0 0.105867867 0" in="shadowInnerInner1" type="matrix" result="shadowMatrixInner1"></feColorMatrix>
            <feMerge>
                <feMergeNode in="SourceGraphic"></feMergeNode>
                <feMergeNode in="shadowMatrixInner1"></feMergeNode>
            </feMerge>
        </filter>
    </defs>
    <g id="Page-1" stroke="none" stroke-width="1" fill="none" fill-rule="evenodd" sketch:type="MSPage">
        <g id="iPhone-6" sketch:type="MSArtboardGroup" transform="translate(-42.000000, -504.000000)">
            <g id="Rectangle-299-+-Rectangle-42-+-Android-+-下载Android版-+-Rectangle-43-+-下载iPhone版-+-ios" sketch:type="MSLayerGroup" transform="translate(0.000000, 473.000000)">
                <g id="Rectangle-42-+-Android-+-下载Android版" transform="translate(42.000000, 31.000000)" sketch:type="MSShapeGroup">
                    <rect id="Rectangle-42" fill="#40B685" filter="url(#filter-1)" x="0" y="0" width="290" height="56" rx="3.6"></rect>
                    <path d="M89.2204042,32.7438224 C88.3481849,32.7438224 87.8304133,32.2296001 87.8304133,31.3483753 L87.8304133,25.0688634 C87.8304133,24.1869408 88.3481849,23.6734163 89.2204042,23.6734163 C90.0919285,23.6734163 90.6117851,24.0690256 90.6117851,24.9509481 L90.6117851,31.2137146 C90.6117851,32.0949395 90.0919285,32.7438224 89.2204042,32.7438224 L89.2204042,32.7438224 Z M85.0504315,36.2324401 L83.6604406,36.2324401 L83.6604406,39.7210578 C83.6604406,40.6022826 83.142669,41.1088299 82.2704497,41.1165049 C81.4044854,41.1234821 80.8825438,40.6148416 80.851964,39.695242 C80.7491047,39.5647677 80.8804588,36.2324401 80.8804588,36.2324401 L78.100477,36.2324401 L78.100477,39.7210578 C78.100477,40.6022826 77.5681105,41.1255753 76.6958912,41.1255753 C75.823672,41.1255753 75.3204953,40.6022826 75.3204953,39.7210578 L75.3204953,36.2324401 L73.9305044,36.2324401 C73.2507988,36.2324401 72.5405135,35.5144826 72.5405135,34.836993 L72.5405135,23.6734163 L86.4404224,23.6734163 L86.4404224,34.836993 C86.4404224,35.5144826 85.7301371,36.2324401 85.0504315,36.2324401 L85.0504315,36.2324401 Z M76.1419799,17.5418218 L74.8430334,15.6663409 C74.7672789,15.5561006 74.7867387,15.408881 74.8868181,15.340504 C74.9875924,15.2707317 75.1314565,15.3056179 75.209296,15.4165559 L76.7104861,17.3939044 C77.5979953,17.0450427 78.4319899,16.8210734 79.4723981,16.8210734 C80.5121112,16.8210734 81.3829405,17.0450427 82.2704497,17.3939044 L83.7361951,15.4165559 C83.8133396,15.3056179 83.9572037,15.2707317 84.057978,15.340504 C84.1580574,15.408881 84.1775172,15.5561006 84.1010677,15.6663409 L82.8021212,17.5418218 C84.8662577,18.4963076 86.2562486,20.1603783 86.4404224,22.2779692 L72.5405135,22.2779692 C72.7246873,20.1603783 74.0778434,18.4963076 76.1419799,17.5418218 L76.1419799,17.5418218 Z M82.2704497,20.1847986 C82.7034319,20.1847986 82.9654452,19.8715207 82.9654452,19.4870751 C82.9654452,19.1019317 82.7034319,18.7893515 82.2704497,18.7893515 C81.8381626,18.7893515 81.5754543,19.1019317 81.5754543,19.4870751 C81.5754543,19.8715207 81.8381626,20.1847986 82.2704497,20.1847986 L82.2704497,20.1847986 Z M76.7104861,20.1847986 C77.1434683,20.1847986 77.4054816,19.8715207 77.4054816,19.4870751 C77.4054816,19.1019317 77.1434683,18.7893515 76.7104861,18.7893515 C76.278199,18.7893515 76.0134057,19.1075135 76.0134057,19.4926568 C76.0134057,19.8771025 76.278199,20.1847986 76.7104861,20.1847986 L76.7104861,20.1847986 Z M82.9425103,14.8744247 L82.9466803,14.8765179 C82.9452903,14.8772156 82.9445953,14.8779133 82.9432053,14.8779133 L82.9425103,14.8744247 L82.9425103,14.8744247 Z M69.7605317,32.7438224 C68.8890074,32.7438224 68.3691508,32.1074985 68.3691508,31.2269714 L68.3691508,24.9914161 C68.3691508,24.1101913 68.8890074,23.6734163 69.7605317,23.6734163 C70.632751,23.6734163 71.1505226,24.1869408 71.1505226,25.0688634 L71.1505226,31.3483753 C71.1505226,32.2296001 70.632751,32.7438224 69.7605317,32.7438224 L69.7605317,32.7438224 Z" id="Android" fill="#FFFFFF"></path>
                    <path d="M104.795592,21.7545197 L120.932311,21.7545197 L120.932311,23.1158479 L112.863951,23.1158479 L112.863951,26.7349885 L113.627623,25.6724885 C116.162141,27.1666366 118.28712,28.5113497 120.002623,29.7066682 L119.023131,31.0513947 C117.307628,29.7343309 115.254588,28.3453473 112.863951,26.8844025 L112.863951,36.6295197 L111.353209,36.6295197 L111.353209,23.1158479 L104.795592,23.1158479 L104.795592,21.7545197 Z M129.017272,35.6168244 C130.328802,34.7203356 131.507501,33.6384779 132.553405,32.371219 C131.988949,30.6667833 131.629252,28.5169025 131.474303,25.9215119 L121.695983,25.9215119 L121.695983,24.8092072 L125.829772,24.8092072 L125.829772,23.2652619 L122.376647,23.2652619 L122.376647,22.2193635 L125.829772,22.2193635 L125.829772,20.5260041 L127.058287,20.5260041 L127.058287,22.2193635 L130.328795,22.2193635 L130.328795,23.2652619 L127.058287,23.2652619 L127.058287,24.8092072 L131.407897,24.8092072 C131.34149,23.4921434 131.280618,22.0367543 131.22528,20.4429963 L132.5036,20.4429963 C132.509134,21.9980171 132.550637,23.4534062 132.628112,24.8092072 L138.148131,24.8092072 L138.148131,25.9215119 L132.694518,25.9215119 C132.810729,27.9635143 133.073585,29.703894 133.483092,31.1427033 C134.318708,29.9529187 135.054703,28.6275739 135.6911,27.1666291 L136.836608,27.6978791 C135.98439,29.529594 135.027043,31.1482302 133.964537,32.5538361 C134.307638,33.3673168 134.711605,34.0507409 135.176451,34.6041291 C135.464213,34.936162 135.729836,35.102176 135.973326,35.102176 C136.272156,35.102176 136.471373,34.880824 136.570983,34.4381135 C136.703796,33.8404542 136.831073,33.0878576 136.952819,32.180301 C137.395529,32.3795207 137.793963,32.5289333 138.148131,32.6285432 C138.00425,33.5693031 137.84377,34.4049067 137.666686,35.1353791 C137.389992,36.1204101 136.897484,36.6129182 136.189147,36.6129182 C135.3812,36.6129182 134.612002,36.0982749 133.88153,35.0689729 C133.5827,34.6594656 133.311544,34.1918596 133.068053,33.6661408 C132.116225,34.7563155 131.092473,35.6942944 129.996764,36.4801057 C129.664731,36.1038017 129.338237,35.8160442 129.017272,35.6168244 L129.017272,35.6168244 Z M124.036803,30.6031525 L126.311217,30.6031525 L126.311217,29.0758088 L127.489928,29.0758088 L127.489928,30.6031525 L130.627623,30.6031525 L130.627623,31.649051 L127.489928,31.649051 L127.489928,33.1929963 C128.502628,33.1099881 129.570652,33.0214473 130.69403,32.9273713 C130.660826,33.2815397 130.644225,33.6412367 130.644225,34.0064729 C129.648126,34.0728794 128.596704,34.1531195 127.489928,34.2471955 L127.489928,36.6793244 L126.311217,36.6793244 L126.311217,34.3551057 C125.010755,34.4657833 123.638373,34.5985945 122.19403,34.7535432 L121.928405,33.5582307 C123.245468,33.4862902 124.706391,33.3922156 126.311217,33.2760041 L126.311217,31.649051 L122.658873,31.649051 L122.658873,30.5699494 C123.107118,29.9888918 123.547055,29.3414374 123.978698,28.6275666 L122.09442,28.6275666 L122.09442,27.5816682 L124.584655,27.5816682 C124.855815,27.0891527 125.121437,26.5689756 125.38153,26.0211213 L126.610045,26.4029572 C126.383156,26.8179984 126.161804,27.2108981 125.945983,27.5816682 L130.760436,27.5816682 L130.760436,28.6275666 L125.323424,28.6275666 C124.864112,29.3801745 124.435243,30.0386966 124.036803,30.6031525 L124.036803,30.6031525 Z M133.615905,21.6549104 L134.429381,20.8414338 C135.547225,21.6825838 136.454768,22.4296467 137.152037,23.0826447 L136.205748,24.0455354 C135.45314,23.2375886 134.589868,22.4407216 133.615905,21.6549104 L133.615905,21.6549104 Z M150.126159,34.5128205 L148.291686,34.5128205 L146.980162,30.9932893 L141.626159,30.9932893 L140.389342,34.5128205 L138.554869,34.5128205 L143.45233,21.6549104 L145.228698,21.6549104 L150.126159,34.5128205 Z M146.465514,29.5406525 L144.523131,24.1949494 C144.462258,24.0233991 144.395853,23.7245739 144.323912,23.298465 L144.282409,23.298465 C144.221536,23.6858368 144.152363,23.9846619 144.074889,24.1949494 L142.149108,29.5406525 L146.465514,29.5406525 Z M159.539244,34.5128205 L157.920592,34.5128205 L157.920592,29.2916291 C157.920592,27.4045754 157.231634,26.4610627 155.853698,26.4610627 C155.139827,26.4610627 154.553244,26.726685 154.093932,27.2579377 C153.63462,27.7891904 153.404967,28.4615469 153.404967,29.2750275 L153.404967,34.5128205 L151.778014,34.5128205 L151.778014,25.3321565 L153.404967,25.3321565 L153.404967,26.8511994 L153.43817,26.8511994 C154.129905,25.6946181 155.13429,25.1163361 156.451354,25.1163361 C157.45852,25.1163361 158.224951,25.4386799 158.75067,26.0833772 C159.276389,26.7280744 159.539244,27.6674367 159.539244,28.9014924 L159.539244,34.5128205 Z M170.22235,34.5128205 L168.595397,34.5128205 L168.595397,32.9854768 L168.562194,32.9854768 C167.892594,34.1475919 166.85224,34.7286408 165.4411,34.7286408 C164.278985,34.7286408 163.35484,34.3149894 162.668639,33.487674 C161.982438,32.6603587 161.639342,31.5439148 161.639342,30.1383088 C161.639342,28.6220252 162.026708,27.4059729 162.801451,26.4901154 C163.576195,25.574258 164.58888,25.1163361 165.839537,25.1163361 C167.090195,25.1163361 167.997738,25.6033104 168.562194,26.5772736 L168.595397,26.5772736 L168.595397,20.9244416 L170.22235,20.9244416 L170.22235,34.5128205 Z M168.603698,29.0509065 C168.603698,28.3149002 168.361594,27.699265 167.877379,27.2039826 C167.393165,26.7087002 166.796898,26.4610627 166.088561,26.4610627 C165.225275,26.4610627 164.544618,26.7834065 164.046569,27.4281037 C163.548519,28.0728009 163.299498,28.9512915 163.299498,30.0636018 C163.299498,31.0873699 163.538835,31.896688 164.017516,32.4915803 C164.496197,33.0864726 165.133967,33.3839143 165.930846,33.3839143 C166.716657,33.3839143 167.358578,33.0920064 167.856627,32.5081818 C168.354677,31.9243573 168.603698,31.1980462 168.603698,30.3292268 L168.603698,29.0509065 Z M178.049987,26.942508 C177.778826,26.7488221 177.405295,26.6519807 176.929381,26.6519807 C176.298519,26.6519807 175.778342,26.9466555 175.368834,27.5360139 C174.959327,28.1253723 174.754576,28.9014876 174.754576,29.864383 L174.754576,34.5128205 L173.127623,34.5128205 L173.127623,25.3321565 L174.754576,25.3321565 L174.754576,27.1998322 L174.78778,27.1998322 C175.252626,25.8495651 176.055027,25.1744416 177.195006,25.1744416 C177.565776,25.1744416 177.850767,25.2159451 178.049987,25.2989533 L178.049987,26.942508 Z M180.033873,26.43201 C180.880557,25.5548897 182.028821,25.1163361 183.478698,25.1163361 C184.856634,25.1163361 185.937108,25.5382883 186.720153,26.3822053 C187.503197,27.2261223 187.894713,28.3923704 187.894713,29.8809846 C187.894713,31.3308616 187.476911,32.5012601 186.641295,33.392215 C185.805679,34.28317 184.685085,34.7286408 183.279479,34.7286408 C181.907076,34.7286408 180.811384,34.2970045 179.992369,33.433719 C179.173355,32.5704334 178.763854,31.4332377 178.763854,30.0220979 C178.763854,28.5058142 179.187189,27.3091302 180.033873,26.43201 Z M180.42401,29.9722932 C180.42401,31.0292646 180.691016,31.8621013 181.225035,32.4708283 C181.759055,33.0795553 182.477065,33.3839143 183.379088,33.3839143 C184.30878,33.3839143 185.017107,33.0864726 185.504088,32.4915803 C185.99107,31.896688 186.234557,31.0430995 186.234557,29.9307893 C186.234557,28.8129451 185.99107,27.9552063 185.504088,27.3575471 C185.017107,26.7598878 184.30878,26.4610627 183.379088,26.4610627 C182.465998,26.4610627 181.74522,26.7737223 181.216735,27.399051 C180.688249,28.0243796 180.42401,28.8821184 180.42401,29.9722932 L180.42401,29.9722932 Z M189.98651,22.0948518 C189.98651,21.8070899 190.084735,21.5649862 190.281188,21.3685334 C190.477641,21.1720806 190.719744,21.0738557 191.007506,21.0738557 C191.300802,21.0738557 191.548439,21.1706971 191.750426,21.364383 C191.952413,21.5580689 192.053405,21.801556 192.053405,22.0948518 C192.053405,22.3826136 191.952413,22.6219504 191.750426,22.8128693 C191.548439,23.0037883 191.300802,23.0992463 191.007506,23.0992463 C190.71421,23.0992463 190.470723,23.0037883 190.277037,22.8128693 C190.083352,22.6219504 189.98651,22.3826136 189.98651,22.0948518 L189.98651,22.0948518 Z M190.177428,34.5128205 L190.177428,25.3321565 L191.804381,25.3321565 L191.804381,34.5128205 L190.177428,34.5128205 Z M202.678405,34.5128205 L201.051451,34.5128205 L201.051451,32.9854768 L201.018248,32.9854768 C200.348649,34.1475919 199.308294,34.7286408 197.897155,34.7286408 C196.735039,34.7286408 195.810895,34.3149894 195.124694,33.487674 C194.438492,32.6603587 194.095397,31.5439148 194.095397,30.1383088 C194.095397,28.6220252 194.482763,27.4059729 195.257506,26.4901154 C196.03225,25.574258 197.044935,25.1163361 198.295592,25.1163361 C199.546249,25.1163361 200.453792,25.6033104 201.018248,26.5772736 L201.051451,26.5772736 L201.051451,20.9244416 L202.678405,20.9244416 L202.678405,34.5128205 Z M201.059752,29.0509065 C201.059752,28.3149002 200.817649,27.699265 200.333434,27.2039826 C199.849219,26.7087002 199.252952,26.4610627 198.544616,26.4610627 C197.68133,26.4610627 197.000673,26.7834065 196.502623,27.4281037 C196.004574,28.0728009 195.755553,28.9512915 195.755553,30.0636018 C195.755553,31.0873699 195.99489,31.896688 196.473571,32.4915803 C196.952251,33.0864726 197.590022,33.3839143 198.386901,33.3839143 C199.172712,33.3839143 199.814633,33.0920064 200.312682,32.5081818 C200.810731,31.9243573 201.059752,31.1980462 201.059752,30.3292268 L201.059752,29.0509065 Z M211.76776,21.704715 C214.999547,21.6493762 217.777514,21.4169567 220.101744,21.0074494 L220.549987,22.235965 C217.41781,22.5901335 214.877796,22.7838164 212.929869,22.8170197 L212.929869,25.5562775 L219.935729,25.5562775 L219.935729,26.5523713 C219.493018,29.2086346 218.646347,31.3391471 217.39569,32.9439729 C218.203637,33.7906568 219.382336,34.5653886 220.931823,35.2681916 C220.533383,35.7219699 220.195821,36.131471 219.919127,36.4967072 C218.485852,35.6223539 217.376325,34.7535475 216.590514,33.8902619 C215.677423,34.8365557 214.418484,35.7717677 212.813659,36.695926 C212.581235,36.3085543 212.310079,35.9156545 212.000182,35.517215 C213.66588,34.7092683 214.949722,33.8487626 215.851744,32.9356721 C214.750502,31.391719 214.039409,29.2971762 213.718444,26.6519807 L212.929869,26.6519807 L212.929869,29.1920197 C212.929869,32.268858 212.216009,34.7756689 210.788268,36.7125275 C210.522642,36.3251558 210.245952,35.9709927 209.95819,35.6500275 C210.666527,34.5321834 211.147967,33.4530926 211.402526,32.4127229 C211.646016,31.4055564 211.76776,30.0387081 211.76776,28.3121369 L211.76776,21.704715 Z M209.709166,36.4801057 L208.547057,36.4801057 L208.547057,30.1881135 L206.712584,30.1881135 C206.657245,32.8388429 206.195173,35.0136258 205.326354,36.7125275 C205.082863,36.4026302 204.761903,36.0816698 204.363463,35.7496369 C205.160342,34.3661665 205.558776,32.2633229 205.558776,29.4410432 L205.558776,20.9576447 L206.720885,20.9576447 L206.720885,25.4898713 L208.447448,25.4898713 L208.447448,20.5260041 L209.609557,20.5260041 L209.609557,25.4898713 L211.004088,25.4898713 L211.004088,26.5191682 L206.720885,26.5191682 L206.720885,29.1588166 L209.709166,29.1588166 L209.709166,36.4801057 Z M218.67401,26.6519807 L214.880553,26.6519807 C215.157247,28.8212623 215.749364,30.6003787 216.65692,31.989383 C217.619816,30.6723191 218.292172,28.8932028 218.67401,26.6519807 L218.67401,26.6519807 Z" id="下载Android版" fill="#FFFFFF"></path>
                </g>
            </g>
        </g>
    </g>
</svg>