<?xml version="1.0" encoding="UTF-8" standalone="no"?>
<svg width="291px" height="56px" viewBox="0 0 291 56" version="1.1" xmlns="http://www.w3.org/2000/svg" xmlns:xlink="http://www.w3.org/1999/xlink" xmlns:sketch="http://www.bohemiancoding.com/sketch/ns">
    <!-- Generator: Sketch 3.4 (15575) - http://www.bohemiancoding.com/sketch -->
    <title>Rectangle 43 + 下载iPhone版 + ios</title>
    <desc>Created with Sketch.</desc>
    <defs>
        <filter x="-50%" y="-50%" width="200%" height="200%" filterUnits="objectBoundingBox" id="filter-1">
            <feOffset dx="0" dy="-4" in="SourceAlpha" result="shadowOffsetInner1"></feOffset>
            <feGaussianBlur stdDeviation="0" in="shadowOffsetInner1" result="shadowBlurInner1"></feGaussianBlur>
            <feComposite in="shadowBlurInner1" in2="SourceAlpha" operator="arithmetic" k2="-1" k3="1" result="shadowInnerInner1"></feComposite>
            <feColorMatrix values="0 0 0 0 0.431361607   0 0 0 0 0.431361607   0 0 0 0 0.431361607  0 0 0 0.156176404 0" in="shadowInnerInner1" type="matrix" result="shadowMatrixInner1"></feColorMatrix>
            <feMerge>
                <feMergeNode in="SourceGraphic"></feMergeNode>
                <feMergeNode in="shadowMatrixInner1"></feMergeNode>
            </feMerge>
        </filter>
    </defs>
    <g id="Page-1" stroke="none" stroke-width="1" fill="none" fill-rule="evenodd" sketch:type="MSPage">
        <g id="6" sketch:type="MSArtboardGroup" transform="translate(-42.000000, -573.000000)">
            <g id="download" sketch:type="MSLayerGroup" transform="translate(0.000000, 456.000000)">
                <g id="Rectangle-43-+-下载iPhone版-+-ios" transform="translate(42.500000, 117.000000)" sketch:type="MSShapeGroup">
                    <rect id="Rectangle-43" fill="#323232" filter="url(#filter-1)" x="0" y="0" width="290" height="56" rx="3.6"></rect>
                    <path d="M103.435107,22.1134941 L119.571826,22.1134941 L119.571826,23.4748222 L111.503466,23.4748222 L111.503466,27.0939628 L112.267138,26.0314628 C114.801656,27.5256109 116.926635,28.8703241 118.642138,30.0656425 L117.662646,31.4103691 C115.947143,30.0933052 113.894103,28.7043217 111.503466,27.2433769 L111.503466,36.9884941 L109.992724,36.9884941 L109.992724,23.4748222 L103.435107,23.4748222 L103.435107,22.1134941 Z M127.656787,35.9757988 C128.968317,35.0793099 130.147016,33.9974522 131.192919,32.7301933 C130.628463,31.0257577 130.268766,28.8758769 130.113818,26.2804863 L120.335497,26.2804863 L120.335497,25.1681816 L124.469287,25.1681816 L124.469287,23.6242363 L121.016162,23.6242363 L121.016162,22.5783378 L124.469287,22.5783378 L124.469287,20.8849785 L125.697802,20.8849785 L125.697802,22.5783378 L128.96831,22.5783378 L128.96831,23.6242363 L125.697802,23.6242363 L125.697802,25.1681816 L130.047412,25.1681816 C129.981005,23.8511177 129.920133,22.3957286 129.864794,20.8019707 L131.143115,20.8019707 C131.148649,22.3569914 131.190152,23.8123805 131.267626,25.1681816 L136.787646,25.1681816 L136.787646,26.2804863 L131.334033,26.2804863 C131.450244,28.3224887 131.7131,30.0628684 132.122607,31.5016777 C132.958223,30.3118931 133.694218,28.9865483 134.330615,27.5256035 L135.476122,28.0568535 C134.623905,29.8885684 133.666557,31.5072045 132.604052,32.9128105 C132.947153,33.7262911 133.35112,34.4097153 133.815966,34.9631035 C134.103728,35.2951364 134.36935,35.4611503 134.612841,35.4611503 C134.911671,35.4611503 135.110888,35.2397984 135.210497,34.7970878 C135.343311,34.1994286 135.470588,33.446832 135.592333,32.5392753 C136.035044,32.7384951 136.433477,32.8879077 136.787646,32.9875175 C136.643765,33.9282774 136.483285,34.7638811 136.306201,35.4943535 C136.029506,36.4793844 135.536998,36.9718925 134.828662,36.9718925 C134.020715,36.9718925 133.251517,36.4572492 132.521044,35.4279472 C132.222215,35.01844 131.951059,34.550834 131.707568,34.0251152 C130.75574,35.1152899 129.731987,36.0532688 128.636279,36.83908 C128.304246,36.4627761 127.977752,36.1750185 127.656787,35.9757988 L127.656787,35.9757988 Z M122.676318,30.9621269 L124.950732,30.9621269 L124.950732,29.4347832 L126.129443,29.4347832 L126.129443,30.9621269 L129.267138,30.9621269 L129.267138,32.0080253 L126.129443,32.0080253 L126.129443,33.5519707 C127.142143,33.4689624 128.210166,33.3804216 129.333544,33.2863457 C129.300341,33.6405141 129.28374,34.000211 129.28374,34.3654472 C128.287641,34.4318538 127.236219,34.5120939 126.129443,34.6061699 L126.129443,37.0382988 L124.950732,37.0382988 L124.950732,34.71408 C123.65027,34.8247577 122.277887,34.9575688 120.833544,35.1125175 L120.567919,33.917205 C121.884983,33.8452646 123.345906,33.75119 124.950732,33.6349785 L124.950732,32.0080253 L121.298388,32.0080253 L121.298388,30.9289238 C121.746633,30.3478662 122.18657,29.7004117 122.618212,28.986541 L120.733935,28.986541 L120.733935,27.9406425 L123.224169,27.9406425 C123.49533,27.448127 123.760952,26.92795 124.021044,26.3800957 L125.24956,26.7619316 C125.022671,27.1769727 124.801319,27.5698724 124.585497,27.9406425 L129.399951,27.9406425 L129.399951,28.986541 L123.962939,28.986541 C123.503627,29.7391489 123.074757,30.397671 122.676318,30.9621269 L122.676318,30.9621269 Z M132.255419,22.0138847 L133.068896,21.2004082 C134.18674,22.0415582 135.094283,22.788621 135.791552,23.4416191 L134.845263,24.4045097 C134.092655,23.596563 133.229383,22.7996959 132.255419,22.0138847 L132.255419,22.0138847 Z M138.256884,22.4538261 C138.256884,22.1660643 138.355109,21.9239606 138.551562,21.7275078 C138.748015,21.531055 138.990118,21.43283 139.27788,21.43283 C139.571176,21.43283 139.818814,21.5296715 140.0208,21.7233574 C140.222787,21.9170432 140.323779,22.1605304 140.323779,22.4538261 C140.323779,22.741588 140.222787,22.9809248 140.0208,23.1718437 C139.818814,23.3627626 139.571176,23.4582207 139.27788,23.4582207 C138.984585,23.4582207 138.741097,23.3627626 138.547412,23.1718437 C138.353726,22.9809248 138.256884,22.741588 138.256884,22.4538261 L138.256884,22.4538261 Z M138.447802,34.8717949 L138.447802,25.6911308 L140.074755,25.6911308 L140.074755,34.8717949 L138.447802,34.8717949 Z M144.847704,30.0656425 L144.847704,34.8717949 L143.187548,34.8717949 L143.187548,22.0138847 L146.839892,22.0138847 C148.228896,22.0138847 149.306604,22.3486795 150.073046,23.0182792 C150.839489,23.6878789 151.222704,24.6452261 151.222704,25.8903496 C151.222704,27.1520746 150.774467,28.174444 149.877978,28.9574882 C148.981489,29.7405325 147.860895,30.1099136 146.516162,30.0656425 L144.847704,30.0656425 Z M144.847704,23.4748222 L144.847704,28.604705 L146.383349,28.604705 C147.396049,28.604705 148.165247,28.3764358 148.690966,27.9198906 C149.216685,27.4633453 149.47954,26.8089736 149.47954,25.9567558 C149.47954,24.3021251 148.500058,23.4748222 146.541064,23.4748222 L144.847704,23.4748222 Z M161.133837,34.8717949 L159.515185,34.8717949 L159.515185,29.592498 C159.515185,27.7441815 158.828994,26.8200371 157.456591,26.8200371 C156.753788,26.8200371 156.169972,27.0898098 155.705126,27.6293632 C155.24028,28.1689167 155.007861,28.8481905 155.007861,29.667205 L155.007861,34.8717949 L153.380908,34.8717949 L153.380908,21.283416 L155.007861,21.283416 L155.007861,27.201873 L155.041064,27.201873 C155.743867,26.0508256 156.742718,25.4753105 158.037646,25.4753105 C160.101784,25.4753105 161.133837,26.7231821 161.133837,29.2189628 L161.133837,34.8717949 Z M163.233935,30.3810722 C163.233935,28.8647886 163.657271,27.6681046 164.503954,26.7909843 C165.350638,25.9138641 166.498902,25.4753105 167.948779,25.4753105 C169.326715,25.4753105 170.40719,25.8972627 171.190234,26.7411796 C171.973278,27.5850966 172.364794,28.7513447 172.364794,30.2399589 C172.364794,31.689836 171.946993,32.8602344 171.111376,33.7511894 C170.27576,34.6421444 169.155166,35.0876152 167.74956,35.0876152 C166.377157,35.0876152 165.281465,34.6559789 164.462451,33.7926933 C163.643436,32.9294077 163.233935,31.7922121 163.233935,30.3810722 L163.233935,30.3810722 Z M164.894091,30.3312675 C164.894091,31.388239 165.161097,32.2210757 165.695117,32.8298027 C166.229136,33.4385297 166.947147,33.7428886 167.849169,33.7428886 C168.778861,33.7428886 169.487188,33.4454469 169.974169,32.8505546 C170.461151,32.2556623 170.704638,31.4020739 170.704638,30.2897636 C170.704638,29.1719195 170.461151,28.3141807 169.974169,27.7165214 C169.487188,27.1188622 168.778861,26.8200371 167.849169,26.8200371 C166.936079,26.8200371 166.215302,27.1326967 165.686816,27.7580253 C165.15833,28.383354 164.894091,29.2410928 164.894091,30.3312675 L164.894091,30.3312675 Z M182.41704,34.8717949 L180.798388,34.8717949 L180.798388,29.6506035 C180.798388,27.7635498 180.10943,26.8200371 178.731494,26.8200371 C178.017623,26.8200371 177.43104,27.0856594 176.971728,27.6169121 C176.512416,28.1481647 176.282763,28.8205213 176.282763,29.6340019 L176.282763,34.8717949 L174.65581,34.8717949 L174.65581,25.6911308 L176.282763,25.6911308 L176.282763,27.2101738 L176.315966,27.2101738 C177.007701,26.0535925 178.012086,25.4753105 179.32915,25.4753105 C180.336316,25.4753105 181.102747,25.7976543 181.628466,26.4423515 C182.154185,27.0870487 182.41704,28.0264111 182.41704,29.2604667 L182.41704,34.8717949 Z M192.6104,30.6965019 L186.185595,30.6965019 C186.213265,31.675999 186.481654,32.432746 186.990771,32.9667656 C187.499888,33.5007852 188.210981,33.767791 189.124072,33.767791 C190.153374,33.767791 191.096886,33.4385299 191.954638,32.779998 L191.954638,34.2326347 C191.146691,34.8026245 190.075901,35.0876152 188.742236,35.0876152 C187.414104,35.0876152 186.3779,34.6670465 185.633593,33.8258964 C184.889286,32.9847464 184.517138,31.8171148 184.517138,30.3229667 C184.517138,28.9173608 184.925256,27.7580299 185.741503,26.8449394 C186.557751,25.9318489 187.57182,25.4753105 188.78374,25.4753105 C189.984592,25.4753105 190.922571,25.861293 191.597704,26.6332695 C192.272838,27.405246 192.6104,28.4857202 192.6104,29.8747246 L192.6104,30.6965019 Z M190.983447,29.3932792 C190.977913,28.563197 190.781463,27.9212763 190.394091,27.467498 C190.006719,27.0137197 189.46164,26.7868339 188.758837,26.7868339 C188.111373,26.7868339 187.551076,27.0275542 187.077929,27.5090019 C186.604782,27.9904496 186.307341,28.6185358 186.185595,29.3932792 L190.983447,29.3932792 Z M200.960986,22.0636894 C204.192773,22.0083506 206.97074,21.775931 209.29497,21.3664238 L209.743212,22.5949394 C206.611035,22.9491078 204.071022,23.1427908 202.123095,23.1759941 L202.123095,25.9152519 L209.128954,25.9152519 L209.128954,26.9113457 C208.686244,29.5676089 207.839573,31.6981215 206.588915,33.3029472 C207.396862,34.1496311 208.575561,34.924363 210.125048,35.627166 C209.726609,36.0809443 209.389047,36.4904454 209.112353,36.8556816 C207.679078,35.9813283 206.569551,35.1125218 205.78374,34.2492363 C204.870649,35.1955301 203.61171,36.1307421 202.006884,37.0549003 C201.774461,36.6675286 201.503305,36.2746289 201.193408,35.8761894 C202.859106,35.0682427 204.142947,34.2077369 205.04497,33.2946464 C203.943728,31.7506934 203.232634,29.6561505 202.911669,27.010955 L202.123095,27.010955 L202.123095,29.5509941 C202.123095,32.6278324 201.409235,35.1346433 199.981494,37.0715019 C199.715867,36.6841302 199.439177,36.329967 199.151415,36.0090019 C199.859752,34.8911578 200.341193,33.812067 200.595751,32.7716972 C200.839242,31.7645307 200.960986,30.3976824 200.960986,28.6711113 L200.960986,22.0636894 Z M198.902392,36.83908 L197.740283,36.83908 L197.740283,30.5470878 L195.90581,30.5470878 C195.850471,33.1978172 195.388399,35.3726002 194.519579,37.0715019 C194.276089,36.7616045 193.955128,36.4406442 193.556689,36.1086113 C194.353568,34.7251408 194.752001,32.6222973 194.752001,29.8000175 L194.752001,21.3166191 L195.914111,21.3166191 L195.914111,25.8488457 L197.640673,25.8488457 L197.640673,20.8849785 L198.802783,20.8849785 L198.802783,25.8488457 L200.197314,25.8488457 L200.197314,26.8781425 L195.914111,26.8781425 L195.914111,29.517791 L198.902392,29.517791 L198.902392,36.83908 Z M207.867236,27.010955 L204.073779,27.010955 C204.350473,29.1802367 204.942589,30.959353 205.850146,32.3483574 C206.813041,31.0312935 207.485398,29.2521772 207.867236,27.010955 L207.867236,27.010955 Z" id="下载iPhone版" fill="#FFFFFF"></path>
                    <path d="M83.3321883,39.0334668 C82.1135713,39.0334668 80.8620186,38.154815 79.5160927,38.154815 C77.9763536,38.154815 76.6937654,39.1282051 75.6037239,39.1282051 C74.0969203,39.1282051 72.7497277,37.8414974 71.6596861,35.8643762 C70.1522492,33.1646428 69.4783362,30.0568535 69.4783362,28.0487721 C69.4783362,24.2505693 72.7820299,21.3316374 76.1167591,21.3316374 C77.719836,21.3316374 78.3297779,22.5551863 79.8049126,22.5551863 C81.6651404,22.5551863 82.7862175,21.2684785 84.1334101,21.2684785 C86.057609,21.2684785 87.3085283,22.3985275 88.2383255,23.5285764 L88.1743545,23.5601558 C86.7625574,24.5329267 85.9936379,26.0394522 85.9936379,27.7664146 C85.9936379,29.9001947 87.0203418,31.3751407 88.9122385,32.3801103 L88.9122385,32.5367691 C88.9122385,32.630269 88.9445407,32.7250074 88.9445407,32.850706 C88.9445407,35.3300023 86.2501556,39.0334668 83.3321883,39.0334668 L83.3321883,39.0334668 Z M79.7377746,22.1483687 L79.7377746,22.0226701 C79.674437,21.6783922 79.6415014,21.3644553 79.6415014,21.1130581 C79.6415014,18.4455234 81.6296713,16.7495213 83.8426901,16.1538462 L83.8749923,16.2795447 C83.9066612,16.5928624 83.9389634,16.8758391 83.9389634,17.0956568 C83.9389634,19.8895092 81.9184912,21.4895347 79.7377746,22.1483687 L79.7377746,22.1483687 Z" id="ios" fill="#FFFFFF"></path>
                </g>
            </g>
        </g>
    </g>
</svg>