<?xml version="1.0" encoding="UTF-8" standalone="no"?>
<svg width="74px" height="73px" viewBox="0 0 74 73" version="1.1" xmlns="http://www.w3.org/2000/svg" xmlns:xlink="http://www.w3.org/1999/xlink" xmlns:sketch="http://www.bohemiancoding.com/sketch/ns">
    <!-- Generator: Sketch 3.4 (15575) - http://www.bohemiancoding.com/sketch -->
    <title>ecomytype</title>
    <desc>Created with Sketch.</desc>
    <defs></defs>
    <g id="Page-1" stroke="none" stroke-width="1" fill="none" fill-rule="evenodd" sketch:type="MSPage">
        <g id="2" sketch:type="MSArtboardGroup" transform="translate(-56.000000, -322.000000)">
            <g id="ecomytype" sketch:type="MSLayerGroup" transform="translate(56.000000, 322.000000)">
                <path d="M58.4736186,64.9442557 C52.4773432,69.4033887 45.0468062,72.0419513 37,72.0419513 C17.1061645,72.0419513 0.979024346,55.9148112 0.979024346,36.0209757 C0.979024346,16.1271401 17.1061645,0 37,0 C56.8938355,0 73.0209757,16.1271401 73.0209757,36.0209757 C73.0209757,45.0208844 69.7203481,53.2498903 64.2635324,59.5635538 L69.0708742,73 L58.4736186,64.9442557 Z" id="Oval-1-Copy-2" fill="#FFFFFF" sketch:type="MSShapeGroup" transform="translate(37.000000, 36.500000) scale(-1, 1) translate(-37.000000, -36.500000) "></path>
                <path d="M20.0859375,22.3847656 L21.7265625,22.3164062 C22.2083357,21.5546837 22.7031225,20.7311242 23.2109375,19.8457031 L25.5546875,21.0175781 C23.5755109,23.856134 22.0130266,25.9785086 20.8671875,27.3847656 C22.1692773,27.2936193 23.236975,27.2024744 24.0703125,27.1113281 C23.9661453,28.0358119 23.9140625,28.8300748 23.9140625,29.4941406 C21.153632,29.6764332 19.1940162,29.8782541 18.0351562,30.0996094 L17.4296875,27.8535156 C18.2890668,27.0462199 19.2135367,25.955736 20.203125,24.5820312 C19.3307248,24.6471357 18.5950551,24.7285151 17.9960938,24.8261719 L17.0976562,22.5996094 C18.3085998,21.1412688 19.5065045,19.0188941 20.6914062,16.2324219 L23.2695312,17.1503906 C22.1887967,19.155609 21.1276094,20.9003832 20.0859375,22.3847656 L20.0859375,22.3847656 Z M35.0273438,17.2285156 L35.0273438,19.3964844 C34.3567675,20.3274786 33.6113322,21.1901002 32.7910156,21.984375 C34.1256577,22.6549513 35.4570246,23.3483037 36.7851562,24.0644531 L35.2226562,26.2910156 C33.6861902,25.3014273 32.2278715,24.4160195 30.8476562,23.6347656 C29.1940021,24.8652405 27.3060002,25.8808554 25.1835938,26.6816406 C24.7408832,25.8222613 24.2916689,25.0345088 23.8359375,24.3183594 C27.2213711,23.1464785 29.8841049,21.5644631 31.8242188,19.5722656 L25.1054688,19.5722656 L25.1054688,17.2285156 L35.0273438,17.2285156 Z M25.1640625,26.8769531 L35.75,26.8769531 L35.75,29.2207031 L31.8632812,29.2207031 L31.8632812,32.7167969 L36.5703125,32.7167969 L36.5703125,35.0605469 L24.1484375,35.0605469 L24.1484375,33.625 C21.8697803,33.8463553 19.7148539,34.1230452 17.6835938,34.4550781 L17.2734375,31.7207031 C19.3958439,31.5644523 21.7460809,31.2910176 24.3242188,30.9003906 C24.2786456,31.4667997 24.2526042,32.0722624 24.2460938,32.7167969 L29.0703125,32.7167969 L29.0703125,29.2207031 L25.1640625,29.2207031 L25.1640625,26.8769531 Z M42.7421875,18.3027344 L48.0644531,18.3027344 C47.9147128,17.7949193 47.7552092,17.2740912 47.5859375,16.7402344 L50.359375,16.2128906 C50.5872407,16.9225296 50.7825513,17.6191372 50.9453125,18.3027344 L56.3164062,18.3027344 L56.3164062,20.6855469 L54.9394531,20.6855469 C54.0345007,22.1178457 52.9798237,23.3255159 51.7753906,24.3085938 C53.1881581,24.7968774 54.8450426,25.1647123 56.7460938,25.4121094 C56.2903623,26.3235723 55.932293,27.2154904 55.671875,28.0878906 C53.0091013,27.5605442 50.818368,26.8802125 49.0996094,26.046875 C47.4459553,26.8737021 45.4244911,27.5735648 43.0351562,28.1464844 C42.553383,26.9876244 42.1432309,26.1738305 41.8046875,25.7050781 C43.595061,25.3274721 45.1608006,24.8912785 46.5019531,24.3964844 C45.5123648,23.5631469 44.6497433,22.5605527 43.9140625,21.3886719 L45.0664062,20.6855469 L42.7421875,20.6855469 L42.7421875,18.3027344 Z M49.1972656,23.1367188 C50.2519584,22.4856738 51.1373662,21.6686247 51.8535156,20.6855469 L46.3847656,20.6855469 C47.2050822,21.6816456 48.1425729,22.4986947 49.1972656,23.1367188 L49.1972656,23.1367188 Z M39.2070312,16.5058594 C40.3138076,17.3001342 41.4400984,18.1660109 42.5859375,19.1035156 L40.9257812,21.0175781 C40.0533811,20.1842406 38.959642,19.2727914 37.6445312,18.2832031 L39.2070312,16.5058594 Z M38.9140625,21.6425781 C40.0989643,22.5149783 41.2317654,23.4199172 42.3125,24.3574219 L40.59375,26.3300781 C39.7734334,25.5227824 38.6601633,24.5722711 37.2539062,23.4785156 L38.9140625,21.6425781 Z M39.7539062,26.9550781 C40.430993,27.3066424 41.283849,27.6451807 42.3125,27.9707031 C41.3229117,31.0826979 40.5937523,33.5501211 40.125,35.3730469 C39.1874953,35.0214826 38.3020875,34.7154961 37.46875,34.4550781 C38.3281293,32.1634 39.0898404,29.663425 39.7539062,26.9550781 L39.7539062,26.9550781 Z M45.203125,27.7949219 L47.8007812,27.7949219 C47.8007812,30.1712358 47.4850292,31.8818307 46.8535156,32.9267578 C46.2220021,33.9716849 45.0859457,34.9042928 43.4453125,35.7246094 C42.7812467,34.8522092 42.1497426,34.1230498 41.5507812,33.5371094 C43.2369876,32.7623659 44.2672507,31.9990272 44.6416016,31.2470703 C45.0159524,30.4951134 45.203125,29.3444088 45.203125,27.7949219 L45.203125,27.7949219 Z M50.8476562,27.7949219 L53.4257812,27.7949219 L53.4257812,35.3925781 L50.8476562,35.3925781 L50.8476562,27.7949219 Z M20.046875,42.6230469 C20.7630244,43.5865934 21.6289012,44.8170498 22.6445312,46.3144531 L20.3789062,47.7207031 C19.6236941,46.4706969 18.7903691,45.1881576 17.8789062,43.8730469 L20.046875,42.6230469 Z M24.03125,51.0800781 L28.3867188,51.0800781 L28.3867188,49.4003906 L22.859375,49.4003906 L22.859375,47.1347656 L28.3867188,47.1347656 L28.3867188,45.5332031 L23.6601562,45.7285156 C23.56901,45.0123662 23.4518236,44.2701861 23.3085938,43.5019531 C28.0872635,43.384765 32.0846193,43.1959648 35.3007812,42.9355469 L35.6328125,45.1425781 L30.984375,45.40625 L30.984375,47.1347656 L36.53125,47.1347656 L36.53125,49.4003906 L30.984375,49.4003906 L30.984375,51.0800781 L35.2617188,51.0800781 L35.2617188,57.5839844 L24.03125,57.5839844 L24.03125,51.0800781 Z M32.703125,55.3964844 L32.703125,53.2675781 L26.5898438,53.2675781 L26.5898438,55.3964844 L32.703125,55.3964844 Z M36.6875,58.5996094 C36.3359357,59.6282604 36.0559906,60.4941371 35.8476562,61.1972656 C31.3879985,61.2298179 28.0677192,61.2102868 25.8867188,61.1386719 C23.7057183,61.0670569 22.0325579,60.4615942 20.8671875,59.3222656 C19.9817664,60.1946658 19.2265656,60.975908 18.6015625,61.6660156 L17.4882812,58.6582031 L19.4414062,56.9980469 L19.4414062,52.0566406 L17.625,52.0566406 L17.625,49.5761719 L22,49.5761719 L22,57.0078125 C22.9765674,58.1080784 24.4609275,58.6582031 26.453125,58.6582031 L30.1054688,58.7265625 C32.0000095,58.7265625 34.1939979,58.6842452 36.6875,58.5996094 L36.6875,58.5996094 Z M55.515625,58.5800781 C55.515625,59.4069052 55.3268248,60.0465472 54.9492188,60.4990234 C54.5716127,60.9514997 53.993819,61.2184241 53.2158203,61.2998047 C52.4378216,61.3811853 51.4140688,61.4121095 50.1445312,61.3925781 C49.923176,60.3899689 49.6627619,59.445968 49.3632812,58.5605469 C50.7044338,58.6386723 51.4335932,58.6777344 51.5507812,58.6777344 C52.3710979,58.6777344 52.78125,58.2806029 52.78125,57.4863281 L52.78125,55.7089844 L48.71875,55.7089844 L48.71875,61.1777344 L45.9648438,61.1777344 L45.9648438,55.7089844 L41.7363281,55.7089844 C41.5345042,58.5800925 40.9843795,60.5852808 40.0859375,61.7246094 C39.2526,61.125648 38.4127646,60.5787785 37.5664062,60.0839844 C38.621099,58.6516855 39.1289064,56.1061381 39.0898438,52.4472656 L39.0898438,43.2480469 L55.515625,43.2480469 L55.515625,58.5800781 Z M41.8242188,48.2480469 L45.9648438,48.2480469 L45.9648438,45.8261719 L41.8242188,45.8261719 L41.8242188,48.2480469 Z M52.78125,45.8261719 L48.71875,45.8261719 L48.71875,48.2480469 L52.78125,48.2480469 L52.78125,45.8261719 Z M41.8242188,53.1894531 L45.9648438,53.1894531 L45.9648438,50.7675781 L41.8242188,50.7675781 L41.8242188,53.1894531 Z M48.71875,53.1894531 L52.78125,53.1894531 L52.78125,50.7675781 L48.71875,50.7675781 L48.71875,53.1894531 Z" id="经济适用" fill="#9B9B9B" sketch:type="MSShapeGroup"></path>
            </g>
        </g>
    </g>
</svg>