<?xml version="1.0" encoding="UTF-8" standalone="no"?>
<svg width="253px" height="115px" viewBox="0 0 253 115" version="1.1" xmlns="http://www.w3.org/2000/svg" xmlns:xlink="http://www.w3.org/1999/xlink" xmlns:sketch="http://www.bohemiancoding.com/sketch/ns">
    <!-- Generator: Sketch 3.4 (15575) - http://www.bohemiancoding.com/sketch -->
    <title>shadow + EVcar</title>
    <desc>Created with Sketch.</desc>
    <defs>
        <filter x="-50%" y="-50%" width="200%" height="200%" filterUnits="objectBoundingBox" id="filter-1">
            <feOffset dx="1" dy="0" in="SourceAlpha" result="shadowOffsetInner1"></feOffset>
            <feGaussianBlur stdDeviation="0.5" in="shadowOffsetInner1" result="shadowBlurInner1"></feGaussianBlur>
            <feComposite in="shadowBlurInner1" in2="SourceAlpha" operator="arithmetic" k2="-1" k3="1" result="shadowInnerInner1"></feComposite>
            <feColorMatrix values="0 0 0 0 0   0 0 0 0 0   0 0 0 0 0  0 0 0 0.35 0" in="shadowInnerInner1" type="matrix" result="shadowMatrixInner1"></feColorMatrix>
            <feMerge>
                <feMergeNode in="SourceGraphic"></feMergeNode>
                <feMergeNode in="shadowMatrixInner1"></feMergeNode>
            </feMerge>
        </filter>
        <filter x="-50%" y="-50%" width="200%" height="200%" filterUnits="objectBoundingBox" id="filter-2">
            <feOffset dx="2" dy="0" in="SourceAlpha" result="shadowOffsetInner1"></feOffset>
            <feGaussianBlur stdDeviation="1" in="shadowOffsetInner1" result="shadowBlurInner1"></feGaussianBlur>
            <feComposite in="shadowBlurInner1" in2="SourceAlpha" operator="arithmetic" k2="-1" k3="1" result="shadowInnerInner1"></feComposite>
            <feColorMatrix values="0 0 0 0 0   0 0 0 0 0   0 0 0 0 0  0 0 0 0.35 0" in="shadowInnerInner1" type="matrix" result="shadowMatrixInner1"></feColorMatrix>
            <feMerge>
                <feMergeNode in="SourceGraphic"></feMergeNode>
                <feMergeNode in="shadowMatrixInner1"></feMergeNode>
            </feMerge>
        </filter>
        <filter x="-50%" y="-50%" width="200%" height="200%" filterUnits="objectBoundingBox" id="filter-3">
            <feOffset dx="2" dy="0" in="SourceAlpha" result="shadowOffsetInner1"></feOffset>
            <feGaussianBlur stdDeviation="1" in="shadowOffsetInner1" result="shadowBlurInner1"></feGaussianBlur>
            <feComposite in="shadowBlurInner1" in2="SourceAlpha" operator="arithmetic" k2="-1" k3="1" result="shadowInnerInner1"></feComposite>
            <feColorMatrix values="0 0 0 0 0   0 0 0 0 0   0 0 0 0 0  0 0 0 0.35 0" in="shadowInnerInner1" type="matrix" result="shadowMatrixInner1"></feColorMatrix>
            <feMerge>
                <feMergeNode in="SourceGraphic"></feMergeNode>
                <feMergeNode in="shadowMatrixInner1"></feMergeNode>
            </feMerge>
        </filter>
        <linearGradient x1="50%" y1="0%" x2="40.9890819%" y2="89.2616059%" id="linearGradient-4">
            <stop stop-color="#F6F6F6" stop-opacity="0" offset="0%"></stop>
            <stop stop-color="#C2C2C2" offset="100%"></stop>
        </linearGradient>
        <linearGradient x1="29.7814248%" y1="117.172916%" x2="35.1693693%" y2="50%" id="linearGradient-5">
            <stop stop-color="#839FB6" offset="0%"></stop>
            <stop stop-color="#FFFFFF" offset="100%"></stop>
        </linearGradient>
        <path id="path-6" d="M0.370634216,0.327690754 L6.98627952,13.03421 L23.5735841,19.8594758 L28.5396632,17.8993222 L58.4285704,21.0547494 C58.4285704,21.0547494 50.1222775,12.4555961 43.0705402,8.41084731 C36.0188029,4.36609851 0.370634216,0.327690754 0.370634216,0.327690754 Z"></path>
        <rect id="path-8" x="0.376463344" y="0.747463705" width="9.96543184" height="5.61576355" rx="5.6"></rect>
        <linearGradient x1="40.5017718%" y1="140.173668%" x2="35.1693693%" y2="50%" id="linearGradient-10">
            <stop stop-color="#839FB6" offset="0%"></stop>
            <stop stop-color="#FFFFFF" offset="100%"></stop>
        </linearGradient>
        <path id="path-11" d="M3.34081602,0.857486396 L5.41652789,0.857486396 C6.6918415,1.04140722 8.31231655,2.05902476 8.1110093,3.21633096 C7.9092916,4.37599684 7.21776029,5.75941241 5.94025447,5.57517544 L2.34726309,5.05700805 C1.07194947,4.87308723 0.202038479,3.78153532 0.403345724,2.62422912 C0.605063425,1.46456324 2.0633102,0.673249424 3.34081602,0.857486396 Z"></path>
        <path id="path-13" d="M0.344842227,0.211561162 C0.344842227,0.211561162 3.1104285,12.9059517 4.57411893,14.1697528 C6.03780935,15.4335539 6.96671135,15.4672301 6.96671135,15.4672301 L9.52298364,13.6702865 C9.52298364,13.6702865 4.32784476,1.92715226 3.93787942,1.52795762 C3.54791409,1.12876297 0.344842227,0.211561162 0.344842227,0.211561162 Z"></path>
    </defs>
    <g id="Page-1" stroke="none" stroke-width="1" fill="none" fill-rule="evenodd" sketch:type="MSPage">
        <g id="4" sketch:type="MSArtboardGroup" transform="translate(-33.000000, -248.000000)">
            <g id="shadow-+-EVcar" sketch:type="MSLayerGroup" transform="translate(24.000000, 249.000000)">
                <g id="EVcar" transform="translate(9.000000, 0.000000)">
                    <path d="M141,93 L1.4456398,76.1823817 L8.6496355,39.9777937 L134.247337,51.5 L141,93 Z" id="Rectangle-246" fill="#686868" sketch:type="MSShapeGroup"></path>
                    <g id="wheel_back" transform="translate(3.348203, 57.280788)" sketch:type="MSShapeGroup">
                        <path d="M11.7097377,0.0112993578 C11.4899242,-0.000945816219 11.2688406,-0.00329180223 11.0466596,0.00452231925 C11.039505,0.00477394648 11.0323523,0.00503600355 11.0252015,0.00530848137 C10.9830719,0.0049130211 10.9609088,0.00469692543 10.9609088,0.00469692543 C10.9609088,0.00469692543 10.9602456,0.00584787486 10.9589324,0.00813419138 C4.54657201,0.310665256 -0.34435339,8.99731999 0.0190029818,19.4767693 C0.358543359,29.2693487 5.16655556,37.1779277 11.0320409,38.0512474 C11.0550882,38.1011356 11.0671167,38.1270149 11.0671167,38.1270149 C11.0671167,38.1270149 17.3094067,38.2624135 20.7921157,38.1270151 C26.6319641,37.8999776 31.0984125,29.1819557 30.7682073,18.6547682 C30.4380021,8.12758071 25.4361854,-0.222340614 19.596337,0.00469692546 C18.2154289,0.0583829062 13.5445537,0.0264365375 11.7097377,0.0112993577 Z" id="Oval-40" fill="#05050B"></path>
                        <ellipse id="Oval-40-Copy" fill="#DCE3EF" cx="11.4745575" cy="19.3743842" rx="8.11615044" ry="13.7586207"></ellipse>
                        <path d="M8.89565869,7.67259479 C8.89565869,7.67259479 9.88265289,6.96719431 10.3938908,6.81316949 C10.9484275,6.64609971 12.1606534,6.8131695 12.1606534,6.8131695 C12.1606534,6.8131695 12.2984796,16.0968636 10.8878197,16.0968632 C9.47715988,16.0968629 8.89565869,7.67259479 8.89565869,7.67259479 Z M17.7673366,11.0295911 C17.7673366,11.0295911 18.2288227,11.943947 18.4263083,12.4360302 C18.6168343,12.910772 18.9313717,13.930066 18.9313717,13.930066 C18.9313717,13.930066 13.7382729,18.479164 12.8505162,17.3828751 C11.9627595,16.2865863 17.7673366,11.0295911 17.7673366,11.0295911 Z M19.6115372,19.4291726 L19.4410419,22.5187173 C19.4410419,22.5187173 12.7557594,21.0626931 13.0730891,19.6881885 C13.3904189,18.3136838 19.6115372,19.4291726 19.6115372,19.4291726 Z M17.4711342,28.1072202 C17.4711342,28.1072202 17.0390132,29.3408811 16.6470356,29.7034296 C16.2218599,30.0966838 15.2473245,30.881676 15.2473245,30.881676 C15.2473245,30.881676 11.2016578,22.8936414 12.4695507,22.2752491 C13.7374435,21.6568568 17.4711342,28.1072202 17.4711342,28.1072202 Z M8.26388963,30.7149815 C8.26388963,30.7149815 7.46157739,30.154887 7.12607015,29.7592452 C6.74235194,29.3067514 6.1062133,28.170575 6.1062133,28.170575 C6.1062133,28.170575 8.95863982,21.7320519 10.2265324,22.3504448 C11.4944249,22.9688377 8.26388963,30.7149815 8.26388963,30.7149815 Z M4.53619847,23.2109878 C4.53619847,23.2109878 4.29244731,22.804239 4.07581337,21.8658943 C3.85917944,20.9275497 3.90637888,19.7083923 3.90637888,19.7083923 C3.90637888,19.7083923 8.70154648,18.3606498 9.01887573,19.7351545 C9.33620498,21.1096593 4.53619847,23.2109878 4.53619847,23.2109878 Z M4.28855131,15.4672286 C4.28855131,15.4672286 4.49562688,14.526553 4.65270724,13.8592958 C4.80978761,13.1920386 5.08879596,12.3458034 5.08879596,12.3458034 C5.08879596,12.3458034 9.81870399,16.3937356 8.93094678,17.490024 C8.04318958,18.5863125 4.28855131,15.4672286 4.28855131,15.4672286 Z M11,21 C11.5522847,21 12,20.5522847 12,20 C12,19.4477153 11.5522847,19 11,19 C10.4477153,19 10,19.4477153 10,20 C10,20.5522847 10.4477153,21 11,21 Z" id="Path-271" fill="#5E5E5E" filter="url(#filter-1)"></path>
                    </g>
                    <g id="wheel_front" transform="translate(92.915929, 60.088670)" sketch:type="MSShapeGroup">
                        <path d="M17.0148268,0.0227104129 C16.7243121,0.00828367719 16.4322421,0.00606030633 16.1388165,0.0163406735 C7.02495313,0.335651059 0.0544640114,12.596861 0.56979328,27.4025196 C1.06954733,41.7606948 8.42593098,53.2390195 17.1823709,53.6285169 C17.1837764,53.631245 17.1844849,53.6326187 17.1844849,53.6326187 C17.1844849,53.6326187 26.9264121,53.8230461 32.3616446,53.632619 C41.4755079,53.3133086 48.445997,41.0520986 47.9306678,26.24644 C47.4153385,11.4407814 39.6093356,-0.302724142 30.4954722,0.0165862434 C27.7932643,0.111259931 17.0187333,0.0165862434 17.0187333,0.0165862434 C17.0187333,0.0165862434 17.0174213,0.0186380555 17.0148268,0.0227104048 Z" id="Oval-40" fill="#05050B"></path>
                        <ellipse id="Oval-40-Copy" fill="#DCE3EF" cx="17.3794175" cy="27.2362076" rx="11.5856308" ry="19.3743842"></ellipse>
                        <path d="M13.3124403,10.6969386 C13.3124403,10.6969386 14.7167988,9.69739599 15.4442208,9.47914496 C16.2332511,9.2424094 17.9580836,9.47914497 17.9580836,9.47914497 C17.9580836,9.47914497 18.1541916,22.6340102 16.1470145,22.6340097 C14.1398374,22.6340092 13.3124403,10.6969386 13.3124403,10.6969386 Z M25.9194482,15.4476942 C25.9194482,15.4476942 26.5770704,16.7478965 26.8587791,17.4474861 C27.1305601,18.1224217 27.5799175,19.5712698 27.5799175,19.5712698 C27.5799175,19.5712698 20.2223574,26.0184988 18.9592003,24.4586289 C17.6960432,22.898759 25.9194482,15.4476942 25.9194482,15.4476942 Z M28.5431268,27.3442098 L28.2975063,31.7395124 C28.2975063,31.7395124 18.8244414,29.6768341 19.2759585,27.721101 C19.7274756,25.7653678 28.5431268,27.3442098 28.5431268,27.3442098 Z M25.5076326,39.6481963 C25.5076326,39.6481963 24.8904142,41.3986708 24.3322865,41.9137144 C23.7268888,42.472379 22.3395402,43.5878456 22.3395402,43.5878456 C22.3395402,43.5878456 16.6061764,32.2692583 18.4102155,31.3893702 C20.2142545,30.5094821 25.5076326,39.6481963 25.5076326,39.6481963 Z M12.4232143,43.352341 C12.4232143,43.352341 11.2812422,42.556204 10.8033237,41.9943613 C10.2567304,41.3517841 9.3496789,39.7390812 9.3496789,39.7390812 C9.3496789,39.7390812 13.3901607,30.6151172 15.1941993,31.4950062 C16.998238,32.3748951 12.4232143,43.352341 12.4232143,43.352341 Z M7.12292841,32.7235653 C7.12292841,32.7235653 6.77693987,32.144624 6.46869925,30.8094872 C6.16045862,29.4743504 6.22578291,27.7400787 6.22578291,27.7400787 C6.22578291,27.7400787 13.0201585,25.8290031 13.4716749,27.7847365 C13.9231912,29.7404698 7.12292841,32.7235653 7.12292841,32.7235653 Z M6.76432982,21.7501816 C6.76432982,21.7501816 7.06093927,20.4133227 7.28580381,19.4650082 C7.51066835,18.5166937 7.90910151,17.3137839 7.90910151,17.3137839 C7.90910151,17.3137839 14.6106894,23.0504204 13.3475316,24.6102898 C12.0843739,26.1701591 6.76432982,21.7501816 6.76432982,21.7501816 Z" id="Path-271" fill="#5E5E5E" filter="url(#filter-2)"></path>
                        <ellipse id="Oval-46" fill="#313131" cx="16.5121681" cy="27.2364532" rx="0.83960177" ry="1.96551724"></ellipse>
                    </g>
                    <g id="wheel_front-copy" transform="translate(198.705752, 55.034483)" sketch:type="MSShapeGroup">
                        <path d="M15.2342054,0.0203447449 C14.9740934,0.00742079415 14.7125889,0.00542902442 14.4498706,0.0146385201 C6.28978361,0.300687407 0.0487642893,11.284688 0.510163751,24.5480905 C0.95761796,37.4106224 7.5441475,47.6932883 15.3842158,48.042213 C15.3854742,48.044657 15.3861086,48.0458876 15.3861086,48.0458876 C15.3861086,48.0458876 24.1085317,48.2164788 28.9749608,48.0458879 C37.1350478,47.759839 43.3760671,36.7758384 42.9146676,23.5124359 C42.4532682,10.2490333 35.4641725,-0.271190378 27.3040856,0.0148585097 C24.8846669,0.0996703546 15.237703,0.0148585097 15.237703,0.0148585097 C15.237703,0.0148585097 15.2365284,0.0166965914 15.2342054,0.0203447376 Z" id="Oval-40" fill="#05050B"></path>
                        <ellipse id="Oval-40-Copy" fill="#DCE3EF" cx="15.5606413" cy="24.3991027" rx="10.373181" ry="17.3562192"></ellipse>
                        <path d="M11.9192779,9.58267419 C11.9192779,9.58267419 13.1766687,8.68725057 13.8279652,8.49173403 C14.5344225,8.27965842 16.0787493,8.49173404 16.0787493,8.49173404 C16.0787493,8.49173404 16.2543343,20.2763008 14.4572106,20.2763003 C12.660087,20.2762999 11.9192779,9.58267419 11.9192779,9.58267419 Z M23.208838,13.8392703 C23.208838,13.8392703 23.7975235,15.0034985 24.0496677,15.6299428 C24.2929262,16.2343107 24.695046,17.5317067 24.695046,17.5317067 C24.695046,17.5317067 18.1037824,23.3072062 16.9728162,21.9105785 C15.84185,20.5139508 23.208838,13.8392703 23.208838,13.8392703 Z M25.5579885,24.4972193 L25.3384263,28.43263 C25.3384263,28.43263 16.8521522,26.5847569 17.2564175,24.8336935 C17.6606828,23.08263 25.5579885,24.4972193 25.5579885,24.4972193 Z M22.8389934,35.5186827 C22.8389934,35.5186827 22.2866443,37.0865353 21.7869717,37.547774 C21.2449799,38.0480768 20.0029027,39.0469803 20.0029027,39.0469803 C20.0029027,39.0469803 14.8668476,28.9073719 16.4820918,28.1195651 C18.0973361,27.3317584 22.8389934,35.5186827 22.8389934,35.5186827 Z M11.1219781,38.8359255 C11.1219781,38.8359255 10.0995604,38.1230116 9.67171936,37.6198376 C9.18239943,37.0443597 8.37049531,35.5999701 8.37049531,35.5999701 C8.37049531,35.5999701 11.9902539,27.4264971 13.6054978,28.2143047 C15.2207417,29.0021122 11.1219781,38.8359255 11.1219781,38.8359255 Z M6.37593976,29.313812 C6.37593976,29.313812 6.06606166,28.7954802 5.79007877,27.600067 C5.51409589,26.4046539 5.57279813,24.8518262 5.57279813,24.8518262 C5.57279813,24.8518262 11.6594626,23.1399785 12.0637273,24.8910421 C12.4679919,26.6421057 6.37593976,29.313812 6.37593976,29.313812 Z M6.05559662,19.4835578 C6.05559662,19.4835578 6.32093556,18.2864164 6.52210886,17.4372155 C6.72328215,16.5880145 7.07985037,15.5108543 7.07985037,15.5108543 C7.07985037,15.5108543 13.0834296,20.6498338 11.9524628,22.046461 C10.8214959,23.4430882 6.05559662,19.4835578 6.05559662,19.4835578 Z" id="Path-271" fill="#5E5E5E" filter="url(#filter-3)"></path>
                    </g>
                    <path d="M27.9791584,84.6984796 C46.6252567,87.635718 71.9475875,91.1830967 93.7487092,94.1436428 C93.6576037,93.7330812 93.5714944,93.3194251 93.4905115,92.9028044 C90.1220022,75.573326 96.8987591,59.6769425 108.626822,57.397238 C120.354884,55.1175336 132.593074,67.3177859 135.961583,84.6472643 C136.992319,89.9499411 137.073145,95.1184359 136.352868,99.8036854 C138.374914,100.066188 139.485444,100.209119 139.485444,100.209119 L202.809284,97.9878854 L245.773,93.6276865 L250.042256,91.3037011 C250.042256,91.3037011 252.333121,79.0502224 252.333122,70.81071 C252.333123,62.5711977 244.157638,48.6913121 244.157638,48.6913121 L200.337862,32.9830785 C200.337862,32.9830785 171.564677,14.6572316 150.568578,8.14770759 C129.572478,1.6381836 78.1578873,0.206429694 78.1578873,0.206429694 C78.1578873,0.206429694 53.2083981,2.71659352 44.1012544,5.34435371 C35.5328911,7.81665508 22.3298613,14.3707879 22.3298613,14.3707879 L5.34805819,38.9787634 L4.47559858,47.9755813 L0.549530315,56.6976245 L0.986313554,76.1827336 C0.986313554,76.1827336 1.68468404,76.4838256 2.84719839,76.9680994 C1.68554779,66.6927715 5.53510873,57.8354563 11.9159938,56.7103341 C18.7218714,55.5102743 25.8302475,63.5611364 27.7929963,74.6924379 C28.4156172,78.2234968 28.4456531,81.6403674 27.9791584,84.6984796 Z" id="carbody" stroke="#979797" stroke-width="0.56" fill="#FFFFFF" sketch:type="MSShapeGroup"></path>
                    <path d="M31.4870179,81.3533081 L91.0841691,89.9661631 C91.0841691,89.9661631 91.0320878,72.6032378 92.2821632,63.9842255 C92.9209052,59.5802308 98.1996896,51.2434735 100.025121,46.2820894 C101.139361,43.2536709 98.4919105,41.5000002 98.4919105,41.5000002 C98.4919105,41.5000002 60.8559566,37.0941393 47.8781729,34.9276453 C34.9003892,32.7611513 12.4209343,34.9276453 12.4209343,34.9276453 C12.4209343,34.9276453 8.64059381,44.8832815 21.8491693,58.8864879 C35.0577448,72.8896942 31.4870179,81.3533081 31.4870179,81.3533081 Z" id="Path" fill="url(#linearGradient-4)" sketch:type="MSShapeGroup"></path>
                    <path d="M26.3075221,63.4581281 L30.4165448,70.1143525 L95.1632509,73.7007367 L26.3075221,63.4581281 Z" id="Path-259" fill="#CACACA" sketch:type="MSShapeGroup"></path>
                    <path d="M51.0952975,51.5454507 C38.4801296,49.9374151 12.6308749,48.7174251 12.6308749,48.7174251 L92.7682575,61.9110639 L94.6591923,58.5434989 C94.6591923,58.5434989 64.3849897,53.2394667 51.0952975,51.5454507 Z" id="Path-259-Copy" fill="#CACACA" sketch:type="MSShapeGroup"></path>
                    <path d="M196.590767,67.393378 L200.358812,63.0569534 C200.358812,63.0569534 189.811816,53.7838525 183.964303,50.1709028 C178.116791,46.557953 177.279856,46.4232933 177.279856,46.4232933 L113.828887,32.9830633 C113.828887,32.9830633 110.921632,32.7483112 108.850834,30.9950429 C106.780036,29.2417745 83.3682672,5.06232039 77.6566192,2.57077426 C71.9449711,0.079228125 30.7266396,10.9514333 30.7266396,10.9514333 L19.0992925,30.880523 C19.0992925,30.880523 30.567317,30.4108669 46.7978047,31.2628398 C63.0282924,32.1148128 99.5791278,37.148377 99.5791278,37.148377 C99.5791278,37.148377 121.581404,37.3189362 127.00991,38.8201893 C132.438417,40.3214424 174.453067,47.069664 174.453067,47.069664 L197.077037,62.2593431 L196.590767,67.393378 Z" id="Path-278" opacity="0.595090951" fill="#E8E8E8" sketch:type="MSShapeGroup"></path>
                    <g id="besidewindows" transform="translate(13.993363, 4.492611)" sketch:type="MSShapeGroup">
                        <path d="M34.5374522,27.0036219 C22.8736669,26.2573825 0.818863325,27.0036219 0.818863325,27.0036219 C0.818863325,27.0036219 0.129961537,26.7414991 0.519862435,25.3675929 C0.909763332,23.9936868 6.52250395,15.6300515 10.4499277,11.3296092 C11.9343995,9.70414535 16.7555491,7.58987443 16.7555491,7.58987443 C16.7555491,7.58987443 25.6874943,3.81150206 33.5655041,2.34198617 C41.4435139,0.872470278 55.0027165,-0.410756732 59.8469138,1.66170867 C64.4655113,3.63765702 71.8889886,12.3217314 71.8889886,12.3217314 C71.8889886,12.3217314 82.2435284,21.7341687 85.9079506,27.0036219 C86.9165157,28.4539423 85.9079506,32.4810522 85.9079506,32.4810522 C85.9079506,32.4810522 51.4112389,28.0831929 34.5374522,27.0036219 Z" id="beside" stroke="#979797" stroke-width="0.56" fill="#303235"></path>
                        <path d="M11.9880319,13.1327161 C10.3235519,17.0764157 5.82017517,24.0855051 5.82017517,24.0855051 L23.9053479,24.0855047 L28.8760678,6.75024239 L16.7670702,10.0607331 C16.7670702,10.0607331 12.3371306,12.3055865 11.9880319,13.1327161 Z" id="Path-303" fill="#424242"></path>
                        <path d="M28.499559,23.8305308 L32.5564032,5.44712721 C32.5564032,5.44712721 40.0800627,4.17939698 45.0557838,3.5310819 C50.0315049,2.88276683 53.2789946,3.12397344 57.4575134,4.72616885 C61.6360322,6.32836425 83.3884859,26.2697347 83.3884861,27.4134501 C83.3884863,28.5571656 83.5928873,30.4077986 83.5928873,30.4077986 C83.5928873,30.4077986 46.422483,25.4006557 40.5988497,24.9245589 C34.7752163,24.448462 28.499559,23.8305308 28.499559,23.8305308 Z" id="Path-304" fill="#424242"></path>
                    </g>
                    <path d="M69.3164796,26.0472891 C71.0369769,23.2004048 72.1251994,21.7633814 80.9477333,20.8586482 C89.7702671,19.953915 92.2585256,26.9906269 92.2585256,26.9906269 L95.3161189,26.9906269 L94.6867272,29.402718 C94.6867272,29.402718 89.8260884,29.6921882 86.824136,30.8656862 C85.6477995,31.3255298 84.9407661,33.5588027 84.9407661,33.5588027 L71.1614139,32.9297499 C71.1614139,32.9297499 67.5959823,28.8941733 69.3164796,26.0472891 Z" id="Rectangle-96" fill="url(#linearGradient-5)" sketch:type="MSShapeGroup"></path>
                    <g id="frontwindows" transform="translate(81.721239, 2.246305)" sketch:type="MSShapeGroup">
                        <path d="M0.125123889,0.269121656 C0.125123889,0.269121656 35.8868386,1.10362529 43.9834564,2.15350761 C52.0800741,3.20338992 70.125301,7.34960769 70.125301,7.34960769 L114.192638,29.4241478 C114.192638,29.4241478 92.5872492,27.4139463 83.9741448,27.4139465 C75.3610404,27.4139468 40.4785595,28.9265732 34.0298877,27.4352712 C27.5812159,25.9439691 0.125123889,0.269121656 0.125123889,0.269121656 Z" id="front" stroke="#979797" stroke-width="0.56" fill="#313235"></path>
                        <path d="M22.0552731,14.1099182 L22.2121066,15.9626204 C22.2121066,15.9626204 30.2106133,16.4932316 31.9068917,18.2063303 C33.60317,19.919429 33.4463361,22.7807064 33.4463361,22.7807064 L45.2265347,24.558283 C45.2265347,24.558283 44.1593576,17.3639778 40.9926194,14.1099182 C37.8258812,10.8558587 36.1077879,10.8558587 36.1077879,10.8558587 L22.0552731,14.1099182 Z" id="Path-247" fill="#424242"></path>
                        <path d="M51.7481279,10.0394918 L51.6067053,11.9261744 L56.6458144,23.3620206 L93.927672,26.6734499 C93.927672,26.6734499 94.8394768,25.3217809 93.5406208,23.8351582 C92.2417647,22.3485354 79.4956585,15.7470135 76.9293184,14.4017452 C74.3629782,13.0564769 55.9397649,9.05214394 55.9397649,9.05214394 L51.7481279,10.0394918 Z" id="Path-248" fill="#424242"></path>
                    </g>
                    <g id="carlight" transform="translate(133.216814, 42.118227)">
                        <mask id="mask-7" sketch:name="Mask" fill="white">
                            <use xlink:href="#path-6"></use>
                        </mask>
                        <use id="Mask" fill="#989898" sketch:type="MSShapeGroup" xlink:href="#path-6"></use>
                        <ellipse id="Oval-44" fill="#FFFFFF" sketch:type="MSShapeGroup" mask="url(#mask-7)" cx="29.3860619" cy="11.2315271" rx="9.23561947" ry="4.49261084">
                            <g transform="translate(29.386062, 11.231527) rotate(21.000000) translate(-29.386062, -11.231527) "></g>
                        </ellipse>
                        <ellipse id="Oval-44-Copy" opacity="0.769706157" fill="#FFFFFF" sketch:type="MSShapeGroup" mask="url(#mask-7)" cx="41.9202328" cy="13.7265511" rx="6.51717476" ry="3.17023996">
                            <g transform="translate(41.920233, 13.726551) rotate(21.000000) translate(-41.920233, -13.726551) "></g>
                        </ellipse>
                        <path d="M3.49993094,5.74122208 C3.49993094,5.74122208 12.4490854,5.69955489 14.9004274,6.47888444 C17.3517694,7.25821399 24.0236702,15.9705003 24.0236702,15.9705003 L30.0817341,17.2706688 L23.2276697,21.269555 L6.21556173,14.9099177 L3.49993094,5.74122208 Z" id="Path-250" fill="#444444" sketch:type="MSShapeGroup" mask="url(#mask-7)"></path>
                        <path d="M5.71796526,6.66368584 L11.5676078,13.6618331 L19.9029254,15.8130912 C19.9029254,15.8130912 15.2199812,9.00090267 14.0152133,8.0888557 C12.8104454,7.17680872 5.71796526,6.66368584 5.71796526,6.66368584 Z" id="Path-251" fill="#F8D514" sketch:type="MSShapeGroup" mask="url(#mask-7)"></path>
                    </g>
                    <path d="M189.714552,72.673037 C189.714552,72.673037 171.474979,71.9262569 166.416441,73.5700076 C161.357902,75.2137582 160.422983,77.145374 160.422983,77.145374 L154.011619,89.8740125 C154.011619,89.8740125 151.349631,93.4083553 153.88895,95.0458475 C156.428269,96.6833398 168.672304,97.7311967 168.672304,97.7311967 L199.557185,97.1213958 L164.493239,93.4083547 L172.543656,77.5278034 L189.714552,72.673037 Z" id="Path-282" fill="#D8D8D8" sketch:type="MSShapeGroup"></path>
                    <path d="M155.274586,93.7737427 L163.256184,93.8413222 L173.551433,74.8446579 C173.551433,74.8446579 167.759893,73.3300086 165.508038,74.7832783 C163.256184,76.236548 154.623253,90.8114038 154.623253,90.8114038 L155.274586,93.7737427 Z" id="Path-252" fill="#4A4A4A" sketch:type="MSShapeGroup"></path>
                    <path d="M249.642693,70.9361128 L250.934937,83.3131722 C250.934937,83.3131722 252.453554,78.0706158 252.453554,74.5033643 C252.453554,70.9361128 252.268113,69.8550005 252.268113,69.8550005 L249.642693,70.9361128 Z" id="Path-253" fill="#4A4A4A" sketch:type="MSShapeGroup"></path>
                    <g id="frontpannel" transform="translate(185.272124, 66.827586)" sketch:type="MSShapeGroup">
                        <path d="M8.0315711,7.35118092 C8.0315711,7.35118092 9.29474642,5.09605 11.6165431,3.75441239 C13.9383397,2.41277478 18.2468896,1.20382641 18.2468896,1.20382641 L58.3986931,0.262615948 C58.3986931,0.262615948 61.1783854,0.674837719 62.2434712,1.79001888 C63.3085571,2.90520005 63.8240565,4.50278085 63.8240565,4.50278085 L64.7445461,17.1878917 C64.7445461,17.1878917 63.736474,19.8776547 62.989973,20.8129673 C62.2434721,21.74828 60.0886086,23.0498165 60.0886086,23.0498165 L24.3552727,26.5882017 C24.3552727,26.5882017 8.81627968,27.3607501 4.94857751,26.5882017 C1.08087534,25.8156533 0.0498799624,23.5905997 0.0498799624,23.5905997 L8.0315711,7.35118092 Z" id="Path-254" fill="#4A4A4A"></path>
                        <path d="M21.9998699,12.1979602 L21,12.2404223 L22.1543563,9.04500474 L21.0386216,6.00438774 L22.0342002,6.00406893 L22.6564369,7.72523852 L23.2615084,6.00369244 L24.257087,6.00340045 L23.1499349,9.01600982 L24.3128737,12.099694 L23.3044212,12.1425439 L22.6521456,10.3922687 L21.9998699,12.1979602 Z M25.4758125,6.00305938 L25.4758125,12.0502671 L24.6433028,12.0856516 L24.6433028,6.00329042 L25.4758125,6.00305938 Z M26.9434328,10.5445208 L26.7159945,11.9975424 L25.8105329,12.0360385 L26.7932377,6.00271093 L28.3595575,6.00232403 L29.3508449,11.885474 L28.4496746,11.9238114 L28.2265276,10.5030354 L26.9434328,10.5445208 Z M27.080754,9.73290215 L28.1020803,9.70570984 L27.6386213,6.79088214 L27.5098827,6.79163448 L27.080754,9.73290215 Z M32.5736016,6.00143073 L32.5736016,11.7483055 L29.591157,11.8752493 L29.591157,6.00204069 L32.5736016,6.00143073 Z M30.4537057,11.0582797 L31.7024703,11.0121991 L31.7024703,6.76721156 L30.4537057,6.77446905 L30.4537057,11.0582797 Z M32.9211958,6.00136666 L35.5431723,6.00093053 L35.5431723,6.7302466 L33.7837446,6.74021822 L33.7837446,8.41230862 L35.4616379,8.38189403 L35.4616379,9.10428789 L33.7837446,9.14384817 L33.7837446,10.9428383 L35.6204155,10.8749142 L35.4444727,11.6260264 L32.9211958,11.7335048 L32.9211958,6.00136666 Z M36.9721709,9.24356804 L36.7704804,8.62821942 L36.7704804,11.5695199 L35.9079317,11.6062785 L35.9079317,6.00087646 L36.7704804,6.00075502 L36.7704804,6.60653153 L37.0279577,6.00072051 L38.5685298,6.00053085 L38.5685298,9.20379523 L38.1136533,9.21512855 L38.8131332,11.4824397 L37.8905064,11.5217773 L37.1867353,9.23822235 L36.9721709,9.24356804 Z M36.7704804,8.52604025 L37.7145636,8.50772461 L37.7145636,6.72522555 L36.7704804,6.73060624 L36.7704804,8.52604025 Z M39.0577365,10.6043088 L40.8901162,6.72132492 L39.1135233,6.73160339 L39.1135233,6.00047065 L41.9114425,6.00021826 L41.9114425,6.89072591 L40.1091019,10.7159246 L42.0873853,10.6425632 L41.8642384,11.3522903 L39.0577365,11.4720092 L39.0577365,10.6043088 Z M43.2245764,6.00013252 L43.2245764,10.5865027 L44.5248364,10.5384044 L44.5248364,6.00006822 L45.3616374,6.00003767 L45.3616374,11.2029889 L42.3877754,11.3299487 L42.3877754,6.00018474 L43.2245764,6.00013252 Z M45.713523,6.00002737 L48.6659286,6 L48.6659286,6.65677593 L46.5717804,6.66839369 L46.5717804,10.4829151 L48.7646282,10.4013716 L48.5801028,11.0654867 L45.713523,11.1879604 L45.713523,6.00002737 Z M49.9490234,8.79551337 L49.9490234,11.0069709 L49.0864747,11.0438435 L49.0864747,6.0000047 L49.9490234,6.00002104 L49.9490234,8.12617014 L51.2235357,8.10305192 L51.2235357,6.00006171 L52.0732106,6.00009975 L52.0732106,10.9161334 L51.2235357,10.9524738 L51.2235357,8.7651044 L49.9490234,8.79551337 Z M52.4250961,6.00011807 L55.0470726,6.00030183 L55.0470726,6.62162519 L53.2876449,6.63127946 L53.2876449,8.05924582 L54.9655382,8.02892114 L54.9655382,8.64441766 L53.2876449,8.6839811 L53.2876449,10.2203199 L55.1243158,10.1521418 L54.948373,10.7931096 L52.4250961,10.9010812 L52.4250961,6.00011807 Z" id="XIAOERZUCHE" fill="#FFFFFF"></path>
                        <path d="M3.4219896,15.7395272 C3.4219896,15.7395272 24.9839172,18.2609423 42.5311311,16.7545564 C60.0783449,15.2481705 64.1781049,14.0549932 64.1781049,14.0549932 L42.5311327,15.2861407 L3.4219896,15.7395272 Z" id="Path-256" fill="#000000"></path>
                        <path d="M1.8109394,18.9985879 C1.8109394,18.9985879 19.1801241,20.9236429 37.5859037,20.3617931 C55.9916833,19.7999434 64.4553831,16.6755152 64.4553831,16.6755152 L41.1666745,18.9985879 L1.8109394,18.9985879 Z" id="Path-256-Copy" fill="#000000"></path>
                        <path d="M0,22.5398215 C0,22.5398215 17.3691847,24.4648764 35.7749643,23.9030267 C54.1807439,23.3411769 62.6444437,20.2167488 62.6444437,20.2167488 L39.3557351,22.5398215 L0,22.5398215 Z" id="Path-256-Copy-2" fill="#000000"></path>
                    </g>
                    <g id="Rectangle-98" transform="translate(49.256637, 37.625616)">
                        <mask id="mask-9" sketch:name="Mask" fill="white">
                            <use xlink:href="#path-8"></use>
                        </mask>
                        <use id="Mask" fill="#CACACA" sketch:type="MSShapeGroup" transform="translate(5.359179, 3.555345) rotate(9.000000) translate(-5.359179, -3.555345) " xlink:href="#path-8"></use>
                        <path d="M-0.240735443,3.0813804 C-0.240735443,3.0813804 1.17599581,2.24702603 3.04056465,2.30295942 C4.68851062,2.35239455 10.6961963,2.30295942 10.6961963,2.30295942 L10.6961963,5.11084119 C10.6961963,5.11084119 5.18449677,4.44230514 3.04056465,4.4905103 C1.67198196,4.52128214 0.158651893,5.34777219 0.158651893,5.34777219 L-0.240735443,3.0813804 Z" fill="url(#linearGradient-10)" sketch:type="MSShapeGroup" mask="url(#mask-9)">
                            <g transform="translate(5.227730, 3.824020) rotate(8.000000) translate(-5.227730, -3.824020) "></g>
                        </path>
                    </g>
                    <g id="Rectangle-98-Copy" transform="translate(18.102443, 37.467703) rotate(-10.000000) translate(-18.102443, -37.467703) translate(13.904434, 34.379033)">
                        <mask id="mask-12" sketch:name="Mask" fill="white">
                            <use xlink:href="#path-11"></use>
                        </mask>
                        <use id="Mask" fill="#C2C2C2" sketch:type="MSShapeGroup" transform="translate(4.251236, 3.211327) rotate(6.000000) translate(-4.251236, -3.211327) " xlink:href="#path-11"></use>
                        <path d="M2.96266876,1.17210416 C4.19304525,1.38338801 8.64684046,2.81119281 8.64684046,2.81119281 L7.61079619,5.50048449 C7.61079619,5.50048449 4.21792528,3.92905791 2.60542202,3.73854594 C1.57607783,3.61693231 -3.37507799e-14,3.73854594 -3.37507799e-14,3.73854594 L0.392210736,1.64726283 C0.392210736,1.64726283 1.57055899,0.933046999 2.96266876,1.17210416 Z" id="Rectangle-98" fill="#FFFFFF" sketch:type="MSShapeGroup" mask="url(#mask-12)"></path>
                    </g>
                    <g id="logo" transform="translate(190.309735, 47.172414)" sketch:type="MSShapeGroup">
                        <path d="M0.0680970906,4.51312364 L12.2178942,13.3951602 C12.2178942,13.3951602 31.0515331,14.6281772 34.6816485,14.6281779 C38.3117638,14.6281786 48.4156312,12.6373247 48.4156312,12.6373247 L49.7092115,5.31521067 L47.9959917,1.75447247 C47.9959917,1.75447247 35.5894701,0.889646104 31.93645,0.597001142 C28.2834298,0.304356181 0.38122905,1.61685268 0.38122905,1.61685268 L0.0680970906,4.51312364 Z" id="bg" fill="#000000"></path>
                        <path d="M2.04253273,3.54411532 L29.557313,3.5574764 C29.557313,3.5574764 32.2926776,4.84748846 32.2926772,6.91311067 C32.2926767,8.97873287 29.5573134,11.6770025 29.5573134,11.6770025 L12.9393765,11.6770024 C12.9393765,11.6770024 6.85738624,8.88520545 5.87390696,7.89915808 C4.89042767,6.91311072 2.04253273,3.54411532 2.04253273,3.54411532 Z" id="Path-262" stroke="#979797" stroke-width="0.56"></path>
                        <path d="M35.9079741,3.46733159 C35.9079741,3.46733159 34.5880607,5.21068008 34.5880607,6.76443838 C34.5880607,8.31819668 37.2656389,11.0368529 37.2656389,11.0368529 L47.4463546,10.7607875 C47.4463546,10.7607875 48.1368483,8.67237759 48.2597838,7.38418376 C48.3890076,6.03009747 47.7929543,3.46733159 47.7929543,3.46733159 L35.9079741,3.46733159 Z" id="Path-263" stroke="#979797" stroke-width="0.56"></path>
                        <path d="M38.1824438,7.30049261 C37.9493637,4.32534648 35.3564928,1.913514 32.3911044,1.913514 C29.4257161,1.913514 27.2107426,4.32534648 27.4438227,7.30049261 C27.6769028,10.2756387 30.2697738,12.6874712 33.2351621,12.6874712 C36.2005505,12.6874712 38.4155239,10.2756387 38.1824438,7.30049261 Z" id="Oval-40" stroke="#979797" stroke-width="0.56"></path>
                        <path d="M4.35873268,6.25304687 L27.5558044,6.25304688" id="Path-265" stroke="#979797" stroke-width="0.56"></path>
                        <path d="M8.49534562,9.30351771 L28.0517084,9.02339319" id="Path-266" stroke="#979797" stroke-width="0.56"></path>
                        <path d="M38.097383,8.89874751 L47.8573009,8.89874751" id="Path-267" stroke="#979797" stroke-width="0.56"></path>
                        <path d="M38.099123,6.3251281 L48.1904057,6.09076595" id="Path-268" stroke="#979797" stroke-width="0.56"></path>
                    </g>
                    <g id="carlignt2" transform="translate(240.126106, 48.295567)">
                        <mask id="mask-14" sketch:name="Mask" fill="white">
                            <use xlink:href="#path-13"></use>
                        </mask>
                        <use id="Mask" fill="#FFFFFF" sketch:type="MSShapeGroup" xlink:href="#path-13"></use>
                        <path d="M2.94297734,14.442189 L6.64387731,11.5642035 L6.94483708,8.19431942 L3.41101126,3.05738402 L-1.09923665,0.518430241 L2.94297734,14.442189 Z" id="Path-280" fill="#444444" sketch:type="MSShapeGroup" mask="url(#mask-14)"></path>
                        <path d="M1.3581568,4.47401569 C1.3581568,4.47401569 3.90449574,6.61140355 4.43318152,8.09171462 C4.9618673,9.57202569 4.01316684,12.9739911 4.01316684,12.9739911 L1.3581568,4.47401569 Z" id="Path-281" fill="#F8D514" sketch:type="MSShapeGroup" mask="url(#mask-14)"></path>
                    </g>
                    <path d="M51.0568265,84.10898 L49.4698187,70.8330592 L50.6503059,67.2662775 L46.5179371,51.6168193 L47.4505644,35.0540903 L47.4505644,51.6168193 L51.69325,67.2662775 L50.1009909,70.8330592 L52.0466717,84.3110522 L51.0568265,84.10898 Z" id="Path-302" fill="#BDBDBD" sketch:type="MSShapeGroup"></path>
                </g>
            </g>
        </g>
    </g>
</svg>