<?xml version="1.0" encoding="UTF-8" standalone="no"?>
<svg width="65px" height="23px" viewBox="0 0 65 23" version="1.1" xmlns="http://www.w3.org/2000/svg" xmlns:xlink="http://www.w3.org/1999/xlink" xmlns:sketch="http://www.bohemiancoding.com/sketch/ns">
    <!-- Generator: Sketch 3.4 (15575) - http://www.bohemiancoding.com/sketch -->
    <title>Ford</title>
    <desc>Created with Sketch.</desc>
    <defs></defs>
    <g id="Page-1" stroke="none" stroke-width="1" fill="none" fill-rule="evenodd" sketch:type="MSPage">
        <g id="2" sketch:type="MSArtboardGroup" transform="translate(-241.000000, -152.000000)" fill="#FFFFFF">
            <g id="carlogo" sketch:type="MSLayerGroup" transform="translate(17.000000, 152.000000)">
                <path d="M269.654672,13.0200245 C270.181008,13.3119329 270.207481,14.6934065 269.008431,16.6332398 C267.751765,18.5374331 265.623063,18.4678503 266.057524,16.3243599 C266.790969,13.9313897 268.056978,12.835036 269.654672,13.0200245 M247,18.1353741 C247.346745,17.5566083 247.873283,16.9370844 248.667906,16.3583186 C249.09331,14.1019473 250.348655,12.4781426 252.917134,11.8309031 C253.775969,11.7934056 253.862655,12.0689307 253.678046,12.5368343 C250.761217,13.7416453 249.528347,16.5930856 251.584735,17.8810432 C253.889945,18.3212312 255.38769,15.8431356 254.58504,12.7178005 C254.6942,11.7167803 255.09713,11.8732916 255.541798,11.9988267 C255.917438,12.690085 256.333211,13.1710311 256.543505,14.1149899 C257.497053,12.6281326 260.820023,9.51584007 261.293586,12.9297429 C262.794541,10.9749819 263.974436,11.2896349 265.083698,12.6770423 C265.584552,14.260089 263.208708,15.5806531 262.584247,13.3536277 C260.709257,14.4540978 262.33382,16.880023 264.250548,15.5545679 C267.803075,11.2390947 270.618771,10.8412952 271.833982,13.0992968 C272.973745,11.3646299 273.779605,10.0114592 274.917763,8.27516193 C275.765361,7.81051899 277.26471,7.92301149 276.959703,8.69904671 C274.900104,11.340175 273.058826,13.9992368 271.668637,16.86535 C270.914146,18.070161 271.665426,18.5054581 272.418311,17.9234317 C273.222566,17.0642498 273.944951,16.6680806 274.750811,15.8072684 C275.59841,15.2725215 276.153843,15.7518373 275.543829,16.7381846 C274.681784,17.6560582 273.654392,18.3603591 272.793951,19.2782326 C271.675058,20.2433857 269.230187,20.5123895 269.209318,18.3473165 C267.069454,20.9509472 263.902198,19.7233117 264.542712,16.3159302 C263.515321,17.5435657 261.404352,17.2044579 261.001422,14.9187407 C260.166666,16.3012572 259.333516,18.1484167 258.500365,19.5309332 C258.001117,19.7428756 256.333211,19.8276525 256.46003,19.1086787 C257.625477,17.1767423 258.542103,16.1333336 259.709156,14.1997669 C259.930687,13.2558081 259.041351,12.6346539 258.042855,13.6079585 C256.906303,14.8796129 255.830752,16.3289728 254.917337,17.7114893 C252.902686,20.5058682 249.931277,20.1667604 249.041941,17.4164003 C248.666301,17.5566083 248.346846,18.0359242 248.083577,18.51524 C247.459116,19.0940058 247.181399,18.909779 247,18.1353741 M253.002946,9.72503879 C252.992946,9.32903879 252.994946,8.76903879 253.236946,8.39903879 C253.794946,7.54303879 254.386946,8.22703879 254.166946,8.92903879 C254.028946,9.36303879 253.454946,9.64303879 253.002946,9.72503879 M246.85129,5.96627073 C244.109263,9.72592891 241.534157,8.6239324 242.76742,6.46176697 C245.159401,2.31922533 249.150897,5.21498259 252.205697,4.70179006 C250.679107,6.075666 249.207618,7.45115071 248.232027,9.32213165 C246.465591,9.46852827 245.195054,9.83532419 244.366936,10.8070116 C244.000684,11.2445927 244.391245,11.2317227 244.853111,11.4070769 C245.081613,10.8713618 246.946904,10.0315922 246.870737,10.8810143 C246.019931,12.5090734 245.235569,14.1081749 242.214802,15.9228495 C239.451707,17.8437018 235.892907,15.0412523 240.260378,12.0714923 C240.307375,11.2526365 239.907091,11.1738075 238.890986,11.1480675 C237.562107,11.8655718 236.630272,12.937002 236.280226,13.9086894 C234.692055,18.3005879 240.257137,20.0895224 242.866276,18.3311543 C246.214401,15.3726556 247.65672,13.0801811 248.971013,10.477217 C249.415052,9.82728042 251.452125,10.0364184 252.593016,9.81762789 C252.998162,10.1828151 253.1035,10.3855181 253.508645,10.752314 C253.902447,11.0129321 254.374037,10.8761881 254.260596,10.3452992 C253.946203,10.1619013 253.899206,9.94471946 253.586433,9.7613215 C257.044758,7.94664695 252.500643,4.976887 252.205697,8.93603068 C251.690351,9.70662387 250.513808,9.15642998 249.943363,9.15642998 C249.923916,8.44214319 252.168423,6.29606531 253.972132,4.976887 C261.313374,7.78255404 266.449002,7.17766252 267,3.8218016 C262.841584,4.64709242 257.247331,4.64709242 251.930197,3.43730938 C249.483117,2.97881448 245.049202,2.46562194 242.380101,4.2626002 C237.743613,8.61749738 242.012229,11.733654 245.195054,9.43152692 C246.272742,8.6239324 246.788087,7.6892463 247.126789,6.73686391 C247.126789,6.73686391 246.79619,5.96627073 246.85129,5.96627073 M256.372198,1 C239.16206,1 225,5.82605781 225,11.4374255 C225,17.0472288 239.16206,22 256.372198,22 C273.580738,22 288,17.0472288 288,11.4374255 C288,5.82605781 273.580738,1 256.372198,1 M256.5,0 C274.399637,0 289,5.16566494 289,11.5007945 C289,17.8343351 274.399637,23 256.5,23 C238.598768,23 224,17.8343351 224,11.5007945 C224,5.16566494 238.598768,0 256.5,0" id="Ford" sketch:type="MSShapeGroup"></path>
            </g>
        </g>
    </g>
</svg>