<?xml version="1.0" encoding="UTF-8"?>
<svg width="61px" height="62px" viewBox="0 0 61 62" version="1.1" xmlns="http://www.w3.org/2000/svg" xmlns:xlink="http://www.w3.org/1999/xlink">
    <!-- Generator: Sketch 53.2 (72643) - https://sketchapp.com -->
    <title>gift</title>
    <desc>Created with Sketch.</desc>
    <defs>
        <rect id="path-1" x="28.055336" y="13.7408638" width="7.39920949" height="42.0448505"></rect>
        <filter x="-20.3%" y="-1.2%" width="127.0%" height="102.4%" filterUnits="objectBoundingBox" id="filter-2">
            <feOffset dx="-1" dy="0" in="SourceAlpha" result="shadowOffsetOuter1"></feOffset>
            <feColorMatrix values="0 0 0 0 0   0 0 0 0 0   0 0 0 0 0  0 0 0 0.156476449 0" type="matrix" in="shadowOffsetOuter1"></feColorMatrix>
        </filter>
        <path d="M24.1754109,13.2268962 C24.1754109,13.2268962 13.9275914,2.47925281 9.2611306,0.421811943 C8.10729187,-0.0869151302 4.7740347,0.421811944 4.7740347,0.421811944 C4.7740347,0.421811944 -0.31307766,7.07374279 0.262191909,9.12695492 C0.939098554,11.542923 4.55840064,11.7323844 10.3257891,12.9688529 C16.0931776,14.2053214 24.1754109,13.2268962 24.1754109,13.2268962 Z" id="path-3"></path>
        <path d="M24.1754109,13.2268962 C24.1754109,13.2268962 13.9275914,2.47925281 9.2611306,0.421811943 C8.10729187,-0.0869151302 4.7740347,0.421811944 4.7740347,0.421811944 C4.7740347,0.421811944 -0.31307766,7.07374279 0.262191909,9.12695492 C0.939098554,11.542923 4.55840064,11.7323844 10.3257891,12.9688529 C16.0931776,14.2053214 24.1754109,13.2268962 24.1754109,13.2268962 Z" id="path-5"></path>
    </defs>
    <g id="Page-1" stroke="none" stroke-width="1" fill="none" fill-rule="evenodd">
        <g id="1" transform="translate(-292.000000, -458.000000)">
            <g id="gift" transform="translate(292.000000, 458.000000)">
                <ellipse id="shadow" fill="#406052" cx="30.5" cy="55" rx="30.5" ry="7"></ellipse>
                <rect id="Rectangle-26" fill="#FFE975" x="5.85770751" y="13.7408638" width="50.5612648" height="42.0448505"></rect>
                <rect id="Rectangle-26-Copy" fill="#F9D05A" x="3.39130435" y="13.7408638" width="54.2608696" height="7.64451827"></rect>
                <rect id="Rectangle-26-Copy" fill="#E6BB3F" x="5.85770751" y="21" width="50.5612648" height="1.38538206"></rect>
                <g id="Rectangle-27">
                    <use fill="black" fill-opacity="1" filter="url(#filter-2)" xlink:href="#path-1"></use>
                    <use fill="#F889BA" fill-rule="evenodd" xlink:href="#path-1"></use>
                </g>
                <g id="ties" transform="translate(8.000000, 0.000000)">
                    <mask id="mask-4" fill="white">
                        <use xlink:href="#path-3"></use>
                    </mask>
                    <use id="Mask" fill="#F889BA" xlink:href="#path-3"></use>
                    <path d="M16.1222602,8.80406122 C11.9648496,10.882945 9.66611786,11.9901732 7.29544745,12.2996307 C4.92477704,12.6090882 0.134758516,13.339073 0.134758516,13.339073 C0.134758516,13.339073 13.3796324,14.2155815 16.3735575,13.3390728 C19.3674826,12.4625641 24.8622949,10.0076967 23.9243089,8.80406117 C23.5066941,8.26817259 20.2796708,6.72517743 16.1222602,8.80406122 Z" id="Path-124-Copy" fill="#D8D8D8" style="mix-blend-mode: multiply;" mask="url(#mask-4)" transform="translate(12.082700, 10.738875) scale(-1, 1) translate(-12.082700, -10.738875) "></path>
                </g>
                <g id="ties-copy" transform="translate(43.500000, 7.000000) scale(-1, 1) translate(-43.500000, -7.000000) translate(31.000000, 0.000000)">
                    <mask id="mask-6" fill="white">
                        <use xlink:href="#path-5"></use>
                    </mask>
                    <use id="Mask" fill="#F889BA" xlink:href="#path-5"></use>
                    <path d="M16.0852377,8.80406122 C11.9278271,10.882945 9.3508109,11.6437119 7.25842497,12.2996307 C5.16603903,12.9555495 0.134758516,13.339073 0.134758516,13.339073 C0.134758516,13.339073 13.34261,14.2155815 16.3365351,13.3390728 C19.3304601,12.4625641 24.8252724,10.0076967 23.8872864,8.80406117 C23.4696716,8.26817259 20.2426483,6.72517743 16.0852377,8.80406122 Z" id="Path-124-Copy" fill="#D8D8D8" style="mix-blend-mode: multiply;" mask="url(#mask-6)" transform="translate(12.064189, 10.738875) scale(-1, 1) translate(-12.064189, -10.738875) "></path>
                </g>
                <path d="M14.4876474,5.86104912 C14.4876474,5.86104912 22.7379299,8.77637845 23.9345869,9.28745574 C25.1312438,9.79853303 31.203811,11.580389 31.203811,11.580389 C31.203811,11.580389 26.2567462,11.8290601 21.7592549,10.0695912 C17.2617637,8.31012231 14.4876474,5.86104912 14.4876474,5.86104912 Z M18.1779005,4.81551233 C18.1779005,4.81551233 22.6207872,6.93922393 23.750425,7.54498673 C24.7008855,8.05466659 30.2690516,10.5527274 30.2690516,10.5527274 L29.9664919,10.7416159 C29.9664919,10.7416159 24.7154836,9.19636385 23.0046489,8.49597398 C21.2938142,7.79558412 18.1779005,4.81551233 18.1779005,4.81551233 Z" id="Path-1936" fill="#FD98C4" transform="translate(22.845729, 8.203989) rotate(7.000000) translate(-22.845729, -8.203989) "></path>
                <path d="M32.8523508,3.62584923 C32.8523508,3.62584923 41.1679378,7.34170566 42.3797575,7.83047675 C43.5915772,8.31924784 48.2948888,10.6081067 48.2948888,10.6081067 L47.9302111,10.7568036 C47.9302111,10.7568036 41.9497463,9.32147628 39.0233662,8.22533791 C36.0969862,7.12919954 32.8523508,3.62584923 32.8523508,3.62584923 Z M36.3876879,8.87004798 C36.3876879,8.87004798 41.8344819,10.1543813 43.1726448,10.2805493 C44.5108078,10.4067173 48.0719153,11.0490474 48.0719153,11.0490474 C48.0719153,11.0490474 44.45868,11.2175975 42.6538958,10.8014162 C40.8491116,10.3852349 36.3876879,8.87004798 36.3876879,8.87004798 Z" id="Path-1936-Copy" fill="#FA99C4" transform="translate(40.573620, 7.354326) scale(-1, 1) rotate(13.000000) translate(-40.573620, -7.354326) "></path>
                <path d="M31.7621886,14.5374877 C30.8976789,14.5374877 29.0862553,13.9355701 29.0862553,13.9355701 C28.5593744,13.7737264 28.1911647,13.2031956 28.2654791,12.6490016 L28.8232237,8.48965889 C28.8232237,8.48965889 30.8523561,8.22458067 31.7621887,8.21646897 C32.7036996,8.20807485 34.5930274,8.48965891 34.5930274,8.48965891 L35.2789671,12.6490017 C35.3694576,13.1977102 35.0203915,13.774581 34.4831724,13.9355702 C34.4831724,13.9355702 32.6670836,14.5374877 31.7621886,14.5374877 Z" id="Path-1939" fill="#E868A1"></path>
            </g>
        </g>
    </g>
</svg>