<?xml version="1.0" encoding="UTF-8" standalone="no"?>
<svg width="237px" height="164px" viewBox="0 0 237 164" version="1.1" xmlns="http://www.w3.org/2000/svg" xmlns:xlink="http://www.w3.org/1999/xlink" xmlns:sketch="http://www.bohemiancoding.com/sketch/ns">
    <!-- Generator: Sketch 3.4 (15575) - http://www.bohemiancoding.com/sketch -->
    <title>hand + handseleve</title>
    <desc>Created with Sketch.</desc>
    <defs>
        <path id="path-1" d="M0,0 L34.9189189,0 L37.0703964,166 L0,166 L0,0 Z"></path>
    </defs>
    <g id="Page-1" stroke="none" stroke-width="1" fill="none" fill-rule="evenodd" sketch:type="MSPage">
        <g id="iPhone-6" sketch:type="MSArtboardGroup" transform="translate(0.000000, -46.000000)">
            <g id="hand-+-handseleve" sketch:type="MSLayerGroup" transform="translate(108.981849, 132.634246) rotate(118.000000) translate(-108.981849, -132.634246) translate(72.981849, -3.365754)">
                <path d="M39.1992976,35.5259813 C38.7478419,35.2500323 38.2594374,34.9946062 37.7290732,34.7655831 L40.2698574,5.2004638 C40.5002045,2.52009427 38.5147085,0.205044654 35.8361519,0.0177417292 L35.7789818,0.0137440057 C33.0944387,-0.173977536 30.7772177,1.84556295 30.5899526,4.52357892 L28.5494915,33.703531 C27.9321228,33.7628839 27.334672,33.836466 26.7565132,33.9231278 L20.9461933,6.84239643 C20.386194,4.2323525 17.8054528,2.52245647 15.1838367,3.03204701 L15.9029134,2.89227266 C13.2801519,3.40208585 11.5695169,5.94203192 12.0795449,8.56589829 L17.6142155,37.0393104 C17.0760204,37.3618903 16.5736774,37.6973873 16.1049055,38.041613 L8.13058885,19.4652039 C7.12414403,17.1206606 4.34940193,15.8579017 1.92780726,16.6325891 L3.12181029,16.2506181 C0.707688361,17.0229149 -0.524052027,19.5780126 0.387331956,21.952249 L9.86999465,46.65543 C9.80702922,46.8847563 9.78225725,47.0117425 9.78225725,47.0117425 L13.7046127,79.3748442 L11.2152801,272 L48.1296019,272 L46.1681677,64.7929885 L62.228437,49.6322396 L71.7771355,44.1699845 C71.7771355,44.1699845 73.5900868,40.2867142 66.8743645,38.614046 C60.1586421,36.9413778 53.251546,43.3762671 48.1296019,44.1699845 C47.0585746,44.4555913 46.3128531,44.0374285 45.6271226,43.2268479 L55.3661587,11.3718963 C56.0462613,9.14738091 54.798624,6.79783334 52.5807861,6.11977223 C50.367461,5.44309084 48.0141761,6.69381291 47.334657,8.91641986 L39.1992976,35.5259813 Z" id="hand" fill="#FFD7B7" sketch:type="MSShapeGroup"></path>
                <g id="handseleve" transform="translate(9.439643, 82.485942)">
                    <g id="Path-174" transform="translate(2.054054, 8.000000)">
                        <mask id="mask-2" sketch:name="Mask" fill="white">
                            <use xlink:href="#path-1"></use>
                        </mask>
                        <use id="Mask" fill="#4990E2" sketch:type="MSShapeGroup" xlink:href="#path-1"></use>
                        <path d="M7.56882542,1.30556604 C7.56882542,1.30556604 28.2759686,62.2493262 28.2759686,90.0987621 C28.2759686,117.948198 27.886575,167.0001 27.886575,167.0001 L35.9249486,167.521834 L37.4408223,1.30556604 L7.56882542,1.30556604 Z" fill="#4383CD" sketch:type="MSShapeGroup" mask="url(#mask-2)"></path>
                    </g>
                    <rect id="Rectangle-39" fill="#DFDFE1" sketch:type="MSShapeGroup" x="0" y="0" width="38" height="11" rx="2"></rect>
                    <ellipse id="Oval-31" fill="#FFFFFF" sketch:type="MSShapeGroup" cx="4.10810811" cy="6" rx="2.05405405" ry="2"></ellipse>
                </g>
            </g>
        </g>
    </g>
</svg>