<?xml version="1.0" encoding="UTF-8" standalone="no"?>
<svg width="156px" height="171px" viewBox="0 0 156 171" version="1.1" xmlns="http://www.w3.org/2000/svg" xmlns:xlink="http://www.w3.org/1999/xlink" xmlns:sketch="http://www.bohemiancoding.com/sketch/ns">
    <!-- Generator: Sketch 3.4 (15575) - http://www.bohemiancoding.com/sketch -->
    <title>handinmobile</title>
    <desc>Created with Sketch.</desc>
    <defs></defs>
    <g id="Page-1" stroke="none" stroke-width="1" fill="none" fill-rule="evenodd" sketch:type="MSPage">
        <g id="4" sketch:type="MSArtboardGroup" transform="translate(-219.000000, -393.000000)">
            <g id="handinmobile" sketch:type="MSLayerGroup" transform="translate(324.265839, 503.171188) rotate(-33.000000) translate(-324.265839, -503.171188) translate(263.765839, 368.171188)">
                <path d="M16.4592,44.4336 L16.0532,43.1936 C16.0532,43.1936 10.9052,41.4696 7.9152,38.1936 C4.9252,34.9156 9.5772,31.6996 11.4572,31.6096 C13.3312,31.5236 14.4752,30.6116 14.4752,30.6116 C14.4752,30.6116 17.4512,29.7016 20.5812,32.7056 C23.7092,35.7076 16.4592,44.4336 16.4592,44.4336" id="Fill-1" fill="#FFD7B7" sketch:type="MSShapeGroup"></path>
                <path d="M4.1662,83.8544 C3.3082,86.6144 4.8562,89.5444 7.6182,90.4044 L43.2602,101.4444 C46.0262,102.3004 48.9562,100.7604 49.8042,97.9944 L74.5242,18.2424 C75.3782,15.4764 73.8302,12.5524 71.0642,11.6884 L35.4302,0.6464 C32.6662,-0.2096 29.7322,1.3364 28.8782,4.0964 L4.1662,83.8544 Z" id="Fill-3" fill="#F9F2EB" sketch:type="MSShapeGroup"></path>
                <path d="M6.2268,77.206 L51.8628,91.352 L73.5168,21.476 L27.8788,7.334 L6.2268,77.206 Z" id="Fill-5" fill="#5FA616" sketch:type="MSShapeGroup"></path>
                <path d="M6.2268,77.206 L51.8628,91.352 L27.8788,7.334 L6.2268,77.206 Z" id="Fill-7" fill="#539213" sketch:type="MSShapeGroup"></path>
                <path d="M56.1076,11.5068 C55.9596,11.9908 56.2276,12.5068 56.7196,12.6548 L65.0716,15.2488 C65.5596,15.4008 66.0676,15.1268 66.2296,14.6388 C66.3836,14.1488 66.1036,13.6348 65.6176,13.4828 L57.2656,10.8948 C56.7776,10.7408 56.2596,11.0148 56.1076,11.5068" id="Fill-9" fill="#C3BDAE" sketch:type="MSShapeGroup"></path>
                <path d="M38.1974,6.1464 C37.9354,6.9924 38.4134,7.8884 39.2514,8.1484 C40.0934,8.4104 40.9954,7.9364 41.2554,7.0964 C41.5194,6.2524 41.0414,5.3504 40.2014,5.0904 C39.3594,4.8304 38.4634,5.3024 38.1974,6.1464" id="Fill-11" fill="#C3BDAE" sketch:type="MSShapeGroup"></path>
                <path d="M21.3498,87.6904 C20.8658,89.2584 21.7338,90.9104 23.2978,91.3924 L29.7638,93.3964 C31.3298,93.8764 32.9778,93.0064 33.4658,91.4444 C33.9438,89.8884 33.0778,88.2344 31.5158,87.7524 L25.0398,85.7484 C23.4898,85.2664 21.8298,86.1324 21.3498,87.6904" id="Fill-13" fill="#C3BDAE" sketch:type="MSShapeGroup"></path>
                <path d="M21.3304,87.75 C20.8484,89.312 21.7184,90.972 23.2764,91.45 L29.7484,93.458 L25.0264,85.804 C23.4644,85.324 21.8124,86.198 21.3304,87.75" id="Fill-15" fill="#AEB2A0" sketch:type="MSShapeGroup"></path>
                <path d="M73.1242,102.1162 C75.1262,97.5662 79.7862,78.0382 79.7022,75.4782 C79.6142,72.9142 78.3802,71.2602 78.0442,69.5462 C77.7002,67.8322 76.2142,57.3482 75.8762,55.1742 C75.5382,53.0002 76.2682,52.2222 75.0662,49.2682 C73.8622,46.3162 71.4162,42.1702 71.1282,40.5922 C70.8322,39.0102 71.2742,33.2262 70.6162,31.4602 C69.9602,29.6962 66.2982,30.6062 65.9742,31.0162 C65.6562,31.4262 57.8682,35.5302 63.0242,53.8642 C63.4542,57.2282 63.2402,59.8142 64.3722,65.9942 C64.3722,65.9942 63.5622,69.3102 63.0982,70.9122 C62.8522,71.7582 61.2302,69.3922 59.6342,66.3222 L49.5762,98.5642 C49.5762,98.5642 48.4782,101.6142 44.8642,101.6482 L14.8262,92.6382 C14.8262,92.6382 18.2722,102.2882 23.1342,108.3382 C27.9942,114.3882 30.8302,118.1362 31.9282,120.4022 C33.0202,122.6702 35.5882,125.9322 38.0882,128.6522 C40.5862,131.3662 40.6862,135.7942 41.5322,137.6862 C42.3882,139.5722 56.4982,196.6262 59.2102,203.2782 C61.9282,209.9202 67.7222,207.8082 69.8762,213.2722 C72.0262,218.7282 107.8822,207.7482 107.8822,207.7482 C107.8822,207.7482 88.9442,164.6302 85.2082,152.3182 C81.4762,140.0102 75.3322,126.6082 70.8342,110.9542 C70.8342,110.9542 71.1242,106.6662 73.1242,102.1162 Z" id="Fill-17" fill="#FFD7B7" sketch:type="MSShapeGroup"></path>
                <path d="M27.2632536,9.77146646 C27.2632536,9.77146646 22.3092536,4.24546646 19.1952536,6.57146646 C16.0792536,8.89946646 16.6392536,12.6774665 18.6492536,16.4294665 C20.6552536,20.1874665 22.4072536,22.7314665 23.0732536,23.1214665 C23.7352536,23.5114665 27.2632536,9.77146646 27.2632536,9.77146646" id="Fill-19" fill="#FFD7B7" sketch:type="MSShapeGroup"></path>
                <path d="M12.6232,63.4588 L11.0232,62.5408 L10.7232,62.7908 C10.7232,62.7908 10.5432,62.0128 8.6252,60.1348 C6.7072,58.2568 5.1772,56.4008 5.3892,53.8128 C5.5992,51.2288 7.3192,49.2888 9.2672,48.9448 C11.2132,48.6108 11.0532,47.6708 15.1492,49.2128 L14.7752,50.6288 C14.7752,50.6288 13.2312,51.8948 17.2592,54.6868 C21.8112,57.8308 19.0812,61.8668 17.7252,62.7608 C14.7232,64.7468 12.6232,63.4588 12.6232,63.4588" id="Fill-21" fill="#FFD7B7" sketch:type="MSShapeGroup"></path>
                <path d="M7.0042,75.495 C7.0042,75.495 9.9882,76.567 11.0202,77.083 C12.0422,77.603 15.8362,77.829 17.2682,74.899 C18.6962,71.965 16.0062,70.227 16.0062,70.227 C16.0062,70.227 12.1322,67.855 11.0242,66.735 C9.9062,65.617 9.9422,65.033 9.9422,65.033 C9.9422,65.033 8.7582,65.083 7.3022,64.651 C5.8402,64.221 3.2042,62.805 1.1562,65.941 C-0.8958,69.079 0.1802,71.467 1.3442,72.739 C2.5082,74.009 5.0922,77.667 6.0362,78.101 L7.0042,75.495 Z" id="Fill-23" fill="#FFD7B7" sketch:type="MSShapeGroup"></path>
            </g>
        </g>
    </g>
</svg>