<?xml version="1.0" encoding="UTF-8" standalone="no"?>
<svg width="477px" height="292px" viewBox="0 0 477 292" version="1.1" xmlns="http://www.w3.org/2000/svg" xmlns:xlink="http://www.w3.org/1999/xlink" xmlns:sketch="http://www.bohemiancoding.com/sketch/ns">
    <!-- Generator: Sketch 3.4 (15575) - http://www.bohemiancoding.com/sketch -->
    <title>handwatch</title>
    <desc>Created with Sketch.</desc>
    <defs>
        <linearGradient x1="50%" y1="0%" x2="50%" y2="100%" id="linearGradient-1">
            <stop stop-color="#000000" stop-opacity="0.5" offset="0%"></stop>
            <stop stop-color="#000000" stop-opacity="0.5" offset="100%"></stop>
        </linearGradient>
        <filter x="-50%" y="-50%" width="200%" height="200%" filterUnits="objectBoundingBox" id="filter-2">
            <feOffset dx="0" dy="1" in="SourceAlpha" result="shadowOffsetInner1"></feOffset>
            <feGaussianBlur stdDeviation="2" in="shadowOffsetInner1" result="shadowBlurInner1"></feGaussianBlur>
            <feComposite in="shadowBlurInner1" in2="SourceAlpha" operator="arithmetic" k2="-1" k3="1" result="shadowInnerInner1"></feComposite>
            <feColorMatrix values="0 0 0 0 0   0 0 0 0 0   0 0 0 0 0  0 0 0 0.35 0" in="shadowInnerInner1" type="matrix" result="shadowMatrixInner1"></feColorMatrix>
            <feMerge>
                <feMergeNode in="SourceGraphic"></feMergeNode>
                <feMergeNode in="shadowMatrixInner1"></feMergeNode>
            </feMerge>
        </filter>
        <path id="path-3" d="M170.429565,112.067563 C176.820511,99.2616914 192.401979,94.0521116 205.23256,100.431053 C218.061922,106.810601 223.281307,122.362193 216.890361,135.168064 C210.499415,147.973328 194.917338,153.183515 182.087975,146.804574 C169.258004,140.425634 164.03862,124.872827 170.429565,112.067563"></path>
    </defs>
    <g id="Page-1" stroke="none" stroke-width="1" fill="none" fill-rule="evenodd" sketch:type="MSPage">
        <g id="Artboard-9" sketch:type="MSArtboardGroup" transform="translate(-876.000000, -443.000000)">
            <g id="handwatch" sketch:type="MSLayerGroup" transform="translate(876.000000, 443.000000)">
                <path d="M168.325562,61.4644768 L332.08678,143.368354 L332.986905,149.12647 L333.197482,149.604541 L271.865459,190.946469 L245.28835,197.964459 L135.168841,142.901217 L168.325562,61.4644768 Z" id="Fill-1" fill="#FFD7B7" sketch:type="MSShapeGroup"></path>
                <path d="M243.112128,205.410833 L464.124671,316.312508 L476.050818,199.333801 L292.401104,108.058632 L243.112128,205.410833 Z" id="Fill-2" fill="#469992" sketch:type="MSShapeGroup"></path>
                <path d="M259.953032,186.993485 L243.112128,205.382218 L466.729036,318.712792 L466.729036,289.435961 L259.953032,186.993485 Z" id="Page-1" fill="#328079" sketch:type="MSShapeGroup"></path>
                <path d="M12.9194971,89.4687019 L57.9732008,144.375219 C63.7738013,151.442413 145.106363,148.37899 152.631746,143.177307 C160.149217,137.979877 94.8947439,137.425265 88.9115624,130.501433 L54.7555139,93.5976098 C35.1700429,72.4361216 20.4162756,82.9518674 12.9194971,89.4687019" id="Fill-3" fill="#FFD7B7" sketch:type="MSShapeGroup"></path>
                <path d="M24.8942588,68.3541096 L24.8942588,68.3541096 C18.4381924,56.0657945 26.0353905,39.1638182 39.9523279,44.5216183 C31.6028958,32.8340815 46.4400418,16.8736687 58.6577581,21.1611237 C51.6557742,8.85701466 70.6922847,-4.86247699 84.2148471,2.17738082 L146.150605,34.4225903 C163.541451,43.4749642 181.004113,64.5125305 186.008051,76.5366003 C200.837286,112.178728 163.187853,143.681621 142.550106,145.539842 C126.459845,146.989242 115.146514,149.806036 105.772193,145.087892 L10.6760627,98.0212574 C-11.9572949,86.9673017 5.53336264,58.7823571 24.8942588,68.3541096" id="Fill-5" fill="#FFD7B7" sketch:type="MSShapeGroup"></path>
                <path d="M26.8395384,106.433733 C29.9458509,108.000373 84.5455014,134.378123 84.5455014,134.378123 L32.0266664,112.754357 L26.8395384,106.433733 Z" id="Fill-7" fill="#D6B59A" sketch:type="MSShapeGroup"></path>
                <path d="M34.7888137,43.5052157 C36.3882238,43.4979262 38.1148321,43.814413 39.9522062,44.5214968 C39.1470237,43.3940505 38.5591127,42.2271192 38.1623032,41.0425715 C52.7164485,48.8320354 68.4494589,57.2781639 68.4494589,57.2781639 C68.4494589,57.2781639 51.0513092,50.1976062 34.7888137,43.5052157 M24.8941371,68.3539881 L24.8941371,68.3539881 C24.4255124,67.4616289 24.0329631,66.5461862 23.7097946,65.6155569 C35.7790117,72.2988355 51.7445086,81.4696642 51.7445086,81.4696642 C51.7445086,81.4696642 29.6582857,71.4811939 20.5048883,66.8487014 C20.5718347,66.8821117 20.5876584,66.8675327 20.5608798,66.8122538 C21.9837949,67.1281332 23.4334886,67.6317178 24.8941371,68.3539881 M83.2525231,31.5339949 C83.2525231,31.5339949 68.6661218,23.6066375 57.3107967,17.4530644 C57.5225908,18.6880312 57.9577423,19.9315025 58.6576364,21.1610022 C58.079463,20.9581105 57.4952036,20.8007783 56.9079012,20.6859683 L57.5420661,20.9168032 C69.1116196,25.7959246 83.2525231,31.5339949 83.2525231,31.5339949" id="Fill-9" fill="#D6B59A" sketch:type="MSShapeGroup"></path>
                <path d="M202.075124,96.6052066 L204.220452,92.3056024 L212.339223,96.3415689 L210.193896,100.641781 L202.075124,96.6052066 Z" id="Fill-11" fill="#7FB4E3" sketch:type="MSShapeGroup"></path>
                <path d="M154.954725,152.88428 L194.138447,74.3742845 L230.853203,92.6257931 L191.669481,171.135789 L154.954725,152.88428 Z" id="Fill-13" fill="#FF9D00" sketch:type="MSShapeGroup"></path>
                <path d="M167.228432,110.475956 C170.86423,103.191292 177.114589,98.0661487 184.280895,95.6703252 C191.446594,93.2751091 199.52824,93.6067824 206.826614,97.2357505 C214.124988,100.865326 219.259167,107.103336 221.6595,114.256182 C224.060441,121.40842 223.726926,129.474885 220.091128,136.75955 C216.455939,144.044821 210.204972,149.168749 203.039274,151.56518 C195.873576,153.961004 187.791321,153.628116 180.492947,149.999148 C173.195182,146.370787 168.060394,140.131562 165.660061,132.979324 C163.259729,125.827086 163.592635,117.76062 167.228432,110.475956" id="Fill-15" fill="#FFFFFF" sketch:type="MSShapeGroup"></path>
                <g id="Fill-17" filter="url(#filter-2)">
                    <use fill="none" sketch:type="MSShapeGroup" xlink:href="#path-3"></use>
                    <use fill="url(#linearGradient-1)" fill-rule="evenodd" xlink:href="#path-3"></use>
                </g>
                <text id="TUE" sketch:type="MSTextLayer" transform="translate(198.291831, 112.390617) rotate(23.000000) translate(-198.291831, -112.390617) " font-family="MStiffHei PRC" font-size="6" font-weight="686" fill="#FFFFFF">
                    <tspan x="191.291831" y="114.890617">TUE</tspan>
                </text>
                <path d="M204.474414,125.381506 C204.848097,125.082028 205.39584,125.141559 205.695882,125.515147 C205.995923,125.888128 205.93628,126.434235 205.561989,126.73432 L190.848389,138.537274 C190.474098,138.836752 189.927572,138.777829 189.626313,138.404848 C189.326272,138.03126 189.385915,137.485153 189.760206,137.185068 L204.474414,125.381506 Z" id="Fill-23" fill="#FFFFFF" sketch:type="MSShapeGroup" transform="translate(197.661098, 131.959534) rotate(-75.000000) translate(-197.661098, -131.959534) "></path>
                <path d="M201.341902,127.255939 C201.444148,127.723683 201.147149,128.185961 200.678524,128.288014 C200.210508,128.390067 199.747361,128.094234 199.644507,127.625882 L197.221656,116.640569 C197.118802,116.173432 197.416409,115.711155 197.884426,115.608494 C198.353659,115.506441 198.816806,115.803489 198.919052,116.270626 L201.341902,127.255939 Z" id="Fill-25" fill="#FFFFFF" sketch:type="MSShapeGroup" transform="translate(199.281687, 121.948282) rotate(94.000000) translate(-199.281687, -121.948282) "></path>
                <path d="M170.041459,112.845841 C169.611176,112.631407 169.435898,112.109599 169.650127,111.679517 C169.864355,111.250043 170.387754,111.075701 170.818037,111.28892 L173.961474,112.852523 C174.391757,113.066349 174.567035,113.588765 174.352807,114.018239 C174.137969,114.447714 173.615179,114.622662 173.184896,114.408229 L170.041459,112.845841 Z" id="Fill-27" fill="#FFFFFF" sketch:type="MSShapeGroup"></path>
                <path d="M204.452512,100.0441 C204.666741,99.6140184 205.19014,99.4396773 205.620423,99.6535033 C206.050705,99.8673294 206.225983,100.389138 206.011146,100.818612 L204.445209,103.956145 C204.231589,104.385619 203.70819,104.561175 203.277299,104.346742 C202.847016,104.133523 202.671738,103.611107 202.886575,103.181025 L204.452512,100.0441 Z" id="Fill-29" fill="#FFFFFF" sketch:type="MSShapeGroup"></path>
                <path d="M217.278345,134.389968 C217.708628,134.603794 217.883906,135.12621 217.669677,135.555685 C217.455449,135.985159 216.93205,136.160108 216.501767,135.945674 L213.35833,134.382679 C212.928047,134.16946 212.752769,133.647044 212.966998,133.216962 C213.181835,132.787488 213.704625,132.613147 214.134908,132.82758 L217.278345,134.389968 Z" id="Fill-31" fill="#FFFFFF" sketch:type="MSShapeGroup"></path>
                <path d="M182.867292,147.191709 C182.653063,147.621183 182.129664,147.796132 181.699382,147.582306 C181.269099,147.36848 181.093821,146.846064 181.308658,146.41659 L182.874595,143.279664 C183.088215,142.849582 183.611614,142.674634 184.042505,142.889067 C184.472788,143.102893 184.648066,143.624702 184.433229,144.054176 L182.867292,147.191709 Z" id="Fill-33" fill="#FFFFFF" sketch:type="MSShapeGroup"></path>
                <path d="M178.60585,102.501217 C178.341107,102.103938 178.44883,101.566335 178.847465,101.300875 C179.246101,101.03663 179.784715,101.144758 180.050066,101.542644 L181.989686,104.463921 C182.254428,104.862415 182.146097,105.39941 181.747461,105.664263 C181.349435,105.929723 180.810821,105.820987 180.546078,105.423708 L178.60585,102.501217 Z" id="Fill-35" fill="#FFFFFF" sketch:type="MSShapeGroup"></path>
                <path d="M214.815996,108.592464 C215.214023,108.327612 215.753246,108.43574 216.018597,108.833019 C216.283339,109.231513 216.175008,109.768508 215.776981,110.03336 L212.849598,111.969336 C212.450963,112.233582 211.91174,112.125454 211.646998,111.728175 C211.381646,111.330288 211.489978,110.792686 211.888005,110.527833 L214.815996,108.592464 Z" id="Fill-37" fill="#FFFFFF" sketch:type="MSShapeGroup"></path>
                <path d="M208.713894,144.734593 C208.979245,145.131264 208.870913,145.669474 208.472278,145.934327 C208.073643,146.19918 207.535029,146.090444 207.269677,145.693165 L205.330058,142.771281 C205.065315,142.373394 205.173647,141.835792 205.572282,141.570939 C205.970309,141.306087 206.509532,141.414214 206.774274,141.811494 L208.713894,144.734593 Z" id="Fill-39" fill="#FFFFFF" sketch:type="MSShapeGroup"></path>
                <path d="M172.503808,138.643345 C172.105781,138.908198 171.566559,138.80007 171.301207,138.401576 C171.036465,138.004297 171.144796,137.467302 171.543432,137.202449 L174.470206,135.265865 C174.86945,135.00162 175.407456,135.110356 175.672807,135.507635 C175.937549,135.904914 175.829826,136.443124 175.431191,136.707976 L172.503808,138.643345 Z" id="Fill-41" fill="#FFFFFF" sketch:type="MSShapeGroup"></path>
                <path d="M191.199318,97.8171507 C191.168888,97.3390795 191.533441,96.9272214 192.011804,96.8968483 C192.490775,96.8676902 192.903408,97.2303441 192.933838,97.7078079 L193.149284,101.206779 C193.179105,101.684243 192.81516,102.096709 192.336798,102.126474 C191.857827,102.156847 191.445194,101.793586 191.414764,101.315515 L191.199318,97.8171507 Z" id="Fill-43" fill="#FFFFFF" sketch:type="MSShapeGroup"></path>
                <path d="M219.509486,121.161669 C219.987848,121.131904 220.400482,121.495165 220.430912,121.973236 C220.461342,122.4507 220.096788,122.862558 219.618426,122.892931 L216.11287,123.107972 C215.634507,123.138345 215.221874,122.774476 215.191444,122.297013 C215.161622,121.818941 215.525567,121.407083 216.00393,121.37671 L219.509486,121.161669 Z" id="Fill-45" fill="#FFFFFF" sketch:type="MSShapeGroup"></path>
                <path d="M196.120486,149.418659 C196.150916,149.896122 195.786363,150.30798 195.308001,150.338353 C194.82903,150.368726 194.416396,150.005465 194.385966,149.527394 L194.170521,146.028422 C194.140699,145.550959 194.504644,145.1391 194.983615,145.108727 C195.461977,145.078354 195.87461,145.442223 195.905041,145.919687 L196.120486,149.418659 Z" id="Fill-47" fill="#FFFFFF" sketch:type="MSShapeGroup"></path>
                <path d="M167.810318,126.07414 C167.331956,126.103906 166.919323,125.740037 166.888893,125.262573 C166.859071,124.785109 167.223016,124.372644 167.701378,124.342271 L171.206935,124.12723 C171.685297,124.097464 172.09793,124.460725 172.128969,124.938797 C172.158791,125.416261 171.794846,125.828726 171.315875,125.858492 L167.810318,126.07414 Z" id="Fill-49" fill="#FFFFFF" sketch:type="MSShapeGroup"></path>
                <path d="M271.878861,106.162866 L288.393626,115.830389 L244.414108,202.697824 L230.853203,195.955014 L271.878861,106.162866 Z" id="Fill-51" fill="#FFFFFF" sketch:type="MSShapeGroup"></path>
            </g>
        </g>
    </g>
</svg>