<?xml version="1.0" encoding="UTF-8" standalone="no"?>
<svg width="14px" height="20px" viewBox="0 0 14 20" version="1.1" xmlns="http://www.w3.org/2000/svg" xmlns:xlink="http://www.w3.org/1999/xlink" xmlns:sketch="http://www.bohemiancoding.com/sketch/ns">
    <!-- Generator: Sketch 3.4 (15575) - http://www.bohemiancoding.com/sketch -->
    <title>HNA</title>
    <desc>Created with Sketch.</desc>
    <defs>
        <path id="path-1" d="M0.732177934,16.1681938 C0.732177934,16.1681938 0.883534938,8.0366549 1.17690026,6.08373923 C1.47026559,4.13082355 2.30455816,1.7469405 2.30455816,1.7469405 L3.00370069,0.592817209 C3.00370069,0.592817209 3.61818119,0.693023664 4.57897945,0.919614 C5.53977772,1.14620433 6.8560917,1.05230439 6.8560917,1.05230439 C6.8560917,1.05230439 7.45780759,1.42537199 7.4578071,2.36782997 C7.45780661,3.31028796 6.97419814,6.90188828 6.71572592,9.52049008 C6.45725371,12.1390919 5.847748,17.3734779 5.847748,17.3734779 L0.732177934,16.1681938 Z"></path>
        <ellipse id="path-3" cx="1.21875" cy="1.25720621" rx="1.21875" ry="1.25720621"></ellipse>
    </defs>
    <g id="Page-1" stroke="none" stroke-width="1" fill="none" fill-rule="evenodd" sketch:type="MSPage">
        <g id="5" sketch:type="MSArtboardGroup" transform="translate(-164.000000, -325.000000)">
            <g id="HNA" sketch:type="MSLayerGroup" transform="translate(164.000000, 325.000000)">
                <path d="M9.16074562,19.5869637 L0.4353109,17.4533958 C0.4353109,17.4533958 0.360391418,12.4899862 0.9883746,9.74238873 C1.61635778,6.9947912 2.8974049,3.16545618 4.40990306,2.14325333 C5.92240122,1.12105047 6.29688145,1.1173997 7.12792135,1.01147516 C7.95896126,0.905550616 10.5556857,1.01147516 10.5556857,1.01147516 C10.5556857,1.01147516 11.9308986,1.54189296 12.3720168,2.96142173 C12.8131351,4.3809505 12.9369505,7.44651293 12.9369504,8.15270492 C12.9369503,8.85889692 13,18.1606205 13,18.1606205 L9.16074562,19.5869637 Z" id="Path-1585" fill="#47A7FB" sketch:type="MSShapeGroup"></path>
                <g id="Path-1587" transform="translate(1.843750, 1.838137)">
                    <path d="M7.40038361,17.7124709 C7.40038361,17.7124709 8.3915334,5.06755996 9.40966787,3.10259734 C10.4278023,1.13763472 10.6421522,2.0831626 10.7700194,2.44524878 C11.2325462,3.75500223 11.2325463,16.1993236 11.2325463,16.1993236 L7.40038361,17.7124709 Z" id="Path-1640" fill="#3C8DD3" sketch:type="MSShapeGroup"></path>
                    <mask id="mask-2" sketch:name="Mask" fill="white">
                        <use xlink:href="#path-1"></use>
                    </mask>
                    <use id="Mask" fill="#448DE5" sketch:type="MSShapeGroup" xlink:href="#path-1"></use>
                    <path d="M4.01519779,15.9394501 L4.45474534,9.62985825 L2.70006824,0.797511915 C2.70006824,0.797511915 0.461803021,5.96271447 0.461802993,8.12160165 C0.461802966,10.2804888 0.740112309,16.1174897 0.740112309,16.1174897 L4.01519779,15.9394501 Z" id="Path-1607" fill="#3C7CCA" sketch:type="MSShapeGroup" mask="url(#mask-2)"></path>
                    <path d="M0.657894737,2.89337112 L4.05493153,3.43307095 L6.41340692,2.05787363 L6.28017009,1.74240845 L4.05493153,3.12636929 L0.733633377,2.63019021 L0.657894737,2.89337112 Z M4.19024647,4.62282925 L6.54552396,3.08968387 L6.54552405,2.74240845 L4.19024647,4.26375943 L0.732397547,3.59196281 L0.657894737,3.85554997 L4.19024647,4.62282925 Z M4.25573719,5.70089322 L7.41290126,3.68760879 L7.27545179,3.44478967 L4.25573719,5.35940152 L0.735295867,4.56091637 L0.657894737,4.8264571 L4.25573719,5.70089322 Z M0.740901868,5.74028194 L4.38623039,6.75655729 L7.57964203,4.9877864 L7.45849872,4.74496728 L4.31842033,6.41201383 L0.740901868,5.41544718 L0.740901868,5.74028194 Z M4.37586863,7.77519052 L7.49841155,6.02738027 L7.37396286,5.78456115 L4.39594083,7.49500243 L0.765751284,6.42157315 L0.765751284,6.77987581 L4.37586863,7.77519052 Z M4.46160158,8.91803376 L7.49841155,7.22101987 L7.37396286,6.97820075 L4.46160158,8.57275265 L0.789123532,7.61312463 L0.855285641,7.94811727 L4.46160158,8.91803376 Z M4.37078883,9.99572327 L7.49841155,8.23102261 L7.36908083,7.98820349 L4.44653559,9.67270309 L0.81733359,8.7244967 L0.743421053,8.98973457 L4.37078883,9.99572327 Z M4.37078883,10.9944345 L7.49841155,9.4010847 L7.36908083,9.1818431 L4.37078883,10.6658493 L0.81733359,9.8466429 L0.743421053,10.0861264 L4.37078883,10.9944345 Z M4.37078883,11.9126188 L7.49841155,10.319269 L7.36908083,10.1000274 L4.37078883,11.5840336 L0.81733359,10.7648272 L0.743421053,11.0043107 L4.37078883,11.9126188 Z M4.28526251,12.9226216 L7.41288523,11.3292717 L7.28355451,11.1100301 L4.28526251,12.5940363 L0.731807274,11.7748299 L0.657894737,12.0143135 L4.28526251,12.9226216 Z M4.28526251,14.0244428 L7.41288523,12.4310929 L7.28355451,12.2118513 L4.28526251,13.6958575 L0.731807274,12.8766511 L0.657894737,13.1161346 L4.28526251,14.0244428 Z M4.28526251,15.1262639 L7.41288523,13.5329141 L7.28355451,13.3136725 L4.28526251,14.7976787 L0.731807274,13.9784723 L0.657894737,14.2179558 L4.28526251,15.1262639 Z M4.28526251,16.1821759 L7.41288523,14.5888261 L7.28355451,14.3695845 L4.28526251,15.8535906 L0.731807274,15.0343843 L0.657894737,15.2738678 L4.28526251,16.1821759 Z" id="Shape" opacity="0.593866604" fill="#FFFFFF" sketch:type="MSShapeGroup" mask="url(#mask-2)">
                        <g transform="translate(4.118768, 8.962292) scale(1, -1) translate(-4.118768, -8.962292) "></g>
                    </path>
                    <path d="M4.40613499,9.71814755 L7.67436656,0.0177333321 L2.00587951,0.667349348 L4.40613499,9.71814755 Z" fill="#2490ED" sketch:type="MSShapeGroup" mask="url(#mask-2)"></path>
                    <path d="M4.73038729,8.47600396 L4.8149414,8.22662084 L4.05004883,8.08160131 L4.14807129,8.36376683 L4.73038729,8.47600396 Z M5.04634046,7.4277719 L5.16255165,7.11116727 L3.81365967,7.11116727 L3.89288103,7.38604844 L5.04634046,7.4277719 Z M5.32989503,6.65148657 L5.4381714,6.34838599 L3.56578947,6.17398733 L3.64501083,6.4488685 L5.32989503,6.65148657 Z M5.59332265,5.94640837 L5.6954955,5.58078788 L3.29919661,5.21516739 L3.37841797,5.49004856 L5.59332265,5.94640837 Z M5.910253,5.00030579 L6.02783198,4.71905252 L3.04830141,4.19728943 L3.13136139,4.50127345 L5.910253,5.00030579 Z M6.1878663,4.03930399 L6.33948739,3.6288796 L2.77129131,3.15225772 L2.88629151,3.4949314 L6.1878663,4.03930399 Z M6.5492552,3.10656469 L6.66168213,2.8279392 L2.46661377,2.19360083 L2.5748291,2.46123999 L6.5492552,3.10656469 Z" id="Shape" opacity="0.605410448" fill="#FFFFFF" sketch:type="MSShapeGroup" mask="url(#mask-2)"></path>
                    <path d="M7.19058446,2.46284509 L7.1905843,2.00071848 C7.1905843,2.00071848 5.54478335,2.05717379 4.45823168,1.87806112 C3.37168002,1.69894844 2.75826409,1.26105082 2.75826409,1.26105082 L2.51095228,1.62452102 L7.19058446,2.46284509 Z" id="Shape-Copy-15" opacity="0.343983209" fill="#FFFFFF" sketch:type="MSShapeGroup" mask="url(#mask-2)"></path>
                    <path d="M0.80807553,16.1326249 L3.98326629,15.9270343 L5.90928604,17.3773042 L0.80807553,16.1326249 Z" id="Path-1639" fill="#3269AA" sketch:type="MSShapeGroup" mask="url(#mask-2)"></path>
                </g>
                <g id="Oval-108-Copy" transform="translate(5.000000, 3.000000)">
                    <mask id="mask-4" sketch:name="Mask" fill="white">
                        <use xlink:href="#path-3"></use>
                    </mask>
                    <use id="Mask" fill="#5FA3F3" sketch:type="MSShapeGroup" xlink:href="#path-3"></use>
                    <ellipse opacity="0.710704291" fill="#FFFFFF" sketch:type="MSShapeGroup" mask="url(#mask-4)" cx="0.781911376" cy="0.80658366" rx="1.15691138" ry="1.19341634"></ellipse>
                </g>
            </g>
        </g>
    </g>
</svg>