<?xml version="1.0" encoding="UTF-8" standalone="no"?>
<svg width="79px" height="11px" viewBox="0 0 79 11" version="1.1" xmlns="http://www.w3.org/2000/svg" xmlns:xlink="http://www.w3.org/1999/xlink" xmlns:sketch="http://www.bohemiancoding.com/sketch/ns">
    <!-- Generator: Sketch 3.4 (15575) - http://www.bohemiancoding.com/sketch -->
    <title>HYUDAI</title>
    <desc>Created with Sketch.</desc>
    <defs></defs>
    <g id="Page-1" stroke="none" stroke-width="1" fill="none" fill-rule="evenodd" sketch:type="MSPage">
        <g id="2" sketch:type="MSArtboardGroup" transform="translate(-52.000000, -152.000000)" fill="#FFFFFF">
            <g id="carlogo" sketch:type="MSLayerGroup" transform="translate(17.000000, 152.000000)">
                <path d="M51.6532861,1.804 C50.0227268,1.088 47.9145894,0.654 45.6166197,0.654 C45.4767433,0.654 45.3388652,0.656 45.1989887,0.66 C44.0260251,1.848 43.3566166,2.896 43.2686942,3.562 C42.9649626,5.84 47.6068613,4.936 51.6532861,1.804 M48.8817349,10.038 C52.4305993,9.35 55.1941576,7.186 55.1941576,5.59 C55.1941576,3.992 54.2749697,3.212 52.9921032,2.526 C51.5393867,6.116 49.6910198,9.212 48.8817349,10.038 M39.5040205,9.16 C41.144571,9.896 43.2826819,10.344 45.6166197,10.344 C45.8304308,10.344 45.5486798,10.35 45.8204397,10.324 C51.0997751,5.27 45.2449481,4.882 39.5040205,9.16 M42.4094534,0.95 C38.3390498,1.764 35.9511596,3.872 35.9511596,5.454 C35.9511596,7.036 36.9522751,7.578 38.1132493,8.384 C39.2282641,5.868 41.0966134,2.312 42.4094534,0.95 M45.6166197,0 C51.465452,0 56.2352377,2.47 56.2352377,5.5 C56.2352377,8.528 51.465452,11 45.6166197,11 C39.7697857,11 35,8.528 35,5.5 C35,2.47 39.7697857,0 45.6166197,0 Z M111.200474,9.3812 L114,9.3812 L114,1.4052 L111.200474,1.4052 L111.200474,9.3812 Z M73.6954109,6.0186 L73.6954109,9.3826 L71.2315878,9.3826 L71.2315878,6.3986 L68.3481354,1.4346 L71.0077855,1.4226 L72.3525973,3.6086 L73.6974091,1.4226 L76.3590574,1.4346 L73.6954109,6.0186 Z M81.7504939,1.4048 L84.214317,1.4048 L84.214317,7.6528 C84.1943346,8.7208 83.728746,9.3128 82.8135546,9.4308 L76.9787099,9.4308 L76.9787099,9.3808 L76.8308406,9.3808 L76.8308406,1.4048 L79.2926655,1.4048 L79.2926655,7.1788 L81.7504939,7.1788 L81.7504939,1.4048 Z M92.9521967,2.494 L92.9521967,9.382 L90.4883736,9.382 L90.4883736,3.658 L88.1384498,3.658 L88.1384498,9.382 L85.6746267,9.382 L85.6746267,1.404 L88.1384498,1.404 L88.1384498,1.408 L91.5933972,1.406 C92.4366522,1.53 93.0021525,1.824 92.9521967,2.494 Z M60.2602814,1.4728 L62.7241045,1.4728 L62.7241045,4.4208 L65.5216328,4.4208 L65.5216328,1.4728 L67.9854559,1.4728 L67.9854559,9.3808 L65.5216328,9.3808 L65.5216328,6.6708 L62.7241045,6.6708 L62.7241045,9.3808 L60.2602814,9.3808 L60.2602814,1.4728 Z M99.332959,3.3472 L96.5334325,3.3472 L96.5334325,7.3972 L99.332959,7.3972 L99.332959,3.3472 Z M94.0716076,9.3812 L94.0716076,1.4052 L96.5354307,1.4052 L96.5354307,1.4092 L99.332959,1.4092 L99.332959,1.4052 L100.819645,1.4052 C101.295225,1.4952 101.618939,1.7912 101.796782,2.2892 L101.796782,7.6012 C101.842741,8.7612 101.181326,9.2732 100.036338,9.3432 L94.0716076,9.3812 Z M107.845438,3.3632 L105.157812,3.3632 L105.157812,4.3712 L107.845438,4.3712 L107.845438,3.3632 Z M110.313257,1.3572 L110.305264,9.3812 L107.84344,9.3812 L107.84344,6.4672 L105.155814,6.4672 L105.155814,9.3812 L102.691991,9.3812 L102.691991,2.2392 C102.757933,1.6892 103.101629,1.2932 103.894928,1.3572 L110.313257,1.3572 Z" id="HYUDAI" sketch:type="MSShapeGroup"></path>
            </g>
        </g>
    </g>
</svg>