<?xml version="1.0" encoding="UTF-8" standalone="no"?>
<svg width="154px" height="317px" viewBox="0 0 154 317" version="1.1" xmlns="http://www.w3.org/2000/svg" xmlns:xlink="http://www.w3.org/1999/xlink" xmlns:sketch="http://www.bohemiancoding.com/sketch/ns">
    <!-- Generator: Sketch 3.4 (15575) - http://www.bohemiancoding.com/sketch -->
    <title>iPhone Body white</title>
    <desc>Created with Sketch.</desc>
    <defs>
        <path id="path-1" d="M3.11083949,57 L0.88871604,57 C0.399799989,57 0,56.634375 0,56.1875 L0,44.8125 C0,44.365625 0.399799989,44 0.88871604,44 L3.11083949,44 C3.59997778,44 4,44.365625 4,44.8125 L4,56.1875 C4,56.634375 3.59997778,57 3.11083949,57"></path>
        <path id="path-2" d="M3.11083949,90 L0.88871604,90 C0.399799989,90 0,89.64 0,89.2 L0,80.8 C0,80.36 0.399799989,80 0.88871604,80 L3.11083949,80 C3.59997778,80 4,80.36 4,80.8 L4,89.2 C4,89.64 3.59997778,90 3.11083949,90"></path>
        <path id="path-3" d="M3.11083949,107 L0.88871604,107 C0.399799989,107 0,106.64 0,106.2 L0,97.8 C0,97.36 0.399799989,97 0.88871604,97 L3.11083949,97 C3.59997778,97 4,97.36 4,97.8 L4,106.2 C4,106.64 3.59997778,107 3.11083949,107"></path>
        <path id="path-4" d="M129.173913,4 L111.826087,4 C111.371739,4 111,3.59997778 111,3.11106173 L111,0.888938274 C111,0.400022223 111.371739,0 111.826087,0 L129.173913,0 C129.628261,0 130,0.400022223 130,0.888938274 L130,3.11106173 C130,3.59997778 129.628261,4 129.173913,4"></path>
    </defs>
    <g id="Page-1" stroke="none" stroke-width="1" fill="none" fill-rule="evenodd" sketch:type="MSPage">
        <g id="iPhone-6" sketch:type="MSArtboardGroup" transform="translate(-111.000000, -176.000000)">
            <g id="iPhone-Body-white" sketch:type="MSLayerGroup" transform="translate(111.000000, 176.000000)">
                <g id="Lock-Switch">
                    <use fill="none" sketch:type="MSShapeGroup" xlink:href="#path-1"></use>
                    <use fill="#FFFFFF" fill-rule="evenodd" xlink:href="#path-1"></use>
                </g>
                <g id="Volume-Up">
                    <use fill="none" sketch:type="MSShapeGroup" xlink:href="#path-2"></use>
                    <use fill="#FFFFFF" fill-rule="evenodd" xlink:href="#path-2"></use>
                </g>
                <g id="Volume-Down">
                    <use fill="none" sketch:type="MSShapeGroup" xlink:href="#path-3"></use>
                    <use fill="#FFFFFF" fill-rule="evenodd" xlink:href="#path-3"></use>
                </g>
                <g id="Power-Button">
                    <use fill="none" sketch:type="MSShapeGroup" xlink:href="#path-4"></use>
                    <use fill="#FFFFFF" fill-rule="evenodd" xlink:href="#path-4"></use>
                </g>
                <path d="M22.7016129,316 C11.286703,316 2,306.754579 2,295.389961 L2,22.6100386 C2,11.2456229 11.286703,2 22.7016129,2 L132.298387,2 C143.7135,2 153,11.2456229 153,22.6100386 L153,295.389961 C153,306.754579 143.7135,316 132.298387,316 L22.7016129,316 Z M12.5281003,44.2495444 L141.892081,44.2495444 L141.892081,273.343714 L12.5281003,273.343714 L12.5281003,44.2495444 Z" id="Body-Outline" fill="#FFFFFF" sketch:type="MSShapeGroup"></path>
                <path d="M132.86631,2.80872914 C144.042781,2.80872914 153.187166,11.906932 153.187166,23.0269576 L153.187166,295.973042 C153.187166,307.093068 144.042781,316.191271 132.86631,316.191271 L23.1336898,316.191271 C11.9572193,316.191271 2.81283422,307.093068 2.81283422,295.973042 L2.81283422,23.0269576 C2.81283422,11.906932 11.9572193,2.80872914 23.1336898,2.80872914 L132.86631,2.80872914 M132.86631,2 L23.1336898,2 C17.5111123,2 12.2100107,4.19347561 8.20720856,8.17606226 C4.20440642,12.1586489 2,17.432776 2,23.0269576 L2,295.973042 C2,301.567224 4.20440642,306.841351 8.20720856,310.823938 C12.2100107,314.806727 17.5111123,317 23.1336898,317 L132.86631,317 C138.488888,317 143.789786,314.806727 147.792588,310.823938 C151.79539,306.841351 154,301.567224 154,295.973042 L154,23.0269576 C154,17.432776 151.79539,12.1586489 147.792588,8.17606226 C143.789786,4.19347561 138.488888,2 132.86631,2" id="Body" fill="#FFFFFF" sketch:type="MSShapeGroup"></path>
                <path d="M90,295.5 C90,302.403484 84.4034836,308 77.5,308 C70.5963115,308 65,302.403484 65,295.5 C65,288.596516 70.5963115,283 77.5,283 C84.4034836,283 90,288.596516 90,295.5 L90,295.5 Z" id="Button" fill="#FFFFFF" sketch:type="MSShapeGroup"></path>
                <path d="M90,295.5 C90,302.403484 84.4034836,308 77.5,308 C70.5963115,308 65,302.403484 65,295.5 C65,288.596516 70.5963115,283 77.5,283 C84.4034836,283 90,288.596516 90,295.5 L90,295.5 Z" id="Button-Storke" stroke="#CBCCCB" stroke-width="1.25" sketch:type="MSShapeGroup"></path>
                <path d="M59,26.5 C59,27.3283786 58.3284221,28 57.5000974,28 C56.6715779,28 56,27.3283786 56,26.5 C56,25.6714267 56.6715779,25 57.5000974,25 C58.3284221,25 59,25.6714267 59,26.5" id="Camera" fill="#CBCCCB" sketch:type="MSShapeGroup"></path>
                <path d="M87.6,29 L66.4,29 C65.63,29 65,28.325 65,27.5 C65,26.675 65.63,26 66.4,26 L87.6,26 C88.37,26 89,26.675 89,27.5 C89,28.325 88.37,29 87.6,29" id="Speaker" fill="#CBCCCB" sketch:type="MSShapeGroup"></path>
                <path d="M79,17 C79,17.5523352 78.552192,18 78.0000923,18 C77.447808,18 77,17.5523352 77,17 C77,16.4476648 77.447808,16 78.0000923,16 C78.552192,16 79,16.4476648 79,17" id="Speaker" fill="#CBCCCB" sketch:type="MSShapeGroup"></path>
            </g>
        </g>
    </g>
</svg>