<?xml version="1.0" encoding="UTF-8" standalone="no"?>
<svg width="35px" height="23px" viewBox="0 0 35 23" version="1.1" xmlns="http://www.w3.org/2000/svg" xmlns:xlink="http://www.w3.org/1999/xlink" xmlns:sketch="http://www.bohemiancoding.com/sketch/ns">
    <!-- Generator: Sketch 3.4 (15575) - http://www.bohemiancoding.com/sketch -->
    <title>JAGUAER</title>
    <desc>Created with Sketch.</desc>
    <defs></defs>
    <g id="Page-1" stroke="none" stroke-width="1" fill="none" fill-rule="evenodd" sketch:type="MSPage">
        <g id="2" sketch:type="MSArtboardGroup" transform="translate(-96.000000, -185.000000)" fill="#FFFFFF">
            <g id="carlogo" sketch:type="MSLayerGroup" transform="translate(17.000000, 152.000000)">
                <g id="JAGUAER" transform="translate(79.000000, 33.000000)">
                    <path d="M4.7145,5.0191 C4.7185,5.0181 4.7235,5.0171 4.7275,5.0171 L4.7145,5.0191 Z M0.4795,3.4151 C0.4775,3.4181 0.4745,3.4211 0.4725,3.4241 L0.4795,3.4151 Z M6.7265,6.0991 C6.8825,6.0141 7.0685,5.9551 7.2785,5.9151 C6.8905,5.4841 6.6535,5.2251 6.3495,5.0971 C6.0185,4.9581 5.5685,4.9511 4.7145,5.0191 C4.6705,5.0351 4.6145,5.0941 4.5505,5.1591 C4.4355,5.2761 4.3055,5.4081 4.1005,5.4671 C4.0195,5.4901 3.9315,5.6361 3.8395,5.7891 L3.8395,5.7901 C3.6275,6.1421 3.3975,6.5251 2.8675,6.3021 L2.8655,6.3021 L2.8675,6.3021 L2.8655,6.3021 C2.1365,6.0001 2.0015,5.6891 2.1285,5.3841 C2.2205,5.1591 2.4685,4.9731 2.7035,4.7971 C2.8885,4.6591 3.0625,4.5271 3.0875,4.4411 C3.0935,4.4161 3.0975,4.3901 3.0995,4.3631 L3.0995,4.3621 C3.1065,4.2561 3.0725,4.1611 3.0015,4.0871 C2.9195,4.0001 2.7855,3.9311 2.6055,3.8881 C2.5235,3.8691 2.4295,3.8541 2.3255,3.8471 C2.1675,3.8721 2.0745,4.0621 1.9535,4.3071 L1.9545,4.3071 C1.8645,4.4901 1.7605,4.7011 1.5985,4.9151 L1.5245,4.9721 C1.3055,5.0531 1.0995,5.0501 0.9115,4.9861 C0.7105,4.9171 0.5325,4.7791 0.3775,4.5991 C0.3765,4.5971 0.3745,4.5941 0.3725,4.5931 L0.3775,4.5991 C0.3755,4.5971 0.3745,4.5951 0.3725,4.5931 C0.2505,4.4631 0.1035,4.2981 0.0365,4.0751 L0.0365,4.0741 L0.0365,4.0751 C0.0355,4.0741 0.0365,4.0741 0.0365,4.0741 C-0.0345,3.8401 -0.0145,3.5571 0.2135,3.2201 L0.2285,3.2011 C0.3565,3.0601 0.5215,2.9011 0.6875,2.7421 C0.7795,2.6541 0.8735,2.5631 0.9675,2.4691 C1.0995,2.2081 1.2985,2.0071 1.5425,1.8341 C1.7845,1.6641 2.0705,1.5221 2.3865,1.3761 C2.4475,1.3481 2.5075,1.2981 2.5715,1.2451 C2.7685,1.0821 3.0005,0.8901 3.5765,0.8901 C4.2315,0.8611 4.8245,0.8211 5.3675,0.7861 C6.6915,0.6991 7.7285,0.6301 8.9345,0.7561 L8.9495,0.7581 C13.5845,1.6891 18.4015,4.0591 22.5185,6.0841 C23.5015,6.5671 24.4455,7.0321 25.3155,7.4421 C26.4475,7.9751 27.5055,8.6081 28.4485,9.2341 C29.3895,9.8591 30.2155,10.4801 30.8845,10.9901 L30.8855,10.9901 C31.4615,11.4351 31.9715,11.3931 32.6495,11.3371 L32.6505,11.3371 L32.6495,11.3371 L32.6505,11.3371 C32.9495,11.3121 33.2825,11.2851 33.6755,11.2931 L33.7065,11.2971 C34.0925,11.3811 34.3535,11.5761 34.4995,11.8151 C34.5985,11.9781 34.6445,12.1611 34.6415,12.3421 C34.6385,12.5211 34.5855,12.7021 34.4895,12.8621 C34.3365,13.1191 34.0685,13.3271 33.7065,13.4041 L33.6635,13.4081 C33.1895,13.3811 32.8715,13.3881 32.5785,13.3931 C32.3465,13.3971 32.1265,13.4011 31.8635,13.3901 C31.7825,13.4441 31.7105,13.5041 31.6375,13.5641 L31.6375,13.5651 C31.2215,13.9051 30.8235,14.2311 29.3675,13.7781 L29.3145,13.7501 C29.2525,13.7021 29.1875,13.6511 29.1215,13.6001 L29.1215,13.6001 L29.1215,13.6001 L29.1215,13.6001 C28.5425,13.1511 27.8485,12.6101 27.4525,12.0781 C26.8255,12.0341 26.1105,12.0271 25.4185,12.0211 C24.1145,12.0091 22.8855,11.9971 22.4425,11.7361 L22.4295,11.7271 C21.7395,11.2271 21.0945,10.7191 20.5085,10.1531 C19.9435,9.6071 19.4325,9.0081 18.9925,8.3131 C17.6525,8.3711 16.4615,8.3551 15.4995,8.3431 C14.8835,8.3351 14.3605,8.3281 13.9525,8.3421 L13.9355,8.3421 C13.1305,8.2861 12.8855,7.9421 12.7795,7.7731 C12.1825,7.7691 11.5855,7.7661 10.9885,7.7621 C10.3625,7.7591 9.7365,7.7541 9.1105,7.7501 L9.1075,7.7501 C8.8315,7.7451 8.6065,7.8021 8.4375,7.9201 C8.2715,8.0371 8.1515,8.2191 8.0805,8.4651 L8.0785,8.4711 C8.0495,8.5591 8.0035,8.6411 7.9445,8.7151 C7.8145,8.8781 7.6185,9.0051 7.4235,9.0771 C7.2195,9.1531 7.0065,9.1731 6.8515,9.1221 C6.8175,9.1101 6.7845,9.0951 6.7545,9.0771 C6.3905,9.0021 6.1345,8.8011 5.9685,8.5411 L5.9685,8.5401 C5.7735,8.2331 5.7085,7.8421 5.7465,7.4921 L5.7465,7.4901 C5.7335,7.3691 5.6795,6.8761 5.9725,6.5911 C6.1745,6.3381 6.4585,6.1941 6.7265,6.0991 L6.7265,6.0991 Z M13.0415,7.5681 C13.0435,7.5721 13.0465,7.5761 13.0485,7.5801 C13.1205,7.6951 13.2855,7.9621 13.9525,8.0101 C14.3625,7.9961 14.8865,8.0031 15.5035,8.0121 C16.4825,8.0241 17.6995,8.0411 19.0745,7.9791 L19.1695,7.9741 L19.2215,8.0571 C19.6575,8.7621 20.1685,9.3661 20.7375,9.9161 C21.3075,10.4661 21.9395,10.9641 22.6165,11.4551 C22.9905,11.6661 24.1695,11.6781 25.4205,11.6901 C26.1535,11.6971 26.9125,11.7051 27.5545,11.7531 L27.6325,11.7591 L27.6775,11.8241 C28.0345,12.3371 28.7395,12.8851 29.3235,13.3391 L29.3245,13.3391 C29.3825,13.3841 29.4385,13.4281 29.4935,13.4701 C30.7555,13.8571 31.0855,13.5891 31.4285,13.3081 L31.4285,13.3091 C31.4965,13.2541 31.5645,13.1971 31.6375,13.1441 C31.5605,13.0521 31.4925,12.9401 31.4205,12.8211 C31.2505,12.5421 31.0545,12.2191 30.6145,12.1961 L30.6075,12.1961 L30.6145,12.1961 L30.6075,12.1961 L30.2035,12.1961 L30.2195,12.1951 C29.5035,12.2671 28.9635,11.6261 28.4635,11.0331 L28.4645,11.0331 C28.2375,10.7641 28.0185,10.5041 27.8105,10.3481 C27.8095,10.3471 27.8095,10.3471 27.8085,10.3461 C27.4775,10.1451 27.1455,10.1721 26.7825,10.2021 C26.6405,10.2131 26.4925,10.2251 26.3265,10.2251 L26.3125,10.2251 C25.7255,10.1761 25.2715,9.6111 24.7835,9.0051 C24.4285,8.5631 24.0525,8.0961 23.6155,7.8271 L23.7885,7.5451 C24.2735,7.8431 24.6685,8.3331 25.0405,8.7981 C25.4805,9.3441 25.8895,9.8531 26.3345,9.8931 C26.4735,9.8931 26.6175,9.8811 26.7575,9.8711 C27.1745,9.8371 27.5565,9.8061 27.9825,10.0651 L27.9945,10.0731 C28.2385,10.2531 28.4735,10.5311 28.7165,10.8201 L28.7175,10.8201 C29.1625,11.3481 29.6455,11.9201 30.1875,11.8661 L30.2035,11.8651 L30.6215,11.8651 C31.2435,11.8921 31.4905,12.2971 31.7045,12.6491 C31.8505,12.8911 31.9775,13.0991 32.2285,13.0181 L32.2435,13.0651 C32.3545,13.0651 32.4635,13.0641 32.5735,13.0621 C32.8705,13.0561 33.1925,13.0491 33.6605,13.0751 C33.9135,13.0151 34.1005,12.8701 34.2065,12.6931 C34.2715,12.5821 34.3075,12.4581 34.3105,12.3351 C34.3125,12.2141 34.2825,12.0941 34.2175,11.9871 C34.1175,11.8241 33.9315,11.6881 33.6515,11.6231 C33.2915,11.6161 32.9685,11.6441 32.6765,11.6681 L32.6765,11.6681 C31.9275,11.7291 31.3635,11.7761 30.6845,11.2521 C30.6835,11.2521 30.6835,11.2511 30.6835,11.2511 L30.6845,11.2521 C30.6835,11.2521 30.6835,11.2511 30.6835,11.2511 C30.0195,10.7451 29.1995,10.1291 28.2665,9.5091 C27.3355,8.8911 26.2905,8.2661 25.1745,7.7401 C24.2735,7.3161 23.3425,6.8581 22.3735,6.3811 C18.2755,4.3661 13.4805,2.0071 8.8885,1.0831 C7.7915,0.9701 6.8155,1.0241 5.6115,1.1031 L5.9065,1.1911 C5.7625,1.6701 5.5455,1.9951 5.2935,2.2041 L5.2935,2.2041 C5.0475,2.4091 4.7695,2.5041 4.4895,2.5271 C4.2185,2.5501 3.9445,2.5051 3.6975,2.4301 C3.6975,2.4301 3.6975,2.4311 3.6965,2.4301 L3.6975,2.4301 C3.6975,2.4301 3.6975,2.4301 3.6965,2.4301 C3.2055,2.2821 2.8005,2.0011 2.7175,1.9011 L2.9725,1.6891 C3.0355,1.7641 3.3675,1.9851 3.7925,2.1131 L3.7935,2.1131 C4.0035,2.1771 4.2355,2.2151 4.4625,2.1961 C4.6795,2.1781 4.8945,2.1051 5.0815,1.9491 L5.0825,1.9491 C5.2855,1.7811 5.4635,1.5121 5.5875,1.1051 C5.5215,1.1091 5.4545,1.1131 5.3875,1.1171 C4.8515,1.1521 4.2665,1.1911 3.5895,1.2211 L3.5825,1.2211 C3.1205,1.2201 2.9375,1.3711 2.7825,1.5001 C2.7015,1.5671 2.6255,1.6291 2.5245,1.6761 C2.2245,1.8151 1.9535,1.9491 1.7325,2.1041 C1.6075,2.1931 1.4985,2.2901 1.4075,2.4001 C1.8865,2.2681 2.5995,2.1371 3.1505,3.0931 L3.0885,3.1491 C2.0465,2.1961 1.0215,2.9251 1.0185,2.9271 C0.9745,2.8651 0.5345,3.3551 0.4815,3.4131 C0.3255,3.6471 0.3095,3.8321 0.3535,3.9791 L0.3535,3.9791 C0.4005,4.1361 0.5205,4.2681 0.6185,4.3721 L0.6235,4.3781 C0.7425,4.5171 0.8755,4.6241 1.0175,4.6731 C1.1235,4.7091 1.2385,4.7121 1.3645,4.6751 C1.4885,4.5021 1.5785,4.3221 1.6575,4.1611 L1.6575,4.1611 C1.8275,3.8171 1.9575,3.5541 2.3045,3.5171 L2.3325,3.5151 C2.4555,3.5241 2.5725,3.5421 2.6795,3.5671 C2.9255,3.6251 3.1135,3.7251 3.2415,3.8591 C3.3785,4.0041 3.4445,4.1831 3.4305,4.3831 C3.4275,4.4241 3.4205,4.4701 3.4095,4.5181 L3.4085,4.5231 C3.3555,4.7201 3.1345,4.8871 2.9015,5.0611 C2.7025,5.2101 2.4915,5.3681 2.4335,5.5091 C2.3805,5.6371 2.4955,5.7921 2.9925,5.9971 L2.9935,5.9981 C3.2605,6.1101 3.4145,5.8541 3.5565,5.6191 L3.5565,5.6201 C3.6825,5.4091 3.8035,5.2081 4.0095,5.1491 C4.0535,5.1371 4.0955,5.1161 4.1345,5.0901 L4.0615,5.0181 C4.0645,5.0151 5.0805,4.0171 5.3165,3.0471 L5.3865,2.7591 L5.5935,2.9691 C7.6105,5.0041 8.5835,2.8991 8.5855,2.8941 L8.8825,3.0411 C8.8785,3.0481 7.7735,5.4321 5.5545,3.3901 C5.3795,3.8731 5.0675,4.3371 4.7975,4.6801 C5.6355,4.6171 6.0995,4.6341 6.4775,4.7931 C6.8765,4.9611 7.1395,5.2681 7.6085,5.7871 C7.6315,5.8131 7.6505,5.8391 7.6645,5.8631 C8.1225,5.8241 8.6505,5.8431 9.1925,5.8751 C9.1695,5.8581 9.1475,5.8421 9.1245,5.8241 C8.4515,5.4041 8.1935,4.9691 8.2375,4.5231 C8.2805,4.0871 8.6215,3.6651 9.1475,3.2541 L9.3505,3.5141 C8.8935,3.8721 8.5995,4.2211 8.5655,4.5551 C8.5345,4.8751 8.7525,5.2071 9.3145,5.5541 L9.3315,5.5651 C9.8055,5.9441 10.4005,5.9461 10.9945,5.9481 C11.1215,5.9481 11.2495,5.9491 11.3725,5.9521 L11.3775,6.2831 C10.8475,6.3151 10.2205,6.2741 9.5915,6.2341 C8.8265,6.1841 8.0565,6.1351 7.4825,6.2141 C7.4065,6.2461 7.3095,6.2711 7.2015,6.3001 C7.0975,6.3271 6.9805,6.3611 6.8585,6.4031 C6.8135,6.4311 6.7705,6.4601 6.7345,6.4941 L6.7055,6.4621 C6.5235,6.5391 6.3475,6.6471 6.2245,6.8041 L6.2075,6.8231 C6.0255,6.9941 6.0655,7.3641 6.0755,7.4541 C6.0775,7.4741 6.0785,7.4881 6.0785,7.4951 L6.0775,7.5151 C6.0435,7.8001 6.0925,8.1171 6.2485,8.3631 L6.2485,8.3621 C6.3735,8.5581 6.5695,8.7091 6.8495,8.7581 L6.9245,8.7921 C6.9315,8.7981 6.9425,8.8041 6.9545,8.8071 C7.0395,8.8351 7.1715,8.8181 7.3075,8.7681 C7.4515,8.7151 7.5935,8.6241 7.6855,8.5091 C7.7205,8.4651 7.7485,8.4171 7.7645,8.3681 L7.7625,8.3731 C7.8565,8.0521 8.0185,7.8091 8.2475,7.6481 C8.4745,7.4901 8.7635,7.4131 9.1115,7.4191 L9.1145,7.4191 L9.1115,7.4191 L9.1145,7.4191 C9.7395,7.4231 10.3655,7.4281 10.9895,7.4311 C11.5825,7.4341 12.1775,7.4401 12.7695,7.4431 C12.8505,7.1421 12.9825,6.8921 13.1965,6.7221 C13.3225,6.6221 13.4735,6.5511 13.6555,6.5171 C13.6035,6.4551 13.5495,6.3901 13.4945,6.3251 C13.0475,5.8021 12.5075,5.1701 12.1945,4.4941 C11.8895,3.9151 11.8665,3.5621 12.0055,3.3401 C12.1535,3.1071 12.4485,3.0451 12.7795,3.0281 L12.7965,3.3591 C12.5605,3.3711 12.3555,3.4041 12.2855,3.5171 C12.2075,3.6401 12.2465,3.8861 12.4885,4.3461 L12.4925,4.3531 C12.7875,4.9891 13.3115,5.6021 13.7455,6.1101 C13.8625,6.2481 13.9735,6.3791 14.0695,6.4961 C14.0965,6.4981 14.1235,6.5001 14.1505,6.5031 C14.6315,6.5001 15.1135,6.4961 15.5955,6.4931 C16.0785,6.4901 16.5635,6.4861 17.0465,6.4821 L17.0485,6.8131 C16.5645,6.8171 16.0805,6.8211 15.5965,6.8241 C15.1125,6.8271 14.6285,6.8311 14.1445,6.8351 L14.1255,6.8331 C13.7955,6.7951 13.5625,6.8541 13.4025,6.9811 C13.2385,7.1111 13.1375,7.3201 13.0755,7.5771 L13.0415,7.5681 Z" id="JAUGAR" sketch:type="MSShapeGroup"></path>
                    <text id="JAGUAR" sketch:type="MSTextLayer" font-family="Athelas" font-size="7" font-weight="normal" sketch:alignment="middle">
                        <tspan x="2.606" y="21">JAGUAR</tspan>
                    </text>
                </g>
            </g>
        </g>
    </g>
</svg>