<?xml version="1.0" encoding="UTF-8" standalone="no"?>
<svg width="28px" height="14px" viewBox="0 0 28 14" version="1.1" xmlns="http://www.w3.org/2000/svg" xmlns:xlink="http://www.w3.org/1999/xlink" xmlns:sketch="http://www.bohemiancoding.com/sketch/ns">
    <!-- Generator: Sketch 3.4 (15575) - http://www.bohemiancoding.com/sketch -->
    <title>KIA</title>
    <desc>Created with Sketch.</desc>
    <defs></defs>
    <g id="Page-1" stroke="none" stroke-width="1" fill="none" fill-rule="evenodd" sketch:type="MSPage">
        <g id="2" sketch:type="MSArtboardGroup" transform="translate(-40.000000, -298.000000)" fill="#FFFFFF">
            <g id="carlogo" sketch:type="MSLayerGroup" transform="translate(17.000000, 152.000000)">
                <path d="M37,147.660119 C29.8889299,147.660119 24.0926199,150.05947 24.0926199,152.998739 C24.0926199,155.94053 29.8889299,158.339881 37,158.339881 C44.1084871,158.339881 49.9073801,155.94053 49.9073801,152.998739 C49.9073801,150.05947 44.1084871,147.660119 37,147.660119 L37,147.660119 Z M28.5250923,149.794558 L28.5250923,149.799604 L28.1892989,149.799604 L28.1892989,150.074608 C28.3081181,150.072085 28.4217712,150.089746 28.5250923,150.127591 L28.5250923,156.321499 L30.4107011,156.321499 L30.4107011,153.412507 L32.5313653,156.160029 L34.7191882,156.160029 L32.1929889,152.887728 L34.3730627,149.794558 L32.1852399,149.794558 L30.4107011,152.315012 L30.4107011,149.794558 L28.5250923,149.794558 Z M36.3,149.794558 L36.3,149.799604 L35.9616236,149.799604 L35.9616236,150.074608 C36.0830258,150.072085 36.1940959,150.089746 36.3,150.127591 L36.3,156.321499 L38.1830258,156.321499 L38.1830258,149.794558 L36.3,149.794558 Z M41.7295203,149.645702 L41.7269373,149.945936 L42.0059041,149.948459 L40.0660517,156.321499 L41.9490775,156.321499 L43.3154982,151.659038 L44.6845018,156.321499 L46.5675277,156.321499 L44.6225092,149.645702 L43.8346863,149.645702 L42.7420664,149.645702 L41.7295203,149.645702 Z M37,146 C44.7103321,146 51,149.143629 51,152.998739 C51,156.856371 44.7103321,160 37,160 C29.2896679,160 23,156.856371 23,152.998739 C23,149.143629 29.2896679,146 37,146 L37,146 Z" id="KIA" sketch:type="MSShapeGroup"></path>
            </g>
        </g>
    </g>
</svg>