<?xml version="1.0" encoding="UTF-8" standalone="no"?>
<svg width="43px" height="163px" viewBox="0 0 43 163" version="1.1" xmlns="http://www.w3.org/2000/svg" xmlns:xlink="http://www.w3.org/1999/xlink" xmlns:sketch="http://www.bohemiancoding.com/sketch/ns">
    <!-- Generator: Sketch 3.4 (15575) - http://www.bohemiancoding.com/sketch -->
    <title>hand copy 6</title>
    <desc>Created with Sketch.</desc>
    <defs></defs>
    <g id="Page-1" stroke="none" stroke-width="1" fill="none" fill-rule="evenodd" sketch:type="MSPage">
        <g id="3" sketch:type="MSArtboardGroup" transform="translate(-155.000000, -504.000000)" fill="#B70117">
            <path d="M178.40616,525.286689 C178.13729,525.122072 177.846501,524.969681 177.530832,524.833003 L179.054606,507.090747 C179.191172,505.500624 178.004937,504.122484 176.405243,504.010623 L176.3711,504.008235 C174.767831,503.896124 173.384017,505.101061 173.27228,506.69898 L172.048664,524.197503 C171.681879,524.232916 171.326868,524.276768 170.983263,524.32838 L167.500301,508.089773 C167.165578,506.529193 165.625325,505.51237 164.059638,505.816709 L164.489087,505.733233 C162.922715,506.037704 161.900859,507.553449 162.205179,509.11904 L165.524142,526.193622 C165.201911,526.387224 164.90118,526.588609 164.620577,526.795251 L159.845474,515.667434 C159.242537,514.262359 157.583809,513.504067 156.137473,513.966452 L156.85061,513.738466 C155.39696,514.203189 154.672727,515.724375 155.216653,517.141352 L160.898763,531.943755 C160.858069,532.090758 160.842181,532.172478 160.842181,532.172478 L163.184699,551.566543 L161.698014,667 L183.744068,667 L182.572656,542.828151 L192.164205,533.742849 L197.8669,530.469513 C197.8669,530.469513 198.949635,528.142406 194.938857,527.140035 C190.928078,526.137664 186.803007,529.993866 183.744068,530.469513 C183.100535,530.641708 182.653653,530.387012 182.24206,529.895432 L188.08329,510.789629 C188.486375,509.471198 187.739937,508.072317 186.415395,507.667364 C185.081619,507.259587 183.690088,508.003738 183.286699,509.323164 L178.40616,525.286689 Z" id="hand-copy-6" sketch:type="MSShapeGroup"></path>
        </g>
    </g>
</svg>