<?xml version="1.0" encoding="UTF-8" standalone="no"?>
<svg width="35px" height="39px" viewBox="0 0 35 39" version="1.1" xmlns="http://www.w3.org/2000/svg" xmlns:xlink="http://www.w3.org/1999/xlink" xmlns:sketch="http://www.bohemiancoding.com/sketch/ns">
    <!-- Generator: Sketch 3.4 (15575) - http://www.bohemiancoding.com/sketch -->
    <title>LINCOLN</title>
    <desc>Created with Sketch.</desc>
    <defs></defs>
    <g id="Page-1" stroke="none" stroke-width="1" fill="none" fill-rule="evenodd" sketch:type="MSPage">
        <g id="2" sketch:type="MSArtboardGroup" transform="translate(-211.000000, -296.000000)" fill="#FFFFFF">
            <g id="carlogo" sketch:type="MSLayerGroup" transform="translate(17.000000, 152.000000)">
                <path d="M214.281242,159.247886 L212.165874,159.526061 L211.603827,169.33067 L213.537438,169.33067 C214.014199,165.971606 214.261668,162.611144 214.281242,159.247886 L214.281242,159.247886 Z M212.163078,158.135188 L214.281242,158.407771 C214.261668,155.047309 214.014199,151.686847 213.537438,148.331976 L211.592642,148.331976 L212.163078,158.135188 Z M208.413299,158.41476 L210.532861,158.137983 L211.09351,148.331976 L209.064827,148.331976 C208.655176,151.748353 208.437068,155.108815 208.413299,158.41476 L208.413299,158.41476 Z M210.534259,159.528857 L208.410503,159.254876 C208.42029,162.67265 208.637,166.033112 209.060633,169.33067 L211.104695,169.33067 L210.534259,159.528857 Z M208.319625,147.487667 L211.141047,147.487667 L211.340979,144 L211.543708,147.487667 L214.26726,147.487667 L214.321787,147.848316 C214.843289,151.407274 215.11173,154.962039 215.127109,158.516804 L217.513713,158.824334 L215.127109,159.137455 C215.11173,162.69222 214.843289,166.252576 214.321787,169.81433 L214.26726,170.174979 L211.556291,170.174979 L211.356358,173.661248 L211.15363,170.174979 L208.323819,170.174979 L208.274885,169.807341 C207.810706,166.319674 207.575821,162.764909 207.570228,159.145842 L205.185022,158.838312 L207.571626,158.525191 C207.592598,155.029137 207.824688,151.474372 208.273487,147.858101 L208.319625,147.487667 Z M195.210679,182.32061 C195.210679,182.412274 195.24527,182.476977 195.314452,182.514721 C195.383634,182.552466 195.478181,182.571337 195.598097,182.571337 L196.352177,182.571337 C196.485929,182.571337 196.601231,182.551118 196.698086,182.510677 C196.79494,182.470237 196.877958,182.412274 196.94714,182.336786 C197.016322,182.261298 197.077431,182.168287 197.130471,182.057751 C197.183511,181.947215 197.230784,181.821852 197.272293,181.68166 C197.28613,181.638524 197.313802,181.616956 197.355311,181.616956 C197.378372,181.616956 197.402585,181.623696 197.427952,181.637176 C197.453319,181.650656 197.479838,181.665484 197.507511,181.68166 C197.475226,181.84342 197.444095,182.014614 197.414116,182.195246 C197.384137,182.375879 197.357618,182.579424 197.334557,182.805889 C197.329945,182.865201 197.316109,182.902944 197.293048,182.91912 C197.269987,182.935296 197.242315,182.943384 197.21003,182.943384 C197.131624,182.943384 197.033617,182.936644 196.916008,182.923164 C196.798398,182.909684 196.69578,182.902944 196.608149,182.902944 L194.878607,182.902944 C194.772528,182.902944 194.638778,182.906988 194.477354,182.915076 C194.315929,182.923164 194.161425,182.9326 194.013836,182.943384 C194.004612,182.889464 194,182.846329 194,182.813977 C194,182.738488 194.02306,182.695353 194.069182,182.684569 C194.258279,182.646825 194.387417,182.605037 194.456599,182.559205 C194.525781,182.513373 194.560372,182.44193 194.560372,182.344874 L194.560372,178.220007 C194.560372,178.112166 194.528087,178.035331 194.463517,177.989499 C194.398947,177.943667 194.274422,177.904576 194.089936,177.872224 C194.066876,177.866832 194.04958,177.852004 194.03805,177.82774 C194.02652,177.803476 194.020755,177.775168 194.020755,177.742816 C194.020755,177.705072 194.025367,177.659241 194.034591,177.60532 C194.191403,177.616104 194.345908,177.62554 194.498108,177.633628 C194.650309,177.641716 194.779446,177.64576 194.885525,177.64576 C195.042338,177.64576 195.208372,177.641716 195.383634,177.633628 C195.558895,177.62554 195.715705,177.616104 195.854069,177.60532 C195.863293,177.659241 195.867905,177.702376 195.867905,177.734728 C195.867905,177.826392 195.842539,177.87492 195.791806,177.880312 C195.593484,177.907272 195.447051,177.946363 195.352502,177.997587 C195.257953,178.048811 195.210679,178.141822 195.210679,178.276622 L195.210679,182.32061 Z M200.024736,182.336786 C200.024736,182.444626 200.05702,182.518765 200.12159,182.559205 C200.18616,182.599645 200.306074,182.641433 200.481335,182.684569 C200.527456,182.695353 200.550517,182.738488 200.550517,182.813977 C200.550517,182.846329 200.545905,182.889464 200.53668,182.943384 C200.393704,182.9326 200.25073,182.923164 200.107754,182.915076 C199.964778,182.906988 199.828722,182.902944 199.699582,182.902944 C199.575054,182.902944 199.437845,182.906988 199.287951,182.915076 C199.138057,182.923164 198.996236,182.9326 198.862484,182.943384 C198.853259,182.889464 198.848647,182.846329 198.848647,182.813977 C198.848647,182.738488 198.871708,182.695353 198.917829,182.684569 C199.09309,182.646825 199.213004,182.606385 199.277574,182.563249 C199.342144,182.520113 199.374428,182.444626 199.374428,182.336786 L199.374428,178.220007 C199.374428,178.112166 199.342144,178.035331 199.277574,177.989499 C199.213004,177.943667 199.09309,177.904576 198.917829,177.872224 C198.890156,177.866832 198.871708,177.850656 198.862484,177.823696 C198.853259,177.796736 198.848647,177.76708 198.848647,177.734728 C198.848647,177.702376 198.853259,177.659241 198.862484,177.60532 C199.000848,177.616104 199.144975,177.62554 199.294869,177.633628 C199.444764,177.641716 199.579667,177.64576 199.699582,177.64576 C199.814885,177.64576 199.947482,177.641716 200.097377,177.633628 C200.247271,177.62554 200.393704,177.616104 200.53668,177.60532 C200.545905,177.659241 200.550517,177.702376 200.550517,177.734728 C200.550517,177.815608 200.527456,177.86144 200.481335,177.872224 C200.306074,177.904576 200.18616,177.943667 200.12159,177.989499 C200.05702,178.035331 200.024736,178.112166 200.024736,178.220007 L200.024736,182.336786 Z M205.758909,181.616956 L205.758909,178.236183 C205.758909,178.117558 205.722012,178.033983 205.648218,177.985455 C205.574424,177.936927 205.449898,177.899184 205.274637,177.872224 C205.223904,177.866832 205.198537,177.821 205.198537,177.734728 C205.198537,177.702376 205.203149,177.659241 205.212374,177.60532 C205.327677,177.616104 205.445285,177.62554 205.5652,177.633628 C205.685116,177.641716 205.798111,177.64576 205.90419,177.64576 C206.005657,177.64576 206.111735,177.641716 206.222426,177.633628 C206.333117,177.62554 206.441501,177.616104 206.54758,177.60532 C206.556804,177.659241 206.561416,177.702376 206.561416,177.734728 C206.561416,177.821 206.538356,177.866832 206.492235,177.872224 C206.335422,177.899184 206.228192,177.936927 206.17054,177.985455 C206.112888,178.033983 206.084063,178.112166 206.084063,178.220007 L206.084063,182.983824 C206.074839,182.989216 206.058696,182.99326 206.035636,182.995956 C206.012575,182.998652 205.994127,183 205.98029,183 C205.948005,183 205.918027,182.990564 205.890354,182.971692 C205.862681,182.95282 205.830397,182.913729 205.7935,182.854416 L202.984724,178.52735 L202.984724,182.336786 C202.984724,182.444626 203.017008,182.520113 203.081578,182.563249 C203.146148,182.606385 203.270674,182.646825 203.455159,182.684569 C203.50128,182.695353 203.524341,182.738488 203.524341,182.813977 C203.524341,182.846329 203.519729,182.889464 203.510504,182.943384 C203.395201,182.9326 203.278746,182.923164 203.161137,182.915076 C203.043527,182.906988 202.933991,182.902944 202.832524,182.902944 C202.740281,182.902944 202.631898,182.906988 202.50737,182.915076 C202.382842,182.923164 202.269847,182.9326 202.16838,182.943384 C202.159155,182.889464 202.154543,182.846329 202.154543,182.813977 C202.154543,182.738488 202.17991,182.695353 202.230643,182.684569 C202.39668,182.646825 202.508523,182.606385 202.566174,182.563249 C202.623826,182.520113 202.652651,182.444626 202.652651,182.336786 L202.652651,178.179567 C202.652651,178.093295 202.626132,178.027243 202.573093,177.981411 C202.520053,177.935579 202.410516,177.899184 202.24448,177.872224 C202.193746,177.86144 202.16838,177.815608 202.16838,177.734728 C202.16838,177.707768 202.170686,177.683504 202.175298,177.661936 C202.175298,177.64576 202.177604,177.626889 202.182216,177.60532 C202.274459,177.616104 202.362088,177.624192 202.445106,177.629584 C202.518901,177.634976 202.597306,177.63902 202.680324,177.641716 C202.763343,177.644412 202.837136,177.64576 202.901706,177.64576 C203.035457,177.64576 203.12424,177.651152 203.168055,177.661936 C203.21187,177.67272 203.247614,177.69968 203.275287,177.742816 L205.758909,181.616956 Z M210.393093,183 C210.005674,183 209.666687,182.929905 209.376122,182.789713 C209.085558,182.64952 208.844577,182.456759 208.653174,182.211422 C208.46177,181.966086 208.318796,181.677618 208.224247,181.346009 C208.129699,181.0144 208.082425,180.657185 208.082425,180.274352 C208.082425,179.956224 208.129699,179.635404 208.224247,179.311883 C208.318796,178.988363 208.46177,178.69585 208.653174,178.434338 C208.844577,178.172825 209.085558,177.959844 209.376122,177.795388 C209.666687,177.630932 210.005674,177.548705 210.393093,177.548705 C210.545294,177.548705 210.684809,177.552749 210.811642,177.560837 C210.938476,177.568925 211.059543,177.582404 211.174846,177.601276 C211.290149,177.620149 211.403145,177.644412 211.513836,177.674068 C211.624528,177.703724 211.739829,177.737424 211.859745,177.775168 C211.864357,177.920752 211.880499,178.098686 211.908172,178.308974 C211.935845,178.519263 211.972741,178.732244 212.018863,178.947924 C211.981966,178.969492 211.945069,178.980276 211.908172,178.980276 C211.871275,178.980276 211.837837,178.974884 211.807858,178.9641 C211.77788,178.953316 211.758278,178.923661 211.749054,178.875133 C211.666036,178.51926 211.534592,178.265839 211.354718,178.114863 C211.174845,177.963887 210.914263,177.8884 210.572965,177.8884 C210.287013,177.8884 210.034503,177.942319 209.815426,178.050159 C209.59635,178.157999 209.411867,178.308973 209.261973,178.503086 C209.112078,178.697198 208.999083,178.930399 208.922982,179.202696 C208.846882,179.474992 208.808833,179.778288 208.808833,180.112593 C208.808833,180.484642 208.857259,180.827029 208.954114,181.139766 C209.050969,181.452502 209.18126,181.722099 209.344991,181.948563 C209.508721,182.175028 209.700122,182.350265 209.919199,182.474282 C210.138275,182.598298 210.372337,182.660305 210.621393,182.660305 C210.819714,182.660305 210.986902,182.637389 211.12296,182.591557 C211.259018,182.545725 211.372013,182.479674 211.46195,182.393402 C211.551887,182.30713 211.627986,182.200639 211.69025,182.073927 C211.752513,181.947215 211.811317,181.80298 211.866663,181.64122 C211.898948,181.56034 211.954293,181.519901 212.032699,181.519901 C212.05576,181.519901 212.079973,181.523944 212.10534,181.532032 C212.130706,181.54012 212.150308,181.549556 212.164144,181.56034 C212.108799,181.749061 212.053454,181.95665 211.998108,182.183114 C211.942762,182.409579 211.896642,182.63604 211.859745,182.862504 C211.63375,182.905641 211.403147,182.93934 211.167928,182.963604 C210.932709,182.987868 210.674433,183 210.393093,183 L210.393093,183 Z M213.595217,180.274352 C213.595217,179.902304 213.652867,179.551828 213.768171,179.222916 C213.883474,178.894003 214.040284,178.605535 214.238606,178.357502 C214.436928,178.10947 214.667531,177.912664 214.930423,177.76708 C215.193315,177.621496 215.470039,177.548705 215.760603,177.548705 C216.161859,177.548705 216.512376,177.622844 216.812165,177.771124 C217.111953,177.919404 217.359852,178.118906 217.555868,178.369634 C217.751883,178.620363 217.898317,178.910179 217.995171,179.239091 C218.092026,179.568004 218.140453,179.913088 218.140453,180.274352 C218.140453,180.700321 218.080496,181.0818 217.960581,181.418801 C217.840665,181.755801 217.675784,182.041574 217.465932,182.276126 C217.256079,182.510679 217.009334,182.68996 216.725688,182.813977 C216.442041,182.937993 216.138798,183 215.815948,183 C215.488487,183 215.188703,182.935297 214.916587,182.805889 C214.644471,182.67648 214.410408,182.491807 214.214393,182.251862 C214.018377,182.011918 213.866179,181.724798 213.757794,181.390493 C213.649408,181.056188 213.595217,180.684145 213.595217,180.274352 L213.595217,180.274352 Z M215.975066,182.611777 C216.191837,182.611777 216.390156,182.56325 216.570029,182.466194 C216.749902,182.369137 216.904406,182.234339 217.033546,182.061795 C217.162686,181.889251 217.262998,181.684357 217.334486,181.447109 C217.405974,181.20986 217.441718,180.951048 217.441718,180.670663 C217.441718,180.282438 217.407127,179.922527 217.337945,179.590918 C217.268763,179.25931 217.163839,178.970842 217.023169,178.725505 C216.882499,178.480169 216.704934,178.287407 216.49047,178.147215 C216.276006,178.007023 216.025801,177.936927 215.739849,177.936927 C215.550751,177.936927 215.369728,177.978715 215.196772,178.062291 C215.023817,178.145867 214.871619,178.267186 214.740173,178.42625 C214.608728,178.585314 214.503803,178.780772 214.425397,179.012628 C214.34699,179.244485 214.307788,179.511385 214.307788,179.813338 C214.307788,180.212347 214.344684,180.583042 214.418479,180.925434 C214.492273,181.267827 214.599503,181.564383 214.740173,181.815112 C214.880843,182.06584 215.054949,182.261298 215.262495,182.40149 C215.470041,182.541682 215.707563,182.611777 215.975066,182.611777 L215.975066,182.611777 Z M220.982832,182.32061 C220.982832,182.412274 221.017422,182.476977 221.086604,182.514721 C221.155786,182.552466 221.250334,182.571337 221.370249,182.571337 L222.124329,182.571337 C222.258081,182.571337 222.373383,182.551118 222.470238,182.510677 C222.567093,182.470237 222.65011,182.412274 222.719292,182.336786 C222.788474,182.261298 222.849584,182.168287 222.902623,182.057751 C222.955663,181.947215 223.002936,181.821852 223.044446,181.68166 C223.058282,181.638524 223.085954,181.616956 223.127464,181.616956 C223.150524,181.616956 223.174738,181.623696 223.200104,181.637176 C223.225471,181.650656 223.251991,181.665484 223.279663,181.68166 C223.247378,181.84342 223.216247,182.014614 223.186268,182.195246 C223.156289,182.375879 223.12977,182.579424 223.106709,182.805889 C223.102097,182.865201 223.088261,182.902944 223.0652,182.91912 C223.04214,182.935296 223.014467,182.943384 222.982182,182.943384 C222.903776,182.943384 222.805769,182.936644 222.68816,182.923164 C222.570551,182.909684 222.467932,182.902944 222.380302,182.902944 L220.65076,182.902944 C220.54468,182.902944 220.410931,182.906988 220.249506,182.915076 C220.088081,182.923164 219.933577,182.9326 219.785989,182.943384 C219.776764,182.889464 219.772152,182.846329 219.772152,182.813977 C219.772152,182.738488 219.795213,182.695353 219.841334,182.684569 C220.030431,182.646825 220.159569,182.605037 220.228751,182.559205 C220.297933,182.513373 220.332524,182.44193 220.332524,182.344874 L220.332524,178.220007 C220.332524,178.112166 220.300239,178.035331 220.23567,177.989499 C220.1711,177.943667 220.046574,177.904576 219.862088,177.872224 C219.839028,177.866832 219.821733,177.852004 219.810202,177.82774 C219.798672,177.803476 219.792907,177.775168 219.792907,177.742816 C219.792907,177.705072 219.797519,177.659241 219.806743,177.60532 C219.963556,177.616104 220.11806,177.62554 220.27026,177.633628 C220.422461,177.641716 220.551599,177.64576 220.657678,177.64576 C220.81449,177.64576 220.980525,177.641716 221.155786,177.633628 C221.331047,177.62554 221.487857,177.616104 221.626221,177.60532 C221.635446,177.659241 221.640058,177.702376 221.640058,177.734728 C221.640058,177.826392 221.614691,177.87492 221.563958,177.880312 C221.365636,177.907272 221.219203,177.946363 221.124654,177.997587 C221.030105,178.048811 220.982832,178.141822 220.982832,178.276622 L220.982832,182.32061 Z M228.197493,181.616956 L228.197493,178.236183 C228.197493,178.117558 228.160596,178.033983 228.086802,177.985455 C228.013008,177.936927 227.888482,177.899184 227.713221,177.872224 C227.662487,177.866832 227.637121,177.821 227.637121,177.734728 C227.637121,177.702376 227.641733,177.659241 227.650957,177.60532 C227.766261,177.616104 227.883868,177.62554 228.003784,177.633628 C228.123699,177.641716 228.236695,177.64576 228.342774,177.64576 C228.444241,177.64576 228.550319,177.641716 228.66101,177.633628 C228.771701,177.62554 228.880085,177.616104 228.986164,177.60532 C228.995388,177.659241 229,177.702376 229,177.734728 C229,177.821 228.97694,177.866832 228.930818,177.872224 C228.774006,177.899184 228.666775,177.936927 228.609124,177.985455 C228.551472,178.033983 228.522646,178.112166 228.522646,178.220007 L228.522646,182.983824 C228.513422,182.989216 228.49728,182.99326 228.474219,182.995956 C228.451159,182.998652 228.43271,183 228.418874,183 C228.386589,183 228.356611,182.990564 228.328938,182.971692 C228.301265,182.95282 228.26898,182.913729 228.232083,182.854416 L225.423307,178.52735 L225.423307,182.336786 C225.423307,182.444626 225.455592,182.520113 225.520162,182.563249 C225.584731,182.606385 225.709257,182.646825 225.893743,182.684569 C225.939864,182.695353 225.962924,182.738488 225.962924,182.813977 C225.962924,182.846329 225.958312,182.889464 225.949088,182.943384 C225.833785,182.9326 225.71733,182.923164 225.59972,182.915076 C225.482111,182.906988 225.372574,182.902944 225.271107,182.902944 C225.178865,182.902944 225.070481,182.906988 224.945954,182.915076 C224.821426,182.923164 224.70843,182.9326 224.606963,182.943384 C224.597739,182.889464 224.593127,182.846329 224.593127,182.813977 C224.593127,182.738488 224.618493,182.695353 224.669227,182.684569 C224.835264,182.646825 224.947106,182.606385 225.004758,182.563249 C225.06241,182.520113 225.091235,182.444626 225.091235,182.336786 L225.091235,178.179567 C225.091235,178.093295 225.064716,178.027243 225.011676,177.981411 C224.958637,177.935579 224.8491,177.899184 224.683063,177.872224 C224.63233,177.86144 224.606963,177.815608 224.606963,177.734728 C224.606963,177.707768 224.609269,177.683504 224.613882,177.661936 C224.613882,177.64576 224.616188,177.626889 224.6208,177.60532 C224.713042,177.616104 224.800672,177.624192 224.88369,177.629584 C224.957484,177.634976 225.035889,177.63902 225.118908,177.641716 C225.201926,177.644412 225.275719,177.64576 225.340289,177.64576 C225.474041,177.64576 225.562823,177.651152 225.606639,177.661936 C225.650454,177.67272 225.686197,177.69968 225.71387,177.742816 L228.197493,181.616956 Z" id="LINCOLN" sketch:type="MSShapeGroup"></path>
            </g>
        </g>
    </g>
</svg>