<?xml version="1.0" encoding="UTF-8" standalone="no"?>
<svg width="54px" height="9px" viewBox="0 0 54 9" version="1.1" xmlns="http://www.w3.org/2000/svg" xmlns:xlink="http://www.w3.org/1999/xlink" xmlns:sketch="http://www.bohemiancoding.com/sketch/ns">
    <!-- Generator: Sketch 3.4 (15575) - http://www.bohemiancoding.com/sketch -->
    <title>MAZDA</title>
    <desc>Created with Sketch.</desc>
    <defs></defs>
    <g id="Page-1" stroke="none" stroke-width="1" fill="none" fill-rule="evenodd" sketch:type="MSPage">
        <g id="2" sketch:type="MSArtboardGroup" transform="translate(-17.000000, -270.000000)" fill="#FFFFFF">
            <g id="carlogo" sketch:type="MSLayerGroup" transform="translate(17.000000, 152.000000)">
                <path d="M0,127 L0,118.15332 L11.1449937,118.15332 C11.1449937,118.15332 12.5384886,118.001433 13.3567962,118.924216 C13.8489667,119.462984 13.9290185,120.30839 13.9290185,120.30839 L13.9290185,126.922624 L10.8989085,126.922624 L10.8989085,121.076421 C10.8989085,121.076421 10.8989085,120.924534 10.7358399,120.769782 C10.5698065,120.615029 10.3237213,120.692406 10.3237213,120.692406 L8.52107263,120.692406 L8.52107263,126.922624 L5.4909626,126.922624 L5.4909626,120.692406 L3.03011003,120.692406 L3.03011003,127 L0,127 Z M33.1046933,127 L33.1046933,124.615666 L29.4193442,124.615666 L26.3032526,127 L33.1046933,127 Z M24.5827312,120.462283 L24.5827312,118.155326 L31.3011552,118.155326 L28.2710452,120.462283 L24.5827312,120.462283 Z M40.9723058,124.307881 C40.6432038,124.61452 39.9879648,124.61452 39.9879648,124.61452 L36.9578547,124.61452 L36.9578547,120.616749 L39.9879648,120.616749 C39.9879648,120.616749 40.6432038,120.694125 40.8892891,120.923388 C41.3014078,121.307403 41.3814596,121.768795 41.3814596,122.617067 C41.3814596,123.385098 41.3814596,124.075752 40.9723058,124.307881 Z M20.8140689,124.769272 L17.3718402,124.769272 C17.3718402,124.769272 16.6335844,124.769272 16.6335844,124.001242 C16.7166011,123.307722 17.2888235,123.307722 17.2888235,123.307722 L20.8140689,123.307722 L20.8140689,124.769272 Z M43.4301935,119.077822 C42.6118859,118.077663 41.1353743,118.077663 41.1353743,118.077663 L32.4482683,118.077663 L23.6811104,124.769272 L23.6811104,120.077981 C23.6811104,120.077981 23.6811104,119.461837 22.8628028,118.693807 C22.0444952,118.077663 20.7310522,118.077663 20.7310522,118.077663 L14.5848505,118.077663 L14.5848505,120.307244 L20.0758131,120.307244 C20.0758131,120.307244 20.3218984,120.232734 20.5679837,120.38462 C20.8140689,120.539373 20.8140689,120.846012 20.8140689,120.846012 L20.8140689,121.307403 L16.5535326,121.307403 C16.5535326,121.307403 15.4861749,121.230027 15.0770211,121.539532 C14.8309358,121.691419 13.8495597,122.0783 13.8495597,124.153128 C13.8495597,125.001401 13.9296115,125.614679 14.5047987,126.153447 C15.2400896,126.846967 16.6335844,126.924343 16.6335844,126.924343 L25.0746052,126.924343 L34.0878484,120.000605 L34.0878484,126.924343 L41.0523576,126.924343 C41.0523576,126.924343 42.4458525,126.924343 43.3471768,126.153447 C44.3315178,125.30804 44.2485011,123.155835 44.2485011,122.462315 C44.2485011,121.691419 44.3315178,120.155357 43.4301935,119.077822 Z M51.1329585,124.846362 L47.7737465,124.846362 C47.7737465,124.846362 46.952474,124.923738 46.952474,124.078331 C46.952474,123.307435 47.7737465,123.384811 47.7737465,123.384811 L51.1329585,123.384811 L51.1329585,124.846362 Z M53.0186239,118.616144 C52.2803681,118.077376 51.1329585,118 51.1329585,118 L44.7406716,118 L44.7406716,120.232447 L50.3146509,120.232447 C50.3146509,120.232447 50.8868733,120.232447 51.0499418,120.539086 C51.2130103,120.768349 51.1329585,121.232606 51.1329585,121.232606 L46.7894055,121.232606 C46.7894055,121.232606 45.8880812,121.15523 45.0697736,121.616622 C44.0024158,122.2299 44.0854325,123.61694 44.0854325,123.61694 C44.0854325,123.61694 43.8393473,125.230377 44.4945863,125.923897 C45.3959107,126.924057 46.7894055,126.998567 46.7894055,126.998567 L54,126.998567 L54,120.000318 C54,120.000318 53.7539147,119.154912 53.0186239,118.616144 L53.0186239,118.616144 Z" id="MAZDA" sketch:type="MSShapeGroup"></path>
            </g>
        </g>
    </g>
</svg>