<?xml version="1.0" encoding="UTF-8" standalone="no"?>
<svg width="151px" height="234px" viewBox="0 0 151 234" version="1.1" xmlns="http://www.w3.org/2000/svg" xmlns:xlink="http://www.w3.org/1999/xlink" xmlns:sketch="http://www.bohemiancoding.com/sketch/ns">
    <!-- Generator: Sketch 3.4 (15575) - http://www.bohemiancoding.com/sketch -->
    <title>手机</title>
    <desc>Created with Sketch.</desc>
    <defs>
        <path id="path-1" d="M113.045341,0.0213450167 C122.925498,0.0263668218 131.005031,8.09389671 130.999998,17.9517001 L130.940858,153.084709 C130.937083,162.943768 122.85,171.003765 112.971101,170.999999 L61.9546584,170.977401 C52.0757592,170.973634 43.9962264,162.904849 44.0000013,153.048301 L44.0603996,17.9140366 C44.0654328,8.05623318 52.1512571,-0.0050194601 62.0314146,2.34500108e-06 L113.045341,0.0213450167 Z"></path>
    </defs>
    <g id="Page-1" stroke="none" stroke-width="1" fill="none" fill-rule="evenodd" sketch:type="MSPage">
        <g id="5" sketch:type="MSArtboardGroup" transform="translate(-100.000000, -433.000000)">
            <g id="手机" sketch:type="MSLayerGroup" transform="translate(93.500000, 433.000000)">
                <path d="M146.037578,87.0590206 L146.037578,87.0590206 C150.049396,91.0787659 149.954449,97.5674791 145.947695,101.582214 L72.6399178,175.03119 C68.6344296,179.045925 61.9754953,178.961998 57.9636773,174.942252 C53.9518593,170.922507 54.0430082,164.44131 58.0548262,160.420312 L131.362603,86.9713352 C135.374421,82.9503373 142.02576,83.0405279 146.037578,87.0590206" id="Fill-1" fill="#FFD7B7" sketch:type="MSShapeGroup"></path>
                <path d="M17,219.144485 L72.9846984,230 L81.5961795,186.432036 L121,130.137992 L37.7821224,114 L17,219.144485" id="Fill-2" fill="#FFD7B7" sketch:type="MSShapeGroup"></path>
                <path d="M145.037583,120.058283 L145.037583,120.058283 C149.049394,124.078082 148.954447,130.566881 144.9477,134.581669 L71.6400508,208.031616 C67.6345695,212.046403 60.9756469,211.961222 56.9625699,207.942677 C52.9520249,203.922878 53.0431736,197.440343 57.0549846,193.421797 L130.3639,119.969344 C134.374445,115.950799 141.025772,116.04099 145.037583,120.058283" id="Fill-3" fill="#FFD7B7" sketch:type="MSShapeGroup"></path>
                <path d="M153.046687,47.0499103 L153.046687,47.0499103 C157.044269,51.0593393 156.953444,57.5313998 152.957123,61.535831 L82.5787366,132.03881 C78.5824159,136.043241 71.9521565,135.959529 67.9545744,131.9501 C63.9557308,127.940671 64.0452948,121.473608 68.0453999,117.465429 L138.422525,46.9612006 C142.42263,42.95552 149.049105,43.0417308 153.046687,47.0499103" id="Fill-4" fill="#FFD7B7" sketch:type="MSShapeGroup"></path>
                <g id="Fill-5">
                    <use fill="none" sketch:type="MSShapeGroup" xlink:href="#path-1"></use>
                    <use fill="#FFFFFF" fill-rule="evenodd" xlink:href="#path-1"></use>
                </g>
                <path d="M123.746061,14.0314084 C123.886296,14.0314084 124,14.1444788 124,14.2826759 L123.938094,154.748733 C123.938094,154.888186 123.823127,155 123.684155,155 L52.2526759,154.968592 C52.1149675,154.968592 52.0012634,154.855521 52,154.716068 L52.063169,14.2512675 C52.0644324,14.1130704 52.1768731,14 52.3158449,14 L123.746061,14.0314084 Z" id="Fill-6" fill="#393939" sketch:type="MSShapeGroup"></path>
                <path d="M75.3016858,4 L101.699572,4.01445782 C102.41405,4.01301204 103.001258,4.68674646 102.999998,5.50795064 C102.999998,6.32915482 102.41531,7.00144345 101.698312,6.99999767 L75.3016858,6.98698563 C74.5846875,6.98553985 74,6.314697 74,5.49349282 C74,4.67084285 74.5859476,4.00144578 75.3016858,4" id="Fill-7" fill="#C6C6C6" sketch:type="MSShapeGroup"></path>
                <path d="M88.5012903,158.000001 C90.9872494,158.00129 93.0012888,160.016619 92.9999994,162.502578 C92.9999994,164.988537 90.9833812,167.002576 88.4974221,166.999998 C86.0114631,166.999998 83.9974237,164.984669 84.0000025,162.49742 C84.0000025,160.012751 86.0153313,157.998711 88.5012903,158.000001" id="Fill-8" fill="#DADADA" sketch:type="MSShapeGroup"></path>
                <path d="M152.06353,114.041644 L152.06353,114.041644 C156.021155,118.0589 155.964974,124.586158 151.976138,128.555843 L138.411596,142.048514 C134.421511,146.01945 127.894551,145.976887 123.936926,141.960883 C119.981797,137.943627 120.030487,131.425132 124.028063,127.449188 L137.590108,113.952761 C141.588932,109.976817 148.108402,110.02564 152.06353,114.041644" id="Fill-9" fill="#FFD7B7" sketch:type="MSShapeGroup"></path>
                <path d="M154.063607,80.0417947 L154.063607,80.0417947 C158.021551,84.059249 157.965348,90.5868299 153.973682,94.5567108 L142.418334,106.04946 C138.426668,110.01934 131.897122,109.976775 127.939178,105.960572 C123.981234,101.94437 124.029943,95.4243006 128.029103,91.4481601 L139.584451,79.9529074 C143.584859,75.9767669 150.105663,76.0255923 154.063607,80.0417947" id="Fill-10" fill="#FFD7B7" sketch:type="MSShapeGroup"></path>
                <path d="M81.2770357,222.983366 L68.6925402,263.564121 L21.3649378,268.791061 L0.398472786,263.564121 L13.5001733,201 L81.2770357,222.983366 Z" id="Fill-11" fill="#FFFFFF" sketch:type="MSShapeGroup"></path>
                <path d="M32.8701035,177.601064 L40.0851933,179 L41.048983,170.005042 L48.8227915,97.7837051 C50.1408596,85.5480459 43.9162257,80.639189 36.4636804,78.2489204 C32.3596378,76.9330147 31.3831499,75.8070723 30.9818883,79.5346333 L22.080484,162.205218 C21.3097062,169.364701 26.1629398,176.300255 32.8701035,177.601064" id="Fill-12" fill="#FFD7B7" sketch:type="MSShapeGroup"></path>
                <path d="M130.800474,93.3753086 L133.296025,91 C138.43077,91.741395 141.202696,94.751423 142,99.6567197 L139.659909,101.971579 C133.276024,108.255657 125.397536,98.3881698 130.800474,93.3753086" id="Fill-13" fill="#FFF2E8" sketch:type="MSShapeGroup"></path>
                <path d="M125.938489,129.558096 L128.625895,127 C134.154414,127.798448 137.140422,131.039149 138,136.321924 L135.479027,138.815876 C128.604357,145.582576 120.121159,134.956713 125.938489,129.558096" id="Fill-14" fill="#FFF2E8" sketch:type="MSShapeGroup"></path>
                <path d="M29,100.520255 C29,100.520255 37.8696493,106.099682 39.5494973,100.520255 C41.2293452,94.939584 41.7220307,90.1049924 39.5494973,85.7217785 C37.0821387,80.7740315 32.4107988,82.1866077 32.4107988,82.1866077 L29,100.520255" id="Fill-15" fill="#FFF2E8" sketch:type="MSShapeGroup"></path>
                <path d="M39,85.8181868 C36.6611601,80.7422743 30.991057,82.1914415 30.991057,82.1914415 L29,101" id="Fill-16" fill="#FFFFFF" sketch:type="MSShapeGroup"></path>
            </g>
        </g>
    </g>
</svg>