<?xml version="1.0" encoding="UTF-8" standalone="no"?>
<svg width="31px" height="31px" viewBox="0 0 31 31" version="1.1" xmlns="http://www.w3.org/2000/svg" xmlns:xlink="http://www.w3.org/1999/xlink" xmlns:sketch="http://www.bohemiancoding.com/sketch/ns">
    <!-- Generator: Sketch 3.4 (15575) - http://www.bohemiancoding.com/sketch -->
    <title>NISSAN</title>
    <desc>Created with Sketch.</desc>
    <defs></defs>
    <g id="Page-1" stroke="none" stroke-width="1" fill="none" fill-rule="evenodd" sketch:type="MSPage">
        <g id="2" sketch:type="MSArtboardGroup" transform="translate(-17.000000, -185.000000)" fill="#FFFFFF">
            <g id="carlogo" sketch:type="MSLayerGroup" transform="translate(17.000000, 152.000000)">
                <path d="M4.6386,59.0169 L4.6386,62.8569 L2.9136,59.0169 L2.0986,59.0169 L1.6306,59.0169 L0.8156,59.0169 L0.8156,63.7429 L2.0986,63.7429 L2.0986,60.0579 L3.7526,63.7429 L4.6386,63.7429 L5.0366,63.7429 L5.9216,63.7429 L5.9216,59.0169 L4.6386,59.0169 Z M7.085,63.7426 L8.368,63.7426 L8.368,59.0166 L7.085,59.0166 L7.085,63.7426 Z M13.5105,59.0146 L10.5275,59.0146 C8.6625,59.2106 9.1265,61.9756 10.5495,61.9536 L12.4675,61.9536 L12.4845,62.6846 L9.3045,62.6846 L9.3045,63.7076 L12.3455,63.7076 L12.3785,63.7176 C12.4165,63.7146 12.4525,63.7116 12.4895,63.7076 L12.5095,63.7076 L12.5095,63.7046 C14.6085,63.4566 13.9465,60.8226 12.5525,60.8436 L12.5525,60.8496 L10.6765,60.8496 L10.6805,60.8216 L10.6805,60.0376 L13.5105,60.0376 L13.5105,59.0146 Z M18.5564,59.0146 L15.5734,59.0146 C13.7084,59.2106 14.1724,61.9756 15.5954,61.9536 L17.5134,61.9536 L17.5304,62.6846 L14.3504,62.6846 L14.3504,63.7076 L17.3914,63.7076 L17.4244,63.7176 C17.4624,63.7146 17.4984,63.7116 17.5354,63.7076 L17.5544,63.7076 L17.5544,63.7046 C19.6544,63.4566 18.9924,60.8226 17.5984,60.8436 L17.5974,60.8496 L15.7224,60.8496 L15.7254,60.8216 L15.7254,60.0376 L18.5564,60.0376 L18.5564,59.0146 Z M21.0328,61.8152 L21.8168,59.7682 L22.5998,61.8152 L21.0328,61.8152 Z M23.3598,63.7982 L24.5098,63.7982 L22.6608,58.9692 L22.1228,58.9692 L21.5108,58.9692 L20.9728,58.9692 L19.1238,63.7982 L20.2738,63.7982 L20.6148,62.9072 L23.0188,62.9072 L23.3598,63.7982 Z M28.7973,59.0169 L28.7973,62.8569 L27.0733,59.0169 L26.2573,59.0169 L25.7893,59.0169 L24.9753,59.0169 L24.9753,63.7429 L26.2573,63.7429 L26.2573,60.0579 L27.9113,63.7429 L28.7973,63.7429 L29.1953,63.7429 L30.0803,63.7429 L30.0803,59.0169 L28.7973,59.0169 Z M25.3653,48.534 C23.6213,52.253 19.8393,54.839 15.4733,54.839 C11.1063,54.839 7.3253,52.253 5.5803,48.534 L25.3653,48.534 Z M15.4733,33 C19.7323,33 23.4333,35.46 25.2323,39.031 L5.7143,39.031 C7.5123,35.46 11.2143,33 15.4733,33 Z M7.683,45.9796 L8.872,45.9796 L8.872,41.5976 L7.683,41.5976 L7.683,45.9796 Z M5.415,41.5966 L5.415,45.1586 L3.817,41.5966 L3.061,41.5966 L2.627,41.5966 L1.871,41.5966 L1.871,45.9796 L3.061,45.9796 L3.061,42.5626 L4.594,45.9796 L5.415,45.9796 L5.784,45.9796 L6.605,45.9796 L6.605,41.5966 L5.415,41.5966 Z M27.812,41.5966 L27.812,45.1586 L26.213,41.5966 L25.458,41.5966 L25.024,41.5966 L24.268,41.5966 L24.268,45.9796 L25.458,45.9796 L25.458,42.5626 L26.992,45.9796 L27.812,45.9796 L28.181,45.9796 L29.001,45.9796 L29.001,41.5966 L27.812,41.5966 Z M13.64,41.5956 L10.875,41.5956 C9.146,41.7776 9.576,44.3406 10.895,44.3206 L12.673,44.3206 L12.69,44.9976 L9.741,44.9976 L9.741,45.9466 L12.56,45.9466 L12.591,45.9556 C12.626,45.9526 12.66,45.9496 12.693,45.9466 L12.712,45.9466 L12.712,45.9436 C14.658,45.7136 14.045,43.2716 12.752,43.2906 L12.752,43.2966 L11.013,43.2966 L11.016,43.2706 L11.016,42.5436 L13.64,42.5436 L13.64,41.5956 Z M18.318,41.5956 L15.553,41.5956 C13.823,41.7776 14.254,44.3406 15.573,44.3206 L17.351,44.3206 L17.367,44.9976 L14.419,44.9976 L14.419,45.9466 L17.238,45.9466 L17.269,45.9556 C17.303,45.9526 17.338,45.9496 17.371,45.9466 L17.39,45.9466 L17.39,45.9436 C19.336,45.7136 18.723,43.2716 17.43,43.2906 L17.43,43.2966 L15.691,43.2966 L15.694,43.2706 L15.694,42.5436 L18.318,42.5436 L18.318,41.5956 Z M20.614,44.1916 L22.067,44.1916 L21.341,42.2936 L20.614,44.1916 Z M22.771,46.0306 L23.837,46.0306 L22.123,41.5536 L21.624,41.5536 L21.057,41.5536 L20.558,41.5536 L18.844,46.0306 L19.91,46.0306 L20.226,45.2046 L22.455,45.2046 L22.771,46.0306 Z M1.525,39.7946 L29.056,39.7946 C29.895,39.7946 30.581,40.4806 30.581,41.3196 L30.581,46.0626 C30.581,46.9016 29.895,47.5876 29.056,47.5876 L1.525,47.5876 C0.686,47.5876 0,46.9016 0,46.0626 L0,41.3196 C0,40.4806 0.686,39.7946 1.525,39.7946 L1.525,39.7946 Z" id="NISSAN" sketch:type="MSShapeGroup"></path>
            </g>
        </g>
    </g>
</svg>