<?xml version="1.0" encoding="UTF-8" standalone="no"?>
<svg width="40px" height="41px" viewBox="0 0 40 41" version="1.1" xmlns="http://www.w3.org/2000/svg" xmlns:xlink="http://www.w3.org/1999/xlink" xmlns:sketch="http://www.bohemiancoding.com/sketch/ns">
    <!-- Generator: Sketch 3.4 (15575) - http://www.bohemiancoding.com/sketch -->
    <title>quan</title>
    <desc>Created with Sketch.</desc>
    <defs>
        <path d="M20.4510685,33 L18.8680805,33 C18.7497987,32.4294399 18.2346276,32 17.6170213,32 C16.999415,32 16.4842439,32.4294399 16.3659621,33 L15.2936124,33 C15.1753306,32.4294399 14.6601595,32 14.0425532,32 C13.4249469,32 12.9097758,32.4294399 12.791494,33 L11.208506,33 C11.0902242,32.4294399 10.5750531,32 9.95744681,32 C9.33984053,32 8.82466939,32.4294399 8.7063876,33 L7.63403793,33 C7.51575614,32.4294399 7.000585,32 6.38297872,32 C5.76537245,32 5.25020131,32.4294399 5.13191952,33 L3.54893154,33 C3.43064976,32.4294399 2.91547862,32 2.29787234,32 C1.68026607,32 1.16509492,32.4294399 1.04681314,33 L0,33 L0,0 L1.04681314,0 C1.0300673,0.0807774851 1.0212766,0.16438354 1.0212766,0.25 C1.0212766,0.940355937 1.59282798,1.5 2.29787234,1.5 C3.0029167,1.5 3.57446809,0.940355937 3.57446809,0.25 C3.57446809,0.16438354 3.56567738,0.0807774851 3.54893154,0 L5.13191952,0 C5.11517368,0.0807774851 5.10638298,0.16438354 5.10638298,0.25 C5.10638298,0.940355937 5.67793436,1.5 6.38297872,1.5 C7.08802308,1.5 7.65957447,0.940355937 7.65957447,0.25 C7.65957447,0.16438354 7.65078376,0.0807774851 7.63403793,-3.88578059e-16 L8.7063876,0 C8.68964177,0.0807774851 8.68085106,0.16438354 8.68085106,0.25 C8.68085106,0.940355937 9.25240245,1.5 9.95744681,1.5 C10.6624912,1.5 11.2340426,0.940355937 11.2340426,0.25 C11.2340426,0.16438354 11.2252518,0.0807774851 11.208506,-3.88578059e-16 L12.791494,0 C12.7747482,0.0807774851 12.7659574,0.16438354 12.7659574,0.25 C12.7659574,0.940355937 13.3375088,1.5 14.0425532,1.5 C14.7475976,1.5 15.3191489,0.940355937 15.3191489,0.25 C15.3191489,0.16438354 15.3103582,0.0807774851 15.2936124,-3.88578059e-16 L16.3659621,0 C16.3492162,0.0807774851 16.3404255,0.16438354 16.3404255,0.25 C16.3404255,0.940355937 16.9119769,1.5 17.6170213,1.5 C18.3220656,1.5 18.893617,0.940355937 18.893617,0.25 C18.893617,0.16438354 18.8848263,0.0807774851 18.8680805,-3.88578059e-16 L20.4510685,0 C20.4343226,0.0807774851 20.4255319,0.16438354 20.4255319,0.25 C20.4255319,0.940355937 20.9970833,1.5 21.7021277,1.5 C22.407172,1.5 22.9787234,0.940355937 22.9787234,0.25 C22.9787234,0.16438354 22.9699327,0.0807774851 22.9531869,0 L24,0 L24,33 L22.9531869,33 C22.8349051,32.4294399 22.3197339,32 21.7021277,32 C21.0845214,32 20.5693502,32.4294399 20.4510685,33 Z" id="path-1"></path>
    </defs>
    <g id="Page-1" stroke="none" stroke-width="1" fill="none" fill-rule="evenodd" sketch:type="MSPage">
        <g id="6" sketch:type="MSArtboardGroup" transform="translate(-281.000000, -347.000000)">
            <g id="Group" sketch:type="MSLayerGroup" transform="translate(35.000000, 224.000000)">
                <g id="quan" transform="translate(265.709538, 143.374753) rotate(39.000000) translate(-265.709538, -143.374753) translate(253.709538, 126.874753)">
                    <g transform="translate(-0.000000, 0.000000)">
                        <mask id="mask-2" sketch:name="Mask" fill="white">
                            <use xlink:href="#path-1"></use>
                        </mask>
                        <use id="Mask" fill="#FDD602" sketch:type="MSShapeGroup" xlink:href="#path-1"></use>
                        <rect id="Rectangle-268" fill="#F4AE00" sketch:type="MSShapeGroup" mask="url(#mask-2)" x="0" y="24" width="24" height="10"></rect>
                    </g>
                    <path d="M6.35531915,10.22 C5.63531915,10.22 5.04531915,10.46 4.60531915,10.94 C4.16531915,11.41 3.93531915,12.05 3.93531915,12.85 L4.75531915,12.85 C4.76531915,12.22 4.91531915,11.74 5.19531915,11.42 C5.45531915,11.08 5.83531915,10.92 6.32531915,10.92 C6.78531915,10.92 7.15531915,11.04 7.41531915,11.28 C7.67531915,11.52 7.80531915,11.85 7.80531915,12.29 C7.80531915,12.75 7.61531915,13.18 7.25531915,13.57 C7.06531915,13.77 6.69531915,14.06 6.13531915,14.46 C5.37531915,14.98 4.86531915,15.41 4.58531915,15.73 C4.10531915,16.26 3.87531915,16.85 3.87531915,17.5 L8.63531915,17.5 L8.63531915,16.77 L4.88531915,16.77 C5.01531915,16.29 5.53531915,15.74 6.44531915,15.13 C7.18531915,14.63 7.67531915,14.24 7.92531915,13.98 C8.38531915,13.48 8.62531915,12.92 8.62531915,12.3 C8.62531915,11.68 8.40531915,11.17 7.98531915,10.79 C7.55531915,10.41 7.01531915,10.22 6.35531915,10.22 L6.35531915,10.22 Z M12.2553191,10.22 C11.3953191,10.22 10.7553191,10.59 10.3253191,11.35 C9.94531915,11.99 9.75531915,12.85 9.75531915,13.93 C9.75531915,15.01 9.94531915,15.87 10.3253191,16.51 C10.7553191,17.26 11.3953191,17.64 12.2553191,17.64 C13.1053191,17.64 13.7453191,17.26 14.1853191,16.51 C14.5653191,15.87 14.7553191,15.01 14.7553191,13.93 C14.7553191,12.85 14.5653191,11.99 14.1853191,11.35 C13.7453191,10.59 13.1053191,10.22 12.2553191,10.22 L12.2553191,10.22 Z M12.2553191,10.92 C12.8953191,10.92 13.3553191,11.26 13.6353191,11.95 C13.8353191,12.43 13.9453191,13.09 13.9453191,13.93 C13.9453191,14.76 13.8353191,15.42 13.6353191,15.91 C13.3553191,16.59 12.8953191,16.94 12.2553191,16.94 C11.6153191,16.94 11.1553191,16.59 10.8753191,15.91 C10.6753191,15.42 10.5753191,14.76 10.5753191,13.93 C10.5753191,13.09 10.6753191,12.43 10.8753191,11.95 C11.1553191,11.26 11.6153191,10.92 12.2553191,10.92 L12.2553191,10.92 Z M16.1313191,12.844 L16.1313191,13.444 L20.3313191,13.444 L20.3313191,12.844 L16.1313191,12.844 Z M15.6633191,14.602 L15.6633191,15.208 L17.1513191,15.208 L17.1513191,15.328 C17.1273191,15.916 17.0073191,16.39 16.7793191,16.762 C16.5513191,17.098 16.1193191,17.386 15.4713191,17.614 L15.8073191,18.142 C16.4793191,17.908 16.9593191,17.578 17.2593191,17.158 C17.5653191,16.702 17.7333191,16.09 17.7633191,15.328 L17.7633191,15.208 L18.6513191,15.208 L18.6513191,17.368 C18.6513191,17.806 18.8613191,18.028 19.2873191,18.028 L20.2413191,18.028 C20.4513191,18.028 20.6073191,17.962 20.7153191,17.842 C20.8233191,17.716 20.9013191,17.314 20.9433191,16.636 L20.3793191,16.456 C20.3673191,16.942 20.3373191,17.236 20.2953191,17.332 C20.2593191,17.422 20.1993191,17.47 20.1273191,17.47 L19.4673191,17.47 C19.3293191,17.47 19.2633191,17.392 19.2633191,17.236 L19.2633191,15.208 L20.8533191,15.208 L20.8533191,14.602 L15.6633191,14.602 Z" id="20元" fill="#F96E6E" sketch:type="MSShapeGroup"></path>
                    <text id="代金券" sketch:type="MSTextLayer" font-family="MStiffHei PRC" font-size="5" font-weight="686" sketch:alignment="middle" fill="#FDD602">
                        <tspan x="4.75531915" y="30">代金券</tspan>
                    </text>
                </g>
            </g>
        </g>
    </g>
</svg>