<?xml version="1.0" encoding="UTF-8" standalone="no"?>
<svg width="36px" height="36px" viewBox="0 0 36 36" version="1.1" xmlns="http://www.w3.org/2000/svg" xmlns:xlink="http://www.w3.org/1999/xlink" xmlns:sketch="http://www.bohemiancoding.com/sketch/ns">
    <!-- Generator: Sketch 3.4 (15575) - http://www.bohemiancoding.com/sketch -->
    <title>redbag</title>
    <desc>Created with Sketch.</desc>
    <defs>
        <filter x="-50%" y="-50%" width="200%" height="200%" filterUnits="objectBoundingBox" id="filter-1">
            <feOffset dx="0" dy="1" in="SourceAlpha" result="shadowOffsetOuter1"></feOffset>
            <feGaussianBlur stdDeviation="0" in="shadowOffsetOuter1" result="shadowBlurOuter1"></feGaussianBlur>
            <feColorMatrix values="0 0 0 0 0.550621811   0 0 0 0 0.0321652301   0 0 0 0 0.0321652301  0 0 0 0.35 0" in="shadowBlurOuter1" type="matrix" result="shadowMatrixOuter1"></feColorMatrix>
            <feMerge>
                <feMergeNode in="shadowMatrixOuter1"></feMergeNode>
                <feMergeNode in="SourceGraphic"></feMergeNode>
            </feMerge>
        </filter>
    </defs>
    <g id="Page-1" stroke="none" stroke-width="1" fill="none" fill-rule="evenodd" sketch:type="MSPage">
        <g id="6" sketch:type="MSArtboardGroup" transform="translate(-57.000000, -315.000000)">
            <g id="redbag" sketch:type="MSLayerGroup" transform="translate(75.433396, 333.332381) rotate(-45.000000) translate(-75.433396, -333.332381) translate(63.433396, 318.332381)">
                <rect id="Rectangle-24" fill="#E63A31" sketch:type="MSShapeGroup" x="-8.52651283e-14" y="-1.13686838e-13" width="23.8571429" height="29.4" rx="2.52"></rect>
                <path d="M-8.52651283e-14,2.51361654 C-8.52651283e-14,1.12538446 1.11868076,-1.13686838e-13 2.51928332,-1.13686838e-13 L21.3378595,-1.13686838e-13 C22.7292213,-1.13686838e-13 23.8571429,1.13203125 23.8571429,2.51361654 L23.8571429,7.245 C23.8571429,7.245 15.7861216,9.66 11.9285714,9.66 C7.83374068,9.66 -8.52651283e-14,7.245 -8.52651283e-14,7.245 L-8.52651283e-14,2.51361654 Z" id="Rectangle-25" fill="#ED3329" filter="url(#filter-1)" sketch:type="MSShapeGroup"></path>
                <path d="M5.93702041,11.22576 L9.86322449,18.24144 L7.26620408,18.24144 L7.26620408,19.572 L10.6198367,19.572 L10.6402857,19.59216 L10.6402857,21.26544 L7.26620408,21.26544 L7.26620408,22.596 L10.6402857,22.596 L10.6402857,25.62 L13.2168571,25.62 L13.2168571,22.596 L16.6113878,22.596 L16.6113878,21.26544 L13.2168571,21.26544 L13.2168571,19.59216 L13.2373061,19.572 L16.6113878,19.572 L16.6113878,18.24144 L13.9939184,18.24144 L17.9201224,11.22576 L15.0163673,11.22576 L11.9285714,17.29392 L8.84077551,11.22576 L5.93702041,11.22576 Z" id="¥" fill="#F3EC41" sketch:type="MSShapeGroup"></path>
            </g>
        </g>
    </g>
</svg>