<?xml version="1.0" encoding="UTF-8" standalone="no"?>
<svg width="43px" height="162px" viewBox="0 0 43 162" version="1.1" xmlns="http://www.w3.org/2000/svg" xmlns:xlink="http://www.w3.org/1999/xlink" xmlns:sketch="http://www.bohemiancoding.com/sketch/ns">
    <!-- Generator: Sketch 3.4 (15575) - http://www.bohemiancoding.com/sketch -->
    <title>hand copy 2</title>
    <desc>Created with Sketch.</desc>
    <defs></defs>
    <g id="Page-1" stroke="none" stroke-width="1" fill="none" fill-rule="evenodd" sketch:type="MSPage">
        <g id="3" sketch:type="MSArtboardGroup" transform="translate(-201.000000, -505.000000)" fill="#565656" opacity="0.179512593">
            <path d="M224.40616,526.286689 C224.13729,526.122072 223.846501,525.969681 223.530832,525.833003 L225.054606,508.090747 C225.191172,506.500624 224.004937,505.122484 222.405243,505.010623 L222.3711,505.008235 C220.767831,504.896124 219.384017,506.101061 219.27228,507.69898 L218.048664,525.197503 C217.681879,525.232916 217.326868,525.276768 216.983263,525.32838 L213.500301,509.089773 C213.165578,507.529193 211.625325,506.51237 210.059638,506.816709 L210.489087,506.733233 C208.922715,507.037704 207.900859,508.553449 208.205179,510.11904 L211.524142,527.193622 C211.201911,527.387224 210.90118,527.588609 210.620577,527.795251 L205.845474,516.667434 C205.242537,515.262359 203.583809,514.504067 202.137473,514.966452 L202.85061,514.738466 C201.39696,515.203189 200.672727,516.724375 201.216653,518.141352 L206.898763,532.943755 C206.858069,533.090758 206.842181,533.172478 206.842181,533.172478 L209.184699,552.566543 L207.698014,668 L229.744068,668 L228.572656,543.828151 L238.164205,534.742849 L243.8669,531.469513 C243.8669,531.469513 244.949635,529.142406 240.938857,528.140035 C236.928078,527.137664 232.803007,530.993866 229.744068,531.469513 C229.100535,531.641708 228.653653,531.387012 228.24206,530.895432 L234.08329,511.789629 C234.486375,510.471198 233.739937,509.072317 232.415395,508.667364 C231.081619,508.259587 229.690088,509.003738 229.286699,510.323164 L224.40616,526.286689 Z" id="hand-copy-2" sketch:type="MSShapeGroup" transform="translate(222.500000, 586.500000) scale(-1, 1) translate(-222.500000, -586.500000) "></path>
        </g>
    </g>
</svg>