<?xml version="1.0" encoding="UTF-8" standalone="no"?>
<svg width="22px" height="28px" viewBox="0 0 22 28" version="1.1" xmlns="http://www.w3.org/2000/svg" xmlns:xlink="http://www.w3.org/1999/xlink" xmlns:sketch="http://www.bohemiancoding.com/sketch/ns">
    <!-- Generator: Sketch 3.4 (15575) - http://www.bohemiancoding.com/sketch -->
    <title>sanlin</title>
    <desc>Created with Sketch.</desc>
    <defs></defs>
    <g id="Page-1" stroke="none" stroke-width="1" fill="none" fill-rule="evenodd" sketch:type="MSPage">
        <g id="2" sketch:type="MSArtboardGroup" transform="translate(-214.000000, -255.000000)" fill="#FFFFFF">
            <g id="carlogo" sketch:type="MSLayerGroup" transform="translate(17.000000, 152.000000)">
                <g id="sanlin" transform="translate(197.000000, 103.000000)" sketch:type="MSShapeGroup">
                    <path d="M10.5399,13.0073 L7.0019,6.9463 L10.5399,0.8353 L14.0529,6.9213 L10.5401309,13.0069 L17.5659,13.0069 L21.0789,19.0939 L14.0529,19.0689 L10.5399,13.0069 Z M3.4884,13.0069 L0.0004,19.0939 L7.0264,19.0689 L10.5394,13.0069 L3.4884,13.0069 Z" id="Fill-1"></path>
                    <path d="M5.29425,26.3174651 L4.7993,24.9816 L4.2803,24.9816 L4.28046555,24.982 L4.107,24.982 L4.107,27.926 L4.651,27.926 L4.651,25.8772755 L5.2942,27.4313584 L5.2942,27.4316 L5.2943,27.4313525 L5.913,25.9002263 L5.913,27.926 L6.457,27.926 L6.457,24.982 L6.28403837,24.982 L6.2842,24.9816 L5.7892,24.9816 L5.29425,26.3174651 Z M9.476,25.427 L8.857,25.427 L8.857,24.982 L10.614,24.982 L10.614,25.427 L10.02,25.427 L10.02,27.926 L9.476,27.926 L9.476,25.427 Z M13.7561224,26.3428449 L13.756,26.3426 C14.472895,26.3675492 14.4239,25.8726 14.4239,25.8726 C14.3989,25.4266 13.9789,25.4516 13.9789,25.4516 L13.582,25.4516 L13.582,27.926 L13.038,27.926 L13.038,24.982 L13.5579,24.982 L13.5579,24.9816 L14.0529,24.9816 C14.9929,25.0316 14.9679,25.8476 14.9679,25.8476 C14.9679,26.5406 14.4489,26.6146 14.4489,26.6146 C14.4460297,26.6154083 14.4431328,26.6161899 14.4402108,26.6169455 L15.216,27.9256 L14.547,27.9256 L13.7561224,26.3428449 L14.0029,26.6146 C14.0029,26.6146 14.2660003,26.6619967 14.4402108,26.6169455 Z M5.517,21.32 L4.899,21.32 L4.899,20.875 L6.68,20.875 L6.68,21.32 L6.061,21.32 L6.061,23.819 L5.517,23.819 L5.517,21.32 Z M2.4738001,22.2105298 L1.9799,20.8748 L1.4599,20.8748 L1.287,20.875 L1.287,23.819 L1.831,23.819 L1.831,21.771076 L2.4737,23.323317 L2.4737,23.3238 L2.4739,23.3238 L2.4739,23.3233053 L3.093,21.7918144 L3.093,23.819 L3.637,23.819 L3.637,20.875 L3.46361915,20.875 L2.9687,20.8748 L2.4738001,22.2105298 Z M9.82200052,23.373511 C9.81163777,23.3740639 9.40089714,23.3935028 9.3772,23.0025 L9.377,23.0025 L9.377,20.875 L8.857,20.875 L8.857,23.027 L8.85749878,23.027 C8.86243254,23.1678777 8.93173222,23.8685 9.8222,23.8685 L9.8222,23.3735117 C9.83224575,23.3740795 10.2183254,23.3933457 10.243,23.0025 L10.243,20.875 L10.787,20.875 L10.787,23.027 L10.7860194,23.027 C10.777246,23.1678777 10.6899812,23.8685 9.822,23.8685 L9.822,23.3735111 Z M18.11,22.038 L17.021,22.038 L17.021,20.875 L16.477,20.875 L16.477,23.819 L17.021,23.819 L17.021,22.508 L18.11,22.508 L18.11,23.819 L18.654,23.819 L18.654,20.875 L18.11,20.875 L18.11,22.038 Z M11.4302,20.875 L11.4302,20.8748 L12.3212,20.8748 C13.1622,20.9238 13.1372,21.6418 13.1372,21.6418 C13.1372,22.1858 12.6422,22.2358 12.6422,22.2358 C13.2112,22.4828 13.2112,22.9528 13.2112,22.9528 C13.2112,23.8188 12.3952,23.8188 12.3952,23.8188 L11.776,23.8188 L11.232,23.819 L11.232,20.875 L11.4302,20.875 Z M11.776,21.3198 L12.1972,21.3198 C12.1972,21.3198 12.5432,21.3198 12.5682,21.6668 C12.5682,21.6668 12.6182,22.0868 11.9502,22.0618 L11.9502,22.4828 C11.9502,22.4828 12.1472,22.4828 12.3212,22.5328 C12.4942,22.5818 12.6422,22.7058 12.6672,22.9038 C12.6672,22.9038 12.7412,23.3488 12.2462,23.3738 L11.776,23.3738 L11.776,21.3198 Z M19.124,23.819 L19.668,23.819 L19.668,20.875 L19.124,20.875 L19.124,23.819 Z M13.459,23.819 L14.028,23.819 L14.028,20.875 L13.459,20.875 L13.459,23.819 Z M4.107,23.819 L4.676,23.819 L4.676,20.875 L4.107,20.875 L4.107,23.819 Z M7.6697,21.3201 C7.7437,21.3201 8.0157,21.3451 8.0157,21.7651 L8.5357,21.7651 C8.5357,21.7651 8.6347,20.9491 7.7937,20.8251 L7.7187,20.8251 L7.6697,20.8251 L7.5957,20.8251 L7.5457,20.8251 C7.3477,20.8501 6.8777,20.9741 6.7787,21.4691 C6.7537,21.5181 6.7537,21.5671 6.7537,21.5921 L6.7537,21.6661 L6.7537,21.7161 L6.7537,21.7411 C6.7537,21.7651 6.7787,21.7901 6.7787,21.8151 C6.8287,21.9631 6.9527,22.2111 7.3237,22.4091 C7.3727,22.4331 7.4227,22.4581 7.4717,22.4831 C7.4717,22.4831 7.4967,22.5071 7.5707,22.5321 C7.6697,22.5821 7.8177,22.6811 7.9417,22.7801 C7.9667,22.8291 8.0157,22.8541 8.0407,22.9031 C8.0407,22.9281 8.0407,22.9531 8.0657,22.9781 L8.0657,23.0271 C8.0657,23.0271 8.0657,23.3731 7.6697,23.3731 C7.6697,23.3731 7.2247,23.3981 7.1997,22.8541 L6.6557,22.8541 C6.6557,22.8541 6.6057,23.6951 7.4467,23.8431 C7.4967,23.8681 7.5707,23.8681 7.6447,23.8681 C7.6447,23.8681 7.7437,23.8681 7.8677,23.8431 C8.1397,23.7941 8.5607,23.5961 8.5847,23.0271 C8.5847,23.0271 8.6097,22.9031 8.5107,22.7301 C8.4367,22.5571 8.2887,22.3591 7.9417,22.1861 C7.9417,22.1861 7.8927,22.1611 7.8427,22.1361 C7.6447,22.0371 7.2737,21.8401 7.2987,21.6171 C7.2987,21.6171 7.2737,21.3941 7.5457,21.3201 L7.5957,21.3201 L7.6197,21.3201 L7.6697,21.3201 Z M15.2898,21.3201 C15.3638,21.3201 15.6358,21.3451 15.6358,21.7651 L16.1558,21.7651 C16.1558,21.7651 16.2548,20.9491 15.4138,20.8251 L15.3388,20.8251 L15.2898,20.8251 L15.2158,20.8251 L15.1658,20.8251 C14.9678,20.8501 14.4978,20.9741 14.3988,21.4691 C14.3988,21.5181 14.3748,21.5671 14.3748,21.5921 L14.3748,21.6661 L14.3748,21.7161 L14.3748,21.7411 C14.3988,21.7651 14.3988,21.7901 14.3988,21.8151 C14.4488,21.9631 14.5728,22.2111 14.9678,22.4091 C14.9928,22.4331 15.0428,22.4581 15.0918,22.4831 C15.0918,22.4831 15.1168,22.5071 15.1908,22.5321 C15.2898,22.5821 15.4388,22.6811 15.5618,22.7801 C15.5868,22.8291 15.6358,22.8541 15.6608,22.9031 C15.6608,22.9281 15.6608,22.9531 15.6858,22.9781 L15.6858,23.0271 C15.6858,23.0271 15.6858,23.3731 15.2898,23.3731 C15.2898,23.3731 14.8448,23.3981 14.8198,22.8541 L14.2758,22.8541 C14.2758,22.8541 14.2258,23.6951 15.0668,23.8431 C15.1168,23.8681 15.1908,23.8681 15.2648,23.8681 C15.2648,23.8681 15.3638,23.8681 15.4878,23.8431 C15.7598,23.7941 16.1808,23.5961 16.2048,23.0271 C16.2048,23.0271 16.2298,22.9031 16.1308,22.7301 C16.0568,22.5571 15.9078,22.3591 15.5618,22.1861 C15.5618,22.1861 15.5128,22.1611 15.4628,22.1361 C15.2648,22.0371 14.9188,21.8401 14.9188,21.6171 C14.9188,21.6171 14.9188,21.3941 15.1658,21.3201 L15.2158,21.3201 L15.2648,21.3201 L15.2898,21.3201 Z M16.1062,25.427 C16.1802,25.427 16.4772,25.452 16.4522,25.872 L16.9722,25.872 C16.9722,25.872 17.0712,25.056 16.2302,24.957 C16.2052,24.932 16.1802,24.932 16.1562,24.932 L16.1062,24.932 L16.0322,24.932 L15.9822,24.932 C15.7842,24.982 15.3142,25.081 15.2152,25.6 C15.1912,25.65 15.1912,25.674 15.1912,25.724 L15.1912,25.773 L15.1912,25.798 L15.1912,25.823 L15.1912,25.872 C15.1912,25.872 15.2152,25.897 15.2152,25.922 C15.2402,26.07 15.3892,26.343 15.7602,26.54 C15.8092,26.565 15.8592,26.59 15.9082,26.59 C15.9082,26.59 15.9332,26.615 16.0072,26.639 C16.1062,26.689 16.2542,26.788 16.3532,26.887 C16.4032,26.936 16.4522,26.986 16.4772,27.035 L16.4772,27.085 C16.5022,27.109 16.5022,27.134 16.5022,27.134 C16.5022,27.134 16.5022,27.48 16.0812,27.48 C16.0812,27.48 15.6362,27.505 15.6362,26.961 L15.0922,26.961 C15.0922,26.961 15.0422,27.827 15.8832,27.975 C15.9332,27.975 16.0072,27.975 16.0812,28 C16.0812,28 16.1802,28 16.3042,27.951 C16.5762,27.901 16.9972,27.728 17.0212,27.134 C17.0212,27.134 17.0462,27.01 16.9472,26.837 C16.8732,26.689 16.7242,26.491 16.3782,26.293 C16.3782,26.293 16.3292,26.293 16.2792,26.243 C16.0812,26.169 15.7102,25.971 15.7352,25.724 C15.7352,25.724 15.7102,25.501 15.9822,25.452 L16.0322,25.452 L16.0572,25.452 C16.0812,25.427 16.0812,25.427 16.1062,25.427 Z M11.653,24.957 C11.653,24.957 10.54,24.907 10.49,26.491 C10.49,26.491 10.416,27.926 11.653,27.951 L11.653,27.456 C11.653,27.456 11.035,27.505 11.035,26.491 C11.035,26.491 11.01,25.452 11.653,25.427 L11.653,24.957 Z M11.653,24.957 C11.653,24.957 12.766,24.907 12.816,26.491 C12.816,26.491 12.89,27.926 11.653,27.951 L11.653,27.456 C11.653,27.456 12.296,27.505 12.271,26.491 C12.271,26.491 12.321,25.452 11.653,25.427 L11.653,24.957 Z M8.163845,25.0001763 L8.163845,25.0001763 C8.163845,25.0001763 7.050845,24.9501763 7.000845,26.5341763 C7.000845,26.5341763 6.926845,27.9691763 8.163845,27.9941763 L8.163845,27.4991763 C8.163845,27.4991763 7.545845,27.5481763 7.545845,26.5341763 C7.545845,26.5341763 7.495845,25.4951763 8.163845,25.4701763 L8.163845,25.0001763 Z M8,25.0001763 L8,25.0001763 C8,25.0001763 9.113,24.9501763 9.163,26.5341763 C9.163,26.5341763 9.237,27.9691763 8,27.9941763 L8,27.4991763 C8,27.4991763 8.618,27.5481763 8.618,26.5341763 C8.618,26.5341763 8.668,25.4951763 8,25.4701763 L8,25.0001763 Z" id="Fill-6"></path>
                </g>
            </g>
        </g>
    </g>
</svg>