<?xml version="1.0" encoding="UTF-8" standalone="no"?>
<svg width="62px" height="99px" viewBox="0 0 62 99" version="1.1" xmlns="http://www.w3.org/2000/svg" xmlns:xlink="http://www.w3.org/1999/xlink" xmlns:sketch="http://www.bohemiancoding.com/sketch/ns">
    <!-- Generator: Sketch 3.4 (15575) - http://www.bohemiancoding.com/sketch -->
    <title>Fill 25 + Fill 29 + Fill 31</title>
    <desc>Created with Sketch.</desc>
    <defs></defs>
    <g id="Page-1" stroke="none" stroke-width="1" fill="none" fill-rule="evenodd" sketch:type="MSPage">
        <g id="4" sketch:type="MSArtboardGroup" transform="translate(-313.000000, -489.000000)">
            <g id="handinmobile" sketch:type="MSLayerGroup" transform="translate(324.265839, 503.171188) rotate(-33.000000) translate(-324.265839, -503.171188) translate(263.765839, 368.171188)">
                <g id="Fill-25-+-Fill-29-+-Fill-31" transform="translate(40.000000, 132.000000)" sketch:type="MSShapeGroup">
                    <path d="M0.7776,12.9414 L3.6916,35.2334 L49.7896,23.9214 L42.5056,0.8114 L0.7776,12.9414 Z" id="Fill-25" fill="#FFFFFF"></path>
                    <path d="M80.598018,101.878661 L49.6272668,9.70559957 L0.237294363,26.4555996 L25.3060621,136.796485 L80.598018,101.878661 Z" id="Fill-29" fill="#4990E2"></path>
                    <path d="M1.70596847,20.9706904 L2.63196847,29.6246904 L48.4359685,18.2446904 L47.6059685,15.6166904 L1.70596847,20.9706904 Z" id="Fill-27" fill="#D4DCD4"></path>
                    <path d="M61.7547226,46.5477676 L49.7926674,9.81548904 L0.721085206,26.5257952 L12.2674303,77.2063887 L61.7547226,46.5477676 Z" id="Fill-31" fill="#4383CD"></path>
                    <path d="M19.6859282,49.0541506 C18.8875617,47.2947125 16.8148405,46.5145366 15.0543918,47.3139137 C13.2959643,48.1112697 12.5147778,50.1870226 13.3131443,51.9464607 C14.1125214,53.7069094 16.1872638,54.4850642 17.9456913,53.6866976 C19.70614,52.8873205 20.4853053,50.8145993 19.6859282,49.0541506" id="Fill-33" fill="#FFFFFF"></path>
                </g>
            </g>
        </g>
    </g>
</svg>