<?xml version="1.0" encoding="UTF-8" standalone="no"?>
<svg width="55px" height="60px" viewBox="0 0 55 60" version="1.1" xmlns="http://www.w3.org/2000/svg" xmlns:xlink="http://www.w3.org/1999/xlink" xmlns:sketch="http://www.bohemiancoding.com/sketch/ns">
    <!-- Generator: Sketch 3.4 (15575) - http://www.bohemiancoding.com/sketch -->
    <title>Path 961</title>
    <desc>Created with Sketch.</desc>
    <defs></defs>
    <g id="Page-1" stroke="none" stroke-width="1" fill="none" fill-rule="evenodd" sketch:type="MSPage">
        <g id="6" sketch:type="MSArtboardGroup" transform="translate(-288.000000, -284.000000)" fill="#8DE1F0">
            <path d="M289.408537,342.855093 L293.181607,343.032626 C293.181607,343.032626 296.502865,339.365278 296.502865,335.799663 C296.502865,332.234048 292.31788,331.261607 292.31788,328.4909 C292.31788,325.720192 290.726069,322.822818 293.614467,320.277517 C296.502865,317.732217 300.807535,315.334527 304.403072,315.334527 C307.998608,315.334528 328.250308,314.576521 333.290043,310.480303 C338.329778,306.384084 337.254715,307.560764 338.656704,303.403215 C340.058693,299.245667 342.419014,284 342.419014,284 L334.930723,285.945878 C334.930723,285.945878 335.382535,303.966448 333.290041,307.43432 C331.197548,310.902193 328.241329,310.480304 328.241329,310.480304 C328.241329,310.480304 314.659335,311.840149 308.135506,311.840149 C301.611677,311.840149 291.647644,317.858336 289.408537,322.535027 C287.169431,327.211717 288.024163,329.565171 289.070227,331.110018 C290.116292,332.654865 291.39635,335.208254 291.023236,336.892579 C290.650122,338.576904 289.408537,342.855093 289.408537,342.855093 Z" id="Path-961" sketch:type="MSShapeGroup"></path>
        </g>
    </g>
</svg>