<?xml version="1.0" encoding="UTF-8" standalone="no"?>
<svg width="34px" height="43px" viewBox="0 0 34 43" version="1.1" xmlns="http://www.w3.org/2000/svg" xmlns:xlink="http://www.w3.org/1999/xlink" xmlns:sketch="http://www.bohemiancoding.com/sketch/ns">
    <!-- Generator: Sketch 3.4 (15575) - http://www.bohemiancoding.com/sketch -->
    <title>Path 960</title>
    <desc>Created with Sketch.</desc>
    <defs></defs>
    <g id="Page-1" stroke="none" stroke-width="1" fill="none" fill-rule="evenodd" sketch:type="MSPage">
        <g id="6" sketch:type="MSArtboardGroup" transform="translate(-67.000000, -274.000000)" fill="#FAD852">
            <path d="M71.3991023,274 L76.6996488,279.424897 C76.6996488,279.424897 71.6877032,285.157681 71.6877032,289.029852 C71.6877032,292.902023 71.6877031,302.266209 80.9647068,303.870804 C90.2417106,305.475399 90.6409296,298.384776 93.3400796,298.384774 C96.0392295,298.384773 100.657508,297.717801 100.657507,300.972872 C100.657506,304.227943 98.2988264,309.128839 98.2988268,310.746731 C98.2988273,312.364624 98.5934125,316.157664 98.5934125,316.157664 C98.5934125,316.157664 93.8960008,313.616116 93.8960019,311.702971 C93.8960029,309.789825 93.7191175,304.607647 93.7191175,304.607647 C93.7191175,304.607647 87.2739093,306.905766 78.9524808,304.607647 C67.0947003,301.332898 66.3738572,285.452266 67.2722436,282.438582 C68.17063,279.424898 71.3991023,274 71.3991023,274 Z" id="Path-960" sketch:type="MSShapeGroup"></path>
        </g>
    </g>
</svg>