<svg xmlns="http://www.w3.org/2000/svg" viewBox="0 0 267.8 135.35"><defs><style>.cls-1{fill:#231815;}</style></defs><title>让出行变得更省心_1</title><g id="图层_2" data-name="图层 2"><g id="图层_1-2" data-name="图层 1"><path class="cls-1" d="M235.62,78.2l-12.21,22.9-6.85-2.92,7.87-24.45ZM213.36,106l6.32,2.88,2.2-4.6L215.56,101Z"/><path class="cls-1" d="M21.34,29.89,16.77,56.28l5.42-.85L20.58,63.7l-13.71,4,4-26.51L0,45.21,2.82,32.85ZM7,16.13l11.54-2.92L22,24.57l-10.6,2.9ZM22.43,65.66l2.14-10.85L30,53.89,34.29,14,48.1,12.28,44.94,27.62l12.88-2.15L55.53,36.13,43.67,37.9,41.28,52.17l12.85-2L52.29,58.3ZM6.71,69.07l-.36,1.87L19.82,65Z"/><polygon class="cls-1" points="200.66 35.52 196.84 28.5 159.57 35.03 162.36 41.27 191.66 35.5 160.94 54.12 165.48 60.93 200.66 35.52"/><polygon class="cls-1" points="165.96 20.72 156.72 27.72 162.18 33.75 171 24.5 165.96 20.72"/><polygon class="cls-1" points="194.03 21.07 201.55 31.57 206.88 27.99 201.27 16.39 194.03 21.07"/><polygon class="cls-1" points="171.61 33.29 179.04 32.38 181.12 17.39 185.14 17.06 183.59 30.82 190.63 29.59 193.35 16.36 205.73 14.78 206.14 7.18 187.83 9.81 183.76 0 174.4 3.63 179.78 10.99 160.14 13.57 160.53 19.63 173.33 18.23 171.61 33.29"/><polygon class="cls-1" points="164.99 61.44 159.93 54.67 158.11 55.84 164.99 61.44"/><path class="cls-1" d="M259.36,24.67l2.09-7-3.08.36L260.79.88,231.48,6.69l-2.39,20.6ZM238,11.09l14-2.35-.51,3.52-13.84,2.05Zm-.7,6.83,13.84-2.13-.32,2.82L237,20.38Zm.87,27.5,4.42,4.52-3.35,3.45-5.06-4.49Zm16.15-12.51-.21,2.45,10.81-2.08-1.18,7.84-10,1.07-1.44,14.13L233.74,67.94l-3.66-8.36,15.36-6.71,1-10.2-20.76,2.82.51-5.5,21-3.42.39-2.69-17.36,3,1.31-8.08L258.66,27l-1.33,5.31Zm-41.6-7.1-4.95-5L223.46,6.6l6.2,6.77S212.69,25.81,212.69,25.81Zm17.05,4.3-6.1,4.35-2.19,20.88-7.41.48,2.35-17.59-4.53,4L208,36.83,224.8,24ZM264.65,41l1.24-7.69,1.91-.2ZM229,59.73l4.6,9.3-6-8.53Z"/><path class="cls-1" d="M46,122.1l11.83-10.61-6.5-.52,1.79-6,8.45.14,1.84-3.66-15.63,2.63,2.83-20.42,16.25-3.63.46-2.92L52.84,80.08l.68-7.34L92.5,63l-.74,9.46L77,75.32,76.37,78,90,75.35,87.58,92.79l4.55-.65L90.9,99l-18.38,1.57-2.17,4.15,23.25.89-2,11.1-26.09-3.27L52.81,127.92ZM56.36,89.91l9.72-2.11.26-2.39-9.66,1.77Zm-1.11,8.52L65,96.13l.38-2.2-9.66,1.73ZM75.49,83.84,75,86.21l7-1.45.44-2.3Zm5.83,7.23-7.11,1.34-.51,2.1,7.37-1.29ZM43.91,123.85l8,4.63-6.86-5.8Zm8.17-43.48.71-7.2-1.62.35Z"/><path class="cls-1" d="M144,78.37l-16.2,7.94,19.1-2.88L140.23,109l4.64-1-1.29,6.59-35.5,6.74,1.79-25.43-10.35,6.48-3-10.65,27-13.15L125.59,67l10.13-1.21-1.9,9.89,6.92-2.81Zm-23.6-3.86L108.88,83.9l-4.65-5.39L114,68.72Zm-3.75,39.18,16.1-3L136,90.56l-17.25,2.8Zm1.22-11.59,16.76-2.52.58-4.46-16.89,2.6Zm-.83,7.84,16.09-2.74.52-3.9-16.2,2.78Zm27-40.5L147.6,81l6.51-2.83L152.72,66Zm.48,45,1.36-6.63,1.45-.35Z"/><path class="cls-1" d="M157.87,80.25l10,1.06-3.7,24.87h-9Zm13,0-2.91,35.18,31.48-5.55v-9.26l-20.1,4,2.11-24.34Zm22.49-2.38L188,64.38,178,71.52,186.7,82.1Zm16.18,17.2-1.32-14.82-8.47,1.85V96.65Z"/><path class="cls-1" d="M67.25,130.06c39.38-5.45,81.62-8.94,125.86-11.07-43.82,4.69-85.25,10-122.92,16.36Z"/><path class="cls-1" d="M101.77,131.14c18.1-2.7,75.59-9.66,95.87-11.77-20.11,1.78-66.46,7.94-85.5,10.8Z"/><path class="cls-1" d="M95.78,30.49,94.26,42.92,70.08,46.57,71,37.4l-8-.72-3.86,20.7,10-1.93v0l24.14-4.76L92.66,56l9.25-.79,1.66-25.49Zm-16.27-.28-1.7,15,9.06-1.33L88,28.67l5.5-1,7.66-1.38,1-14.31-6.75.13-.92,7.52-5.89,1.1.65-8.62H81.54L80.4,22.27l-6.73,1.25,1.08-9.87-6.65-.33L63.57,33.15l4.85-.94Z"/><path class="cls-1" d="M105.81,23.87l5,5.89L125.7,19.68l-4.56-7.63Zm1.71,12.46,2.5,6.78,6.85-3.39-.57,16.51L124,55l1.67-20.12-3.4-6.62Zm23-21-.89,8.34L154.11,20V9.48Zm-2.6,21.9,12.23-2.49.32,13.89-7.76,2.17,1.5,6.67,14.43-4.75,1.48-20,4-.82V24.6l-25.58,3.61Z"/><polygon class="cls-1" points="167.38 41.48 205.78 48.11 202.71 57.51 165.51 46.52 167.38 41.48"/></g></g></svg>